SplineFontDB: 3.2
FontName: tigger-bold
FullName: tigger-bold
FamilyName: tigger
Weight: bold
Copyright: (c) 2025 Tadhg O'Brien
Version: 2025.12
ItalicAngle: 0
UnderlinePosition: -150
UnderlineWidth: 50
Ascent: 800
Descent: 200
InvalidEm: 0
LayerCount: 2
Layer: 0 1 "Back" 1
Layer: 1 1 "Fore" 0
XUID: [1021 796 -163880829 1938445]
StyleMap: 0x0020
FSType: 0
OS2Version: 1
OS2_WeightWidthSlopeOnly: 0
OS2_UseTypoMetrics: 0
CreationTime: 1280473793
ModificationTime: 1736637917
PfmFamily: 65
TTFWeight: 500
TTFWidth: 5
LineGap: 90
VLineGap: 0
Panose: 2 0 6 3 0 0 0 0 0 0
OS2TypoAscent: 800
OS2TypoAOffset: 0
OS2TypoDescent: -200
OS2TypoDOffset: 0
OS2TypoLinegap: 90
OS2WinAscent: 843
OS2WinAOffset: 0
OS2WinDescent: 347
OS2WinDOffset: 0
HheadAscent: 843
HheadAOffset: 0
HheadDescent: -347
HheadDOffset: 0
OS2SubXSize: 650
OS2SubYSize: 700
OS2SubXOff: 0
OS2SubYOff: 140
OS2SupXSize: 650
OS2SupYSize: 700
OS2SupXOff: 0
OS2SupYOff: 480
OS2StrikeYSize: 49
OS2StrikeYPos: 258
OS2Vendor: '2ttf'
OS2CodePages: 00000001.00000000
OS2UnicodeRanges: a00000af.00010042.00000000.00000000
Lookup: 1 0 0 "'rtla' Right to Left Alternates lookup 0" { "'rtla' Right to Left Alternates lookup 0 subtable"  } ['rtla' ('DFLT' <'dflt' > ) ]
Lookup: 260 0 0 "'mark' Mark Positioning lookup 2" { "'mark' Mark Positioning lookup 2-1"  } ['mark' ('DFLT' <'dflt' > 'arab' <'dflt' > 'armn' <'dflt' > 'cher' <'dflt' > 'cyrl' <'dflt' > 'grek' <'dflt' > 'hang' <'dflt' > 'hebr' <'dflt' > 'khmr' <'dflt' > 'latn' <'dflt' > 'mong' <'dflt' > ) ]
Lookup: 258 0 0 "'kern' Horizontal Kerning in Latin lookup 0" { "'kern' Horizontal Kerning in Latin lookup 0 subtable" [150,15,0] } ['kern' ('DFLT' <'dflt' > 'latn' <'dflt' > ) ]
MarkAttachClasses: 1
DEI: 91125
TtTable: prep
PUSHW_1
 511
SCANCTRL
PUSHB_1
 1
SCANTYPE
SVTCA[y-axis]
MPPEM
PUSHB_1
 8
LT
IF
PUSHB_2
 1
 1
INSTCTRL
EIF
PUSHB_2
 70
 6
CALL
IF
POP
PUSHB_1
 16
EIF
MPPEM
PUSHB_1
 20
GT
IF
POP
PUSHB_1
 128
EIF
SCVTCI
PUSHB_1
 6
CALL
NOT
IF
EIF
PUSHB_1
 20
CALL
EndTTInstrs

StartChar: .notdef
Encoding: 65536 -1 0
Width: 500
GlyphClass: 1
Flags: W
LayerCount: 2
Fore
SplineSet
100 50 m 1,0,-1
 400 50 l 1,1,-1
 400 483 l 1,2,-1
 100 483 l 1,3,-1
 100 50 l 1,0,-1
50 0 m 1,4,-1
 50 533 l 1,5,-1
 450 533 l 1,6,-1
 450 0 l 1,7,-1
 50 0 l 1,4,-1
EndSplineSet
Validated: 1
EndChar

StartChar: exclam
Encoding: 33 33 4
AltUni2: 002762.ffffffff.0 00fe15.ffffffff.0 00fe57.ffffffff.0 00ff01.ffffffff.0 002762.ffffffff.0 00fe15.ffffffff.0 00fe57.ffffffff.0 00ff01.ffffffff.0
Width: 163
GlyphClass: 1
Flags: W
LayerCount: 2
UndoRedoHistory
Layer: 1
Undoes
UndoOperation
Index: 0
Type: 3
WasModified: 0
WasOrder2: 1
Layer: 2
EndUndoOperation
UndoOperation
Index: 1
Type: 1
WasModified: 0
WasOrder2: 1
Layer: 2
Width: 176
VWidth: 1000
LBearingChange: 0
UnicodeEnc: 0
InstructionsLength: 0
SplineSet
93 115 m 0,0,1
 103 115 103 115 108 113 c 0,2,3
 130 102 130 102 144 89 c 0,4,5
 160 69 160 69 159 50 c 0,6,7
 157 12 157 12 119 -2 c 0,8,9
 102 -9 102 -9 87 -6 c 0,10,11
 65 -3 65 -3 53 14 c 0,12,13
 41 32 41 32 44 55 c 0,14,15
 45 73 45 73 58 98 c 0,16,17
 70 120 70 120 93 115 c 0,0,1
165 637 m 0,18,19
 140 383 140 383 140 207 c 0,20,21
 140 194 140 194 130.5 184.5 c 128,-1,22
 121 175 121 175 107 175 c 0,23,24
 94 175 94 175 84.5 184.5 c 128,-1,25
 75 194 75 194 75 207 c 0,26,27
 75 390 75 390 101 644 c 0,28,29
 102 657 102 657 112 666 c 128,-1,30
 122 675 122 675 136 673 c 128,-1,31
 150 671 150 671 158 660.5 c 128,-1,32
 166 650 166 650 165 637 c 0,18,19
EndSplineSet
EndUndoOperation
EndUndoes
Redoes
EndRedoes
EndUndoRedoHistory
Fore
SplineSet
109 131 m 0,0,1
 113 131 113 131 117 130 c 0,2,3
 129 130 129 130 135 126 c 0,4,5
 154 114 154 114 167 99 c 1,6,7
 179 75 179 75 173 52 c 0,8,9
 167 24 167 24 147 5 c 0,10,11
 132 -9 132 -9 111 -16 c 0,12,13
 96 -22 96 -22 84 -22 c 0,14,15
 78 -22 78 -22 73 -21 c 0,16,17
 48 -17 48 -17 38 6 c 0,18,19
 31 24 31 24 36 46 c 0,20,21
 43 74 43 74 65 105 c 0,22,23
 85 131 85 131 109 131 c 0,0,1
191 207 m 0,24,25
 187 188 187 188 171 174 c 128,-1,26
 155 160 155 160 136.5 160 c 128,-1,27
 118 160 118 160 108.5 174 c 128,-1,28
 99 188 99 188 103 207 c 0,29,30
 145 391 145 391 228 645 c 0,31,32
 234 664 234 664 249.5 676 c 128,-1,33
 265 688 265 688 280 688 c 0,34,35
 303 688 303 688 312 670 c 0,36,37
 318 657 318 657 315 640 c 0,38,39
 314 638 314 638 313 636 c 0,40,41
 231 382 231 382 191 207 c 0,24,25
EndSplineSet
EndChar

StartChar: quotedbl
Encoding: 34 34 5
AltUni2: 0002ba.ffffffff.0 00030b.ffffffff.0 00030e.ffffffff.0 00201c.ffffffff.0 00201d.ffffffff.0 00ff02.ffffffff.0 0002ba.ffffffff.0 00030b.ffffffff.0 00030e.ffffffff.0 00201c.ffffffff.0 00201d.ffffffff.0 00ff02.ffffffff.0
Width: 271
GlyphClass: 1
InSpiro: 1
Flags: W
LayerCount: 2
UndoRedoHistory
Layer: 1
Undoes
UndoOperation
Index: 0
Type: 3
WasModified: 0
WasOrder2: 1
Layer: 2
EndUndoOperation
UndoOperation
Index: 1
Type: 1
WasModified: 0
WasOrder2: 1
Layer: 2
Width: 292
VWidth: 1000
LBearingChange: 0
UnicodeEnc: 0
InstructionsLength: 0
SplineSet
123 747 m 0,0,1
 94 645 94 645 104 542 c 0,2,3
 106 526 106 526 96 513.5 c 128,-1,4
 86 501 86 501 70 500 c 0,5,6
 54 498 54 498 42 508 c 128,-1,7
 30 518 30 518 28 534 c 0,8,9
 16 647 16 647 49 768 c 0,10,11
 53 784 53 784 67 791.5 c 128,-1,12
 81 799 81 799 97 795 c 0,13,14
 112 790 112 790 119.5 776.5 c 128,-1,15
 127 763 127 763 123 747 c 0,0,1
  Spiro
    123 747 o
    103.75 644.75 o
    104 542 o
    103 526.875 o
    96 513.5 o
    84.5 503.875 o
    70 500 o
    55 501 o
    42 508 o
    32.5 519.5 o
    28 534 o
    27.25 649 o
    49 768 o
    55.5 781.875 o
    67 791.5 o
    81.5 796.125 o
    97 795 o
    110.125 787.875 o
    119.5 776.5 o
    124.125 762.375 o
    0 0 z
  EndSpiro
267 751 m 0,16,17
 234 628 234 628 255 533 c 0,18,19
 258 517 258 517 249.5 504 c 128,-1,20
 241 491 241 491 225 487 c 0,21,22
 209 484 209 484 196 493 c 128,-1,23
 183 502 183 502 180 517 c 0,24,25
 156 629 156 629 192 770 c 0,26,27
 196 786 196 786 209.5 794 c 128,-1,28
 223 802 223 802 239 798 c 0,29,30
 254 793 254 793 262.5 780 c 128,-1,31
 271 767 271 767 267 751 c 0,16,17
  Spiro
    267 751 o
    247.5 635 o
    255 533 o
    255.125 517.75 o
    249.5 504 o
    239.125 493.25 o
    225 487 o
    209.75 487 o
    196 493 o
    185.5 503.5 o
    180 517 o
    171 636.25 o
    192 770 o
    198.375 784 o
    209.5 794 o
    223.625 799 o
    239 798 o
    252.375 791 o
    262.5 780 o
    267.875 766.25 o
    0 0 z
  EndSpiro
EndSplineSet
EndUndoOperation
EndUndoes
Redoes
EndRedoes
EndUndoRedoHistory
Fore
SplineSet
245 595 m 0,0,1
 239 569 239 569 237 554.5 c 128,-1,2
 235 540 235 540 235 537 c 0,3,4
 231 519 231 519 216 504 c 0,5,6
 197 485 197 485 172 485 c 0,7,8
 155 485 155 485 144 497 c 0,9,10
 133 510 133 510 135 532 c 0,11,12
 139 563 139 563 146 595 c 0,13,14
 166 681 166 681 210 772 c 0,15,16
 220 794 220 794 241 805 c 0,17,18
 254 812 254 812 267 811 c 0,19,20
 276 811 276 811 281 809 c 0,21,22
 299 802 299 802 304 784 c 0,23,24
 307 772 307 772 304 758 c 0,25,26
 302 750 302 750 299 743 c 0,27,28
 262 669 262 669 245 595 c 0,0,1
384 611 m 0,29,30
 376 574 376 574 374 536 c 0,31,32
 374 530 374 530 373 525 c 0,33,34
 369 509 369 509 358 496 c 0,35,36
 343 478 343 478 321 472 c 0,37,38
 315 471 315 471 311 471 c 0,39,40
 296 471 296 471 285 481 c 0,41,42
 271 493 271 493 272 514 c 0,43,44
 273 558 273 558 285 607 c 0,45,46
 285 609 285 609 285 611 c 0,47,48
 303 687 303 687 343 774 c 0,49,50
 353 796 353 796 374 807 c 0,51,52
 387 814 387 814 400 814 c 0,53,54
 408 814 408 814 414 812 c 0,55,56
 431 805 431 805 438 788 c 0,57,58
 443 775 443 775 439 761 c 0,59,60
 437 754 437 754 434 747 c 0,61,62
 398 674 398 674 384 611 c 0,29,30
EndSplineSet
EndChar

StartChar: numbersign
Encoding: 35 35 6
AltUni2: 00fe5f.ffffffff.0 00ff03.ffffffff.0 00fe5f.ffffffff.0 00ff03.ffffffff.0
Width: 679
GlyphClass: 1
Flags: W
LayerCount: 2
UndoRedoHistory
Layer: 1
Undoes
UndoOperation
Index: 0
Type: 3
WasModified: 0
WasOrder2: 1
Layer: 2
EndUndoOperation
UndoOperation
Index: 1
Type: 1
WasModified: 0
WasOrder2: 1
Layer: 2
Width: 731
VWidth: 1000
LBearingChange: 0
UnicodeEnc: 0
InstructionsLength: 0
SplineSet
459 420 m 1,0,1
 362 414 362 414 329 413 c 0,2,3
 320 412 320 412 303 412 c 1,4,5
 303 406 303 406 302.5 400 c 128,-1,6
 302 394 302 394 301 387 c 128,-1,7
 300 380 300 380 300 376 c 0,8,9
 295 326 295 326 295 266 c 1,10,-1
 297 266 l 2,11,12
 357 266 357 266 463 270 c 1,13,14
 461 305 461 305 459 374 c 2,15,-1
 459 420 l 1,0,1
47 264 m 0,16,17
 85 265 85 265 178 265 c 2,18,-1
 230 265 l 1,19,20
 230 328 230 328 235 382 c 2,21,-1
 238 409 l 1,22,23
 152 407 152 407 55 406 c 0,24,25
 42 405 42 405 32.5 414.5 c 128,-1,26
 23 424 23 424 22 438 c 0,27,28
 22 451 22 451 31 460.5 c 128,-1,29
 40 470 40 470 54 471 c 0,30,31
 185 472 185 472 245 475 c 1,32,33
 246 483 246 483 248 501 c 0,34,35
 258 586 258 586 260 607 c 0,36,37
 266 661 266 661 266 696 c 0,38,39
 266 710 266 710 275 719 c 128,-1,40
 284 728 284 728 298 728 c 128,-1,41
 312 728 312 728 321.5 718.5 c 128,-1,42
 331 709 331 709 331 696 c 0,43,44
 331 657 331 657 325 600 c 0,45,46
 324 594 324 594 322.5 576.5 c 128,-1,47
 321 559 321 559 319 548 c 0,48,49
 317 532 317 532 316 521 c 0,50,51
 316 517 316 517 312 493 c 0,52,53
 312 491 312 491 311.5 485.5 c 128,-1,54
 311 480 311 480 311 477 c 1,55,56
 321 477 321 477 327 478 c 0,57,58
 358 479 358 479 460 485 c 1,59,60
 461 495 461 495 461.5 517 c 128,-1,61
 462 539 462 539 462 550 c 0,62,63
 465 676 465 676 464 697 c 0,64,65
 464 711 464 711 473.5 720.5 c 128,-1,66
 483 730 483 730 496 730 c 0,67,68
 510 731 510 731 519.5 721.5 c 128,-1,69
 529 712 529 712 529 699 c 0,70,71
 530 677 530 677 527 548 c 0,72,73
 527 538 527 538 526.5 518 c 128,-1,74
 526 498 526 498 525 489 c 1,75,76
 590 493 590 493 680 501 c 0,77,78
 693 502 693 502 703 493.5 c 128,-1,79
 713 485 713 485 715 471 c 0,80,81
 716 457 716 457 707 447 c 128,-1,82
 698 437 698 437 685 436 c 0,83,84
 592 428 592 428 524 424 c 1,85,-1
 524 374 l 2,86,87
 526 306 526 306 528 273 c 1,88,89
 630 281 630 281 685 287 c 0,90,91
 699 289 699 289 709 280 c 128,-1,92
 719 271 719 271 720 258 c 128,-1,93
 721 245 721 245 713 234.5 c 128,-1,94
 705 224 705 224 692 222 c 0,95,96
 618 214 618 214 533 209 c 1,97,98
 534 203 534 203 535.5 192 c 128,-1,99
 537 181 537 181 538 175 c 0,100,101
 553 81 553 81 583 41 c 0,102,103
 591 31 591 31 589 17.5 c 128,-1,104
 587 4 587 4 576 -4 c 128,-1,105
 565 -12 565 -12 552 -10.5 c 128,-1,106
 539 -9 539 -9 531 2 c 0,107,108
 491 55 491 55 474 165 c 0,109,110
 470 191 470 191 468 205 c 1,111,112
 360 201 360 201 298 201 c 1,113,114
 298 198 298 198 298.5 193.5 c 128,-1,115
 299 189 299 189 299 187 c 0,116,117
 311 96 311 96 351 46 c 0,118,119
 359 36 359 36 357.5 22 c 128,-1,120
 356 8 356 8 346 0 c 128,-1,121
 336 -8 336 -8 322 -6.5 c 128,-1,122
 308 -5 308 -5 300 5 c 0,123,124
 249 69 249 69 235 179 c 0,125,126
 233 193 233 193 233 200 c 1,127,-1
 178 200 l 2,128,129
 86 200 86 200 48 199 c 0,130,131
 35 199 35 199 25 208.5 c 128,-1,132
 15 218 15 218 15 231 c 0,133,134
 15 245 15 245 24.5 254.5 c 128,-1,135
 34 264 34 264 47 264 c 0,16,17
EndSplineSet
EndUndoOperation
EndUndoes
Redoes
EndRedoes
EndUndoRedoHistory
Fore
SplineSet
380 376 m 2,0,-1
 380 375 l 1,1,2
 366 331 366 331 353 281 c 1,3,4
 402 281 402 281 482 284 c 1,5,6
 488 318 488 318 499 374 c 2,7,-1
 499 374 l 1,8,-1
 506 404 l 1,9,10
 427 399 427 399 399 398 c 0,11,12
 394 397 394 397 387 397 c 1,13,14
 385 391 385 391 383 385 c 128,-1,15
 381 379 381 379 380 376 c 2,0,-1
631 548 m 0,16,17
 626 527 626 527 620 505 c 1,18,19
 676 509 676 509 750 516 c 2,20,-1
 750 516 l 2,21,22
 752 516 752 516 754 516 c 0,23,24
 770 516 770 516 780 504 c 0,25,26
 792 490 792 490 787 468 c 0,27,28
 783 450 783 450 768 436.5 c 128,-1,29
 753 423 753 423 735 421 c 0,30,31
 655 414 655 414 596 410 c 1,32,-1
 588 374 l 1,33,34
 577 321 577 321 571 289 c 1,35,36
 657 296 657 296 682.5 299 c 128,-1,37
 708 302 708 302 711 302 c 0,38,39
 726 302 726 302 737 290 c 0,40,41
 748 276 748 276 743 255 c 0,42,43
 739 239 739 239 725 224 c 0,44,45
 711 209 711 209 693 207 c 0,46,47
 629 200 629 200 557 195 c 1,48,49
 557 195 557 195 556.5 189 c 128,-1,50
 556 183 556 183 555 177 c 0,51,52
 548 87 548 87 565 50 c 0,53,54
 571 38 571 38 567 23 c 0,55,56
 561 -2 561 -2 540 -16 c 0,57,58
 526 -26 526 -26 511 -26 c 0,59,60
 489 -26 489 -26 481 -7 c 0,61,62
 455 49 455 49 465 163 c 0,63,64
 466 179 466 179 467 190 c 1,65,66
 387 187 387 187 335 186 c 1,67,68
 326 101 326 101 350 55 c 0,69,70
 356 42 356 42 353 26 c 0,71,72
 347 2 347 2 328 -12 c 0,73,74
 314 -22 314 -22 298 -22 c 0,75,76
 276 -22 276 -22 267 -4 c 0,77,78
 232 65 232 65 246 185 c 1,79,-1
 208 185 l 2,80,81
 123 185 123 185 87 184 c 2,82,-1
 87 184 l 2,83,84
 69 184 69 184 59 198 c 128,-1,85
 49 212 49 212 53.5 231.5 c 128,-1,86
 58 251 58 251 74 265 c 128,-1,87
 90 279 90 279 108 279 c 0,88,89
 144 280 144 280 230 280 c 2,90,-1
 265 280 l 1,91,92
 278 335 278 335 293 383 c 2,93,-1
 293 384 l 1,94,-1
 297 394 l 1,95,96
 181 391 181 391 139 391 c 0,97,98
 123 391 123 391 113 404 c 0,99,100
 103 418 103 418 108 438 c 0,101,102
 112 457 112 457 127 471 c 0,103,104
 143 485 143 485 162 486 c 0,105,106
 272 487 272 487 328 489 c 1,107,108
 330 495 330 495 346 541.5 c 128,-1,109
 362 588 362 588 368 608 c 2,110,-1
 368 609 l 2,111,112
 386 662 386 662 394 696 c 0,113,114
 399 716 399 716 414.5 729.5 c 128,-1,115
 430 743 430 743 448.5 743 c 128,-1,116
 467 743 467 743 477 729 c 128,-1,117
 487 715 487 715 482 696 c 0,118,119
 473 656 473 656 454 598 c 0,120,121
 451 588 451 588 446 572.5 c 128,-1,122
 441 557 441 557 436 546 c 0,123,124
 431 531 431 531 429 523 c 128,-1,125
 427 515 427 515 418 493 c 1,126,127
 445 494 445 494 530 499 c 1,128,129
 536 523 536 523 543 550 c 2,130,-1
 543 550 l 1,131,132
 575 676 575 676 578 696 c 2,133,-1
 578 697 l 2,134,135
 583 718 583 718 599 731 c 0,136,137
 615 745 615 745 634 745 c 128,-1,138
 653 745 653 745 662.5 731.5 c 128,-1,139
 672 718 672 718 667 699 c 0,140,141
 663 677 663 677 631 548 c 0,16,17
EndSplineSet
EndChar

StartChar: dollar
Encoding: 36 36 7
AltUni2: 00fe69.ffffffff.0 00ff04.ffffffff.0 00fe69.ffffffff.0 00ff04.ffffffff.0
Width: 552
GlyphClass: 1
Flags: W
LayerCount: 2
UndoRedoHistory
Layer: 1
Undoes
UndoOperation
Index: 0
Type: 3
WasModified: 0
WasOrder2: 1
Layer: 2
EndUndoOperation
EndUndoes
Redoes
EndRedoes
EndUndoRedoHistory
Fore
SplineSet
365 119 m 5,0,1
 395 131 395 131 425 152 c 4,2,3
 493 197 493 197 502 244 c 4,4,5
 508 276 508 276 502 296 c 4,6,7
 496 311 496 311 482 319 c 4,8,9
 462 331 462 331 416 334 c 5,10,-1
 402 274 l 6,11,12
 393 237 393 237 389 223 c 6,13,-1
 365 119 l 5,0,1
249 440 m 4,14,15
 250 440 250 440 250 439 c 4,16,17
 252 438 252 438 255.5 437.5 c 132,-1,18
 259 437 259 437 261 437 c 4,19,20
 281 433 281 433 342 436 c 5,21,22
 345 446 345 446 350 466.5 c 132,-1,23
 355 487 355 487 358 497 c 4,24,25
 359 500 359 500 372 550 c 5,26,27
 366 549 366 549 361 545 c 4,28,29
 307 520 307 520 277 491 c 4,30,31
 252 465 252 465 249 440 c 4,14,15
539 580 m 4,32,33
 520 586 520 586 478 580 c 5,34,35
 472 557 472 557 467.5 541 c 132,-1,36
 463 525 463 525 459.5 512.5 c 132,-1,37
 456 500 456 500 454 494 c 4,38,39
 449 475 449 475 441 438 c 5,40,41
 454 438 454 438 474 436 c 4,42,43
 518 430 518 430 545 413 c 4,44,45
 623 367 623 367 600 249 c 4,46,47
 590 194 590 194 548 144 c 4,48,49
 515 103 515 103 464 68 c 4,50,51
 403 26 403 26 335 7 c 5,52,53
 313 -75 313 -75 288 -149 c 4,54,55
 281 -171 281 -171 262.5 -184.5 c 132,-1,56
 244 -198 244 -198 225 -195 c 4,57,58
 205 -193 205 -193 196.5 -176 c 132,-1,59
 188 -159 188 -159 195 -138 c 4,60,61
 215 -79 215 -79 235 -6 c 5,62,63
 174 -6 174 -6 85 14 c 4,64,65
 66 18 66 18 59 36 c 132,-1,66
 52 54 52 54 61 75 c 4,67,68
 70 96 70 96 89.5 108 c 132,-1,69
 109 120 109 120 127 116 c 4,70,71
 209 98 209 98 263 99 c 5,72,73
 272 136 272 136 292 223 c 6,74,-1
 304 274 l 5,75,-1
 318 332 l 5,76,77
 278 330 278 330 275 330 c 4,78,79
 242 330 242 330 221 334 c 4,80,81
 190 339 190 339 172 356 c 4,82,83
 147 378 147 378 149 417 c 4,84,85
 154 494 154 494 217 556 c 4,86,87
 265 606 265 606 341 640 c 4,88,89
 371 653 371 653 404 664 c 5,90,91
 422 730 422 730 428 764 c 4,92,93
 431 785 431 785 448 802 c 132,-1,94
 465 819 465 819 486 820 c 132,-1,95
 507 821 507 821 518.5 807 c 132,-1,96
 530 793 530 793 527 772 c 4,97,98
 521 741 521 741 507 686 c 5,99,100
 557 689 557 689 586 681 c 4,101,102
 605 677 605 677 610.5 658 c 132,-1,103
 616 639 616 639 607 618 c 4,104,105
 598 597 598 597 577.5 586 c 132,-1,106
 557 575 557 575 539 580 c 4,32,33
EndSplineSet
EndChar

StartChar: percent
Encoding: 37 37 8
AltUni2: 00066a.ffffffff.0 00fe6a.ffffffff.0 00ff05.ffffffff.0 00066a.ffffffff.0 00fe6a.ffffffff.0 00ff05.ffffffff.0
Width: 678
GlyphClass: 1
Flags: W
LayerCount: 2
UndoRedoHistory
Layer: 1
Undoes
UndoOperation
Index: 0
Type: 3
WasModified: 0
WasOrder2: 1
Layer: 2
EndUndoOperation
EndUndoes
Redoes
EndRedoes
EndUndoRedoHistory
Fore
SplineSet
559 158 m 1,0,1
 544 155 544 155 534 159 c 1,2,3
 512 149 512 149 493.5 125 c 128,-1,4
 475 101 475 101 471 78 c 0,5,6
 467 62 467 62 472 57 c 0,7,8
 477 53 477 53 481 52 c 0,9,10
 492 50 492 50 508 53 c 0,11,12
 525 56 525 56 538 73 c 0,13,14
 552 95 552 95 558 131 c 0,15,16
 559 143 559 143 559 158 c 1,0,1
549 256 m 1,17,18
 578 275 578 275 605 270.5 c 128,-1,19
 632 266 632 266 645 240 c 0,20,21
 665 203 665 203 657 142 c 0,22,23
 648 80 648 80 615 29 c 0,24,25
 569 -40 569 -40 499 -50 c 0,26,27
 426 -62 426 -62 392 -23 c 0,28,29
 359 13 359 13 374 77 c 0,30,31
 385 130 385 130 424.5 180 c 128,-1,32
 464 230 464 230 515 253 c 0,33,34
 531 261 531 261 549 256 c 1,17,18
337 584 m 1,35,36
 322 581 322 581 312 585 c 1,37,38
 290 575 290 575 271.5 551 c 128,-1,39
 253 527 253 527 249 504 c 0,40,41
 245 488 245 488 250 483 c 0,42,43
 251 481 251 481 258 478 c 0,44,45
 269 476 269 476 286 479 c 0,46,47
 304 482 304 482 316 500 c 0,48,49
 330 521 330 521 335 558 c 0,50,51
 337 569 337 569 337 584 c 1,35,36
327 683 m 1,52,53
 356 702 356 702 382.5 697 c 128,-1,54
 409 692 409 692 423 666 c 0,55,56
 443 629 443 629 434 568 c 0,57,58
 426 508 426 508 393 455 c 0,59,60
 348 388 348 388 277 376 c 0,61,62
 204 364 204 364 169 403 c 0,63,64
 136 439 136 439 152 503 c 0,65,66
 163 556 163 556 202.5 606 c 128,-1,67
 242 656 242 656 293 679 c 0,68,69
 310 688 310 688 327 683 c 1,52,53
96 -18 m 0,70,71
 183 145 183 145 392 368 c 0,72,73
 587 574 587 574 750 694 c 0,74,75
 768 708 768 708 788 706 c 128,-1,76
 808 704 808 704 816 687 c 0,77,78
 825 671 825 671 818 649.5 c 128,-1,79
 811 628 811 628 793 614 c 0,80,81
 637 498 637 498 455 305 c 0,82,83
 260 97 260 97 181 -50 c 0,84,85
 171 -70 171 -70 150.5 -80 c 128,-1,86
 130 -90 130 -90 113 -84 c 0,87,88
 96 -77 96 -77 90.5 -58 c 128,-1,89
 85 -39 85 -39 96 -18 c 0,70,71
EndSplineSet
EndChar

StartChar: ampersand
Encoding: 38 38 9
AltUni2: 00fe60.ffffffff.0 00ff06.ffffffff.0 00fe60.ffffffff.0 00ff06.ffffffff.0
Width: 601
GlyphClass: 1
Flags: W
LayerCount: 2
UndoRedoHistory
Layer: 1
Undoes
UndoOperation
Index: 0
Type: 3
WasModified: 0
WasOrder2: 1
Layer: 2
EndUndoOperation
EndUndoes
Redoes
EndRedoes
EndUndoRedoHistory
Fore
SplineSet
500 738 m 0,0,1
 457 731 457 731 392 678.5 c 128,-1,2
 327 626 327 626 286 566 c 0,3,4
 266 536 266 536 257.5 517 c 128,-1,5
 249 498 249 498 240 457 c 128,-1,6
 231 416 231 416 229.5 367 c 128,-1,7
 228 318 228 318 232 303 c 128,-1,8
 236 288 236 288 235 281 c 2,9,-1
 195 228 l 1,10,11
 82 101 82 101 62 18 c 0,12,13
 55 -12 55 -12 57 -19.5 c 128,-1,14
 59 -27 59 -27 76 -42 c 0,15,16
 128 -87 128 -87 225 -75.5 c 128,-1,17
 322 -64 322 -64 405 -4 c 1,18,-1
 438 18 l 1,19,-1
 461 -4 l 1,20,21
 482 -34 482 -34 510 -34 c 2,22,-1
 538 -34 l 1,23,-1
 553 33 l 1,24,25
 548 41 548 41 537.5 41 c 128,-1,26
 527 41 527 41 518 56 c 2,27,-1
 506 71 l 1,28,-1
 543 108 l 1,29,-1
 506 161 l 1,30,-1
 489 146 l 1,31,32
 464 131 464 131 461 131 c 128,-1,33
 458 131 458 131 411.5 187 c 128,-1,34
 365 243 365 243 349 266 c 2,35,-1
 333 288 l 1,36,-1
 355 318 l 1,37,38
 456 423 456 423 517.5 509.5 c 128,-1,39
 579 596 579 596 589.5 641 c 128,-1,40
 600 686 600 686 597 704.5 c 128,-1,41
 594 723 594 723 576 734.5 c 128,-1,42
 558 746 558 746 544 746 c 128,-1,43
 530 746 530 746 500 738 c 0,0,1
464 641 m 0,44,45
 503 663 503 663 514 663 c 128,-1,46
 525 663 525 663 511 633 c 0,47,48
 481 566 481 566 386 453 c 2,49,-1
 328 386 l 2,50,51
 312 371 312 371 308 371 c 128,-1,52
 304 371 304 371 301 393 c 0,53,54
 300 476 300 476 349.5 539.5 c 128,-1,55
 399 603 399 603 464 641 c 0,44,45
238 176 m 2,56,-1
 277 221 l 1,57,-1
 351 123 l 1,58,-1
 395 71 l 1,59,60
 402 71 402 71 373.5 52 c 128,-1,61
 345 33 345 33 310 18 c 128,-1,62
 275 3 275 3 229.5 3 c 128,-1,63
 184 3 184 3 157.5 10.5 c 128,-1,64
 131 18 131 18 134 29.5 c 128,-1,65
 137 41 137 41 169 89.5 c 128,-1,66
 201 138 201 138 238 176 c 2,56,-1
EndSplineSet
EndChar

StartChar: quotesingle
Encoding: 39 39 10
AltUni2: 000374.ffffffff.0 0002b9.ffffffff.0 0002bc.ffffffff.0 0002c8.ffffffff.0 002019.ffffffff.0 002032.ffffffff.0 00ff07.ffffffff.0 0002b9.ffffffff.0 0002bc.ffffffff.0 0002c8.ffffffff.0 002019.ffffffff.0 002032.ffffffff.0 00ff07.ffffffff.0
Width: 181
GlyphClass: 1
Flags: W
LayerCount: 2
UndoRedoHistory
Layer: 1
Undoes
UndoOperation
Index: 0
Type: 3
WasModified: 0
WasOrder2: 1
Layer: 2
EndUndoOperation
UndoOperation
Index: 1
Type: 1
WasModified: 1
WasOrder2: 1
Layer: 2
Width: 166
VWidth: 1000
LBearingChange: 0
UnicodeEnc: 0
InstructionsLength: 0
SplineSet
137 781 m 132,-1,1
 152 766 152 766 152 748.75 c 132,-1,2
 152 731.5 152 731.5 155 520 c 4,3,4
 155 498 155 498 140 483 c 132,-1,5
 125 468 125 468 103 468 c 132,-1,6
 81 468 81 468 66 483 c 132,-1,7
 51 498 51 498 51 520 c 6,8,9
 51 520 51 520 49.5 606.5 c 132,-1,10
 48 693 48 693 48 744 c 4,11,12
 48 766 48 766 63 781 c 132,-1,13
 78 796 78 796 100 796 c 132,-1,0
 122 796 122 796 137 781 c 132,-1,1
EndSplineSet
EndUndoOperation
EndUndoes
Redoes
EndRedoes
EndUndoRedoHistory
Fore
SplineSet
163 505 m 0,0,1
 200 678 200 678 212 729 c 0,2,3
 219 757 219 757 241.5 776.5 c 128,-1,4
 264 796 264 796 290 796 c 128,-1,5
 316 796 316 796 329.5 776.5 c 128,-1,6
 343 757 343 757 338 734 c 2,7,8
 310 605 310 605 288 505 c 2,9,10
 281 477 281 477 258.5 457.5 c 128,-1,11
 236 438 236 438 210 438 c 128,-1,12
 184 438 184 438 170.5 457.5 c 128,-1,13
 157 477 157 477 163 505 c 0,0,1
EndSplineSet
EndChar

StartChar: parenright
Encoding: 41 41 12
AltUni2: 00207e.ffffffff.0 00208e.ffffffff.0 00fe36.ffffffff.0 00fe5a.ffffffff.0 00ff09.ffffffff.0 00207e.ffffffff.0 00208e.ffffffff.0 00fe36.ffffffff.0 00fe5a.ffffffff.0 00ff09.ffffffff.0
Width: 326
GlyphClass: 1
InSpiro: 1
Flags: W
LayerCount: 2
UndoRedoHistory
Layer: 1
Undoes
UndoOperation
Index: 0
Type: 3
WasModified: 0
WasOrder2: 1
Layer: 2
EndUndoOperation
UndoOperation
Index: 1
Type: 1
WasModified: 0
WasOrder2: 1
Layer: 2
Width: 353
VWidth: 1000
LBearingChange: 0
UnicodeEnc: 0
InstructionsLength: 0
SplineSet
120.6875 778 m 0,0,1
 127.177734375 778 127.177734375 778 133.819335938 777 c 0,2,3
 160.927734375 772.973632812 160.927734375 772.973632812 176.428710938 754.905273438 c 0,4,5
 301.749023438 575.46484375 301.749023438 575.46484375 331.284179688 432.202148438 c 0,6,7
 343.301757812 374.262695312 343.301757812 374.262695312 343.301757812 304.235351562 c 0,8,9
 343.301757812 200.986328125 343.301757812 200.986328125 317.72265625 71.48828125 c 0,10,11
 297.381835938 -30.984375 297.381835938 -30.984375 253.759765625 -124.310546875 c 0,12,13
 210.138671875 -215.762695312 210.138671875 -215.762695312 136.3046875 -270.909179688 c 0,14,15
 119.221679688 -281.5625 119.221679688 -281.5625 97.0390625 -281.5625 c 0,16,17
 62.314453125 -281.5625 62.314453125 -281.5625 42.078125 -260.98828125 c 0,18,19
 28.4375 -247.245117188 28.4375 -247.245117188 28.4375 -230.404296875 c 0,20,21
 28.4375 -188.836914062 28.4375 -188.836914062 54.8955078125 -164.166015625 c 0,22,23
 148.334960938 -94.935546875 148.334960938 -94.935546875 188.265625 107.786132812 c 1,24,25
 188.296875 112.5859375 188.296875 112.5859375 188.327148438 108.24609375 c 1,26,27
 208.581054688 202.044921875 208.581054688 202.044921875 208.581054688 301.703125 c 0,28,29
 208.581054688 364.541992188 208.581054688 364.541992188 198.8046875 410.966796875 c 0,30,31
 176.404296875 518.05078125 176.404296875 518.05078125 65.626953125 679.905273438 c 0,32,33
 54 700.38671875 54 700.38671875 54 725.03125 c 0,34,35
 54 730.174804688 54 730.174804688 55.2529296875 735.512695312 c 0,36,37
 60.408203125 756.981445312 60.408203125 756.981445312 83.6943359375 769.008789062 c 0,38,39
 100.959960938 778 100.959960938 778 120.6875 778 c 0,0,1
  Spiro
    120.688 778 o
    127.216 777.75 o
    133.819 777 o
    158.026 769.463 o
    176.429 754.905 o
    277.803 584.509 o
    331.284 432.202 o
    340.297 371.241 o
    343.302 304.235 o
    336.907 194.424 o
    317.723 71.4883 o
    291.562 -28.6978 o
    253.76 -124.311 o
    202.585 -206.686 o
    136.305 -270.909 o
    117.947 -278.899 o
    97.0391 -281.562 o
    65.9365 -276.419 o
    42.0781 -260.988 o
    31.8477 -246.471 o
    28.4375 -230.404 o
    35.052 -193.061 o
    54.8955 -164.166 o
    134.958 -61.5627 o
    188.266 107.786 v
    188.297 110.301 o
    188.327 108.246 v
    203.518 203.51 o
    208.581 301.703 o
    206.137 360.438 o
    198.805 410.967 o
    154.31 531.743 o
    65.627 679.905 o
    56.9067 701.427 o
    54 725.031 o
    54.3132 730.223 o
    55.2529 735.513 o
    64.9409 754.621 o
    83.6943 769.009 o
    101.575 775.752 o
    0 0 z
  EndSpiro
EndSplineSet
EndUndoOperation
EndUndoes
Redoes
EndRedoes
EndUndoRedoHistory
Fore
SplineSet
297 778 m 0,0,1
 300 778 300 778 302 778 c 0,2,3
 305 778 305 778 308 777 c 0,4,5
 318 774 318 774 326 769 c 0,6,7
 333 764 333 764 338 755 c 0,8,9
 344.378906532 742.722574998 344.378906532 742.722574998 346.91512177 711.868280646 c 128,-1,10
 349.175314713 684.371932034 349.175314713 684.371932034 353.069962314 668.007669614 c 0,11,12
 357.067229434 651.212227328 357.067229434 651.212227328 369.334104455 621.497150019 c 0
 381.600979477 591.782072711 381.600979477 591.782072711 384 585 c 0,13,14
 396.705243773 549.0820554 396.705243773 549.0820554 397.298215963 509.187462595 c 128,-1,15
 397.615374319 487.84935661 397.615374319 487.84935661 393 432 c 0,16,17
 390 390 390 390 387 371 c 0,18,19
 383 341 383 341 374 304 c 0,20,21
 362 253 362 253 343 194 c 0,22,23
 323 131 323 131 299 71 c 0,24,25
 277 17 277 17 254 -29 c 128,-1,26
 229 -79 229 -79 200 -124 c 0,27,28
 170 -172 170 -172 138 -207 c 0,29,30
 95 -254 95 -254 68 -271 c 0,31,32
 59 -276 59 -276 51 -279 c 128,-1,33
 42 -282 42 -282 33 -282 c 0,34,35
 20 -282 20 -282 8 -276 c 0,36,37
 -3 -270 -3 -270 -9 -261 c 0,38,39
 -13 -254 -13 -254 -14 -246 c 128,-1,40
 -15 -239 -15 -239 -13 -230 c 0,41,42
 -9 -211 -9 -211 1 -193 c 0,43,44
 9 -179 9 -179 24 -164 c 0,45,46
 30.2411403572 -157.762175267 30.2411403572 -157.762175267 47.4921540228 -141.804476099 c 0
 64.7431676884 -125.846776931 64.7431676884 -125.846776931 73.4708348366 -116.483977191 c 128,-1,47
 95.5153732057 -92.8352066087 95.5153732057 -92.8352066087 115 -62 c 0,48,49
 152 -3 152 -3 199 108 c 1,50,51
 198.585786438 108 198.585786438 108 198.292893219 108.292893219 c 128,-1,52
 198 108.585786438 198 108.585786438 198 109 c 128,-1,53
 198 109.414213562 198 109.414213562 198.292893219 109.707106781 c 128,-1,54
 198.585786438 110 198.585786438 110 199 110 c 128,-1,55
 199.414213562 110 199.414213562 110 199.707106781 109.707106781 c 128,-1,56
 200 109.414213562 200 109.414213562 200 109 c 128,-1,57
 200 108.585786438 200 108.585786438 199.707106781 108.292893219 c 128,-1,58
 199.414213562 108 199.414213562 108 199 108 c 1,59,60
 219 158 219 158 234 204 c 128,-1,61
 251 255 251 255 261 302 c 0,62,63
 267 330 267 330 272 360 c 0,64,65
 277 390 277 390 278 411 c 0,66,67
 280 441 280 441 268 532 c 0,68,69
 261.358045237 584.041203307 261.358045237 584.041203307 254.451501033 607.731011853 c 128,-1,70
 251.229865306 618.781391217 251.229865306 618.781391217 241.231485991 642.695340652 c 0
 231.233106675 666.609290086 231.233106675 666.609290086 228 680 c 0,71,72
 225 691 225 691 226 701 c 0,73,74
 226 709 226 709 229 725 c 0,75,76
 229 728 229 728 230 730 c 0,77,78
 231 733 231 733 232 736 c 0,79,80
 236 746 236 746 245 755 c 128,-1,81
 252 762 252 762 264 769 c 0,82,83
 273 774 273 774 281 776 c 0,84,85
 288 778 288 778 297 778 c 0,0,1
  Spiro
    297 778 o
    302 778 o
    308 777 o
    326 769 o
    338 755 o
    384 585 o
    393 432 o
    387 371 o
    374 304 o
    343 194 o
    299 71 o
    254 -29 o
    200 -124 o
    138 -207 o
    68 -271 o
    51 -279 o
    33 -282 o
    8 -276 o
    -9 -261 o
    -14 -246 o
    -13 -230 o
    1 -193 o
    24 -164 o
    115 -62 o
    199 108 v
    199 110 o
    199 108 v
    234 204 o
    261 302 o
    272 360 o
    278 411 o
    268 532 o
    228 680 o
    226 701 o
    229 725 o
    230 730 o
    232 736 o
    245 755 o
    264 769 o
    281 776 o
    0 0 z
  EndSpiro
EndSplineSet
Substitution2: "'rtla' Right to Left Alternates lookup 0 subtable" parenleft
EndChar

StartChar: asterisk
Encoding: 42 42 13
AltUni2: 002217.ffffffff.0 002731.ffffffff.0 00fe61.ffffffff.0 00ff0a.ffffffff.0 002217.ffffffff.0 002731.ffffffff.0 00fe61.ffffffff.0 00ff0a.ffffffff.0
Width: 503
GlyphClass: 1
Flags: W
LayerCount: 2
UndoRedoHistory
Layer: 1
Undoes
UndoOperation
Index: 0
Type: 1
WasModified: 0
WasOrder2: 1
Layer: 2
Width: 503
VWidth: 1000
LBearingChange: 0
UnicodeEnc: 0
InstructionsLength: 0
SplineSet
249 430 m 5,0,1
 242 420 242 420 222 394 c 132,-1,2
 202 368 202 368 190 352 c 4,3,4
 177 335 177 335 155.5 331.5 c 132,-1,5
 134 328 134 328 117 341 c 132,-1,6
 100 354 100 354 97 375.5 c 132,-1,7
 94 397 94 397 107 414 c 4,8,9
 118 429 118 429 138 455 c 5,10,11
 110 453 110 453 100 453 c 4,12,13
 78 452 78 452 62.5 467 c 132,-1,14
 47 482 47 482 47 504 c 4,15,16
 46 525 46 525 61 540.5 c 132,-1,17
 76 556 76 556 98 557 c 4,18,19
 106 557 106 557 134 559 c 5,20,21
 91 616 91 616 80 634 c 132,-1,22
 69 652 69 652 73.5 673 c 132,-1,23
 78 694 78 694 97 705 c 4,24,25
 115 717 115 717 136 712 c 132,-1,26
 157 707 157 707 168 689 c 4,27,28
 194 648 194 648 244 590 c 5,29,30
 245 591 245 591 251 598 c 132,-1,31
 257 605 257 605 260 609 c 4,32,33
 267 616 267 616 270 620 c 4,34,35
 273 623 273 623 301 656 c 4,36,37
 305 660 305 660 319.5 676.5 c 132,-1,38
 334 693 334 693 337 696 c 4,39,40
 351 712 351 712 372 713 c 132,-1,41
 393 714 393 714 410 700 c 4,42,43
 426 686 426 686 427.5 664.5 c 132,-1,44
 429 643 429 643 415 627 c 4,45,46
 412 624 412 624 397.5 607.5 c 132,-1,47
 383 591 383 591 379 587 c 4,48,49
 377 584 377 584 372 579 c 5,50,51
 427 572 427 572 463 554 c 4,52,53
 483 544 483 544 490 524 c 132,-1,54
 497 504 497 504 487 485 c 4,55,56
 477 465 477 465 457 458 c 132,-1,57
 437 451 437 451 417 461 c 4,58,59
 395 473 395 473 352 476 c 5,60,61
 393 438 393 438 417 426 c 4,62,63
 436 416 436 416 443 396 c 132,-1,64
 450 376 450 376 440 357 c 4,65,66
 430 337 430 337 410 330 c 132,-1,67
 390 323 390 323 370 333 c 4,68,69
 320 358 320 358 249 430 c 5,0,1
EndSplineSet
EndUndoOperation
EndUndoes
Redoes
EndRedoes
EndUndoRedoHistory
Fore
SplineSet
250.950195312 439.150390625 m 5,0,1
 244.650390625 430.150390625 244.650390625 430.150390625 226.650390625 406.75 c 132,-1,2
 208.650390625 383.349609375 208.650390625 383.349609375 197.849609375 368.950195312 c 4,3,4
 186.150390625 353.650390625 186.150390625 353.650390625 166.799804688 350.5 c 132,-1,5
 147.450195312 347.349609375 147.450195312 347.349609375 132.150390625 359.049804688 c 132,-1,6
 116.849609375 370.75 116.849609375 370.75 114.150390625 390.099609375 c 132,-1,7
 111.450195312 409.450195312 111.450195312 409.450195312 123.150390625 424.75 c 4,8,9
 133.049804688 438.25 133.049804688 438.25 151.049804688 461.650390625 c 5,10,11
 125.849609375 459.849609375 125.849609375 459.849609375 116.849609375 459.849609375 c 4,12,13
 97.0498046875 458.950195312 97.0498046875 458.950195312 83.099609375 472.450195312 c 132,-1,14
 69.150390625 485.950195312 69.150390625 485.950195312 69.150390625 505.75 c 4,15,16
 68.25 524.650390625 68.25 524.650390625 81.75 538.599609375 c 132,-1,17
 95.25 552.549804688 95.25 552.549804688 115.049804688 553.450195312 c 4,18,19
 122.25 553.450195312 122.25 553.450195312 147.450195312 555.25 c 5,20,21
 108.75 606.549804688 108.75 606.549804688 98.849609375 622.75 c 132,-1,22
 88.9501953125 638.950195312 88.9501953125 638.950195312 93 657.849609375 c 132,-1,23
 97.0498046875 676.75 97.0498046875 676.75 114.150390625 686.650390625 c 4,24,25
 130.349609375 697.450195312 130.349609375 697.450195312 149.25 692.950195312 c 132,-1,26
 168.150390625 688.450195312 168.150390625 688.450195312 178.049804688 672.25 c 4,27,28
 201.450195312 635.349609375 201.450195312 635.349609375 246.450195312 583.150390625 c 5,29,30
 247.349609375 584.049804688 247.349609375 584.049804688 252.75 590.349609375 c 132,-1,31
 258.150390625 596.650390625 258.150390625 596.650390625 260.849609375 600.25 c 4,32,33
 267.150390625 606.549804688 267.150390625 606.549804688 269.849609375 610.150390625 c 4,34,35
 272.549804688 612.849609375 272.549804688 612.849609375 297.75 642.549804688 c 4,36,37
 301.349609375 646.150390625 301.349609375 646.150390625 314.400390625 661 c 132,-1,38
 327.450195312 675.849609375 327.450195312 675.849609375 330.150390625 678.549804688 c 4,39,40
 342.75 692.950195312 342.75 692.950195312 361.650390625 693.849609375 c 132,-1,41
 380.549804688 694.75 380.549804688 694.75 395.849609375 682.150390625 c 4,42,43
 410.25 669.549804688 410.25 669.549804688 411.599609375 650.200195312 c 132,-1,44
 412.950195312 630.849609375 412.950195312 630.849609375 400.349609375 616.450195312 c 4,45,46
 397.650390625 613.75 397.650390625 613.75 384.599609375 598.900390625 c 132,-1,47
 371.549804688 584.049804688 371.549804688 584.049804688 367.950195312 580.450195312 c 4,48,49
 366.150390625 577.75 366.150390625 577.75 361.650390625 573.25 c 5,50,51
 411.150390625 566.950195312 411.150390625 566.950195312 443.549804688 550.75 c 4,52,53
 461.549804688 541.75 461.549804688 541.75 467.849609375 523.75 c 132,-1,54
 474.150390625 505.75 474.150390625 505.75 465.150390625 488.650390625 c 4,55,56
 456.150390625 470.650390625 456.150390625 470.650390625 438.150390625 464.349609375 c 132,-1,57
 420.150390625 458.049804688 420.150390625 458.049804688 402.150390625 467.049804688 c 4,58,59
 382.349609375 477.849609375 382.349609375 477.849609375 343.650390625 480.549804688 c 5,60,61
 380.549804688 446.349609375 380.549804688 446.349609375 402.150390625 435.549804688 c 4,62,63
 419.25 426.549804688 419.25 426.549804688 425.549804688 408.549804688 c 132,-1,64
 431.849609375 390.549804688 431.849609375 390.549804688 422.849609375 373.450195312 c 4,65,66
 413.849609375 355.450195312 413.849609375 355.450195312 395.849609375 349.150390625 c 132,-1,67
 377.849609375 342.849609375 377.849609375 342.849609375 359.849609375 351.849609375 c 4,68,69
 314.849609375 374.349609375 314.849609375 374.349609375 250.950195312 439.150390625 c 5,0,1
EndSplineSet
Validated: 33
EndChar

StartChar: plus
Encoding: 43 43 14
AltUni2: 00207a.ffffffff.0 00208a.ffffffff.0 00fb29.ffffffff.0 00fe62.ffffffff.0 00ff0b.ffffffff.0 00207a.ffffffff.0 00208a.ffffffff.0 00fb29.ffffffff.0 00fe62.ffffffff.0 00ff0b.ffffffff.0
Width: 592
GlyphClass: 1
Flags: W
LayerCount: 2
UndoRedoHistory
Layer: 1
Undoes
UndoOperation
Index: 0
Type: 3
WasModified: 0
WasOrder2: 1
Layer: 2
EndUndoOperation
EndUndoes
Redoes
EndRedoes
EndUndoRedoHistory
Fore
SplineSet
161 325 m 0,0,1
 191 321 191 321 239 324 c 0,2,3
 279 327 279 327 329 333 c 1,4,-1
 331 333 l 2,5,6
 332 334 332 334 335 334 c 1,7,-1
 337 343 l 2,8,9
 353 407 353 407 360 442 c 0,10,11
 369 487 369 487 374 534 c 0,12,13
 376 556 376 556 391.5 573 c 128,-1,14
 407 590 407 590 428 594 c 0,15,16
 449 597 449 597 462 584.5 c 128,-1,17
 475 572 475 572 473 550 c 0,18,19
 469 502 469 502 457 445 c 0,20,21
 449 408 449 408 434 344 c 1,22,23
 455 345 455 345 491 345 c 0,24,25
 583 340 583 340 630 300 c 0,26,27
 644 288 644 288 643.5 267 c 128,-1,28
 643 246 643 246 627.5 228 c 128,-1,29
 612 210 612 210 591.5 205.5 c 128,-1,30
 571 201 571 201 557 213 c 0,31,32
 527 238 527 238 463 241 c 0,33,34
 430 241 430 241 410 239 c 1,35,36
 404 205 404 205 401 186 c 0,37,38
 389 112 389 112 399 58 c 0,39,40
 401 38 401 38 388.5 18 c 128,-1,41
 376 -2 376 -2 356 -10 c 128,-1,42
 336 -18 336 -18 319 -9.5 c 128,-1,43
 302 -1 302 -1 299 19 c 0,44,45
 290 87 290 87 302 176 c 0,46,47
 305 203 305 203 312 229 c 1,48,49
 259 223 259 223 220 220 c 0,50,51
 165 217 165 217 127 221 c 0,52,53
 107 223 107 223 98.5 240 c 128,-1,54
 90 257 90 257 97 278 c 0,55,56
 104 300 104 300 123 313.5 c 128,-1,57
 142 327 142 327 161 325 c 0,0,1
EndSplineSet
EndChar

StartChar: comma
Encoding: 44 44 15
AltUni2: 00ff64.ffffffff.0 00fe51.ffffffff.0 00fe11.ffffffff.0 00066c.ffffffff.0 003001.ffffffff.0 00fe10.ffffffff.0 00fe50.ffffffff.0 00ff0c.ffffffff.0 00066c.ffffffff.0 003001.ffffffff.0 00fe10.ffffffff.0 00fe50.ffffffff.0 00ff0c.ffffffff.0
Width: 212
GlyphClass: 1
Flags: W
LayerCount: 2
UndoRedoHistory
Layer: 1
Undoes
UndoOperation
Index: 0
Type: 3
WasModified: 0
WasOrder2: 1
Layer: 2
EndUndoOperation
UndoOperation
Index: 1
Type: 3
WasModified: 1
WasOrder2: 1
Layer: 2
EndUndoOperation
EndUndoes
Redoes
EndRedoes
EndUndoRedoHistory
Fore
SplineSet
89 -59 m 1,0,1
 65 -84 65 -84 35 -109 c 0,2,3
 18 -123 18 -123 14 -145 c 0,4,5
 9 -165 9 -165 19 -180.5 c 128,-1,6
 29 -196 29 -196 48 -196 c 0,7,8
 66 -196 66 -196 85 -180 c 0,9,10
 127 -145 127 -145 153 -116 c 0,11,12
 190 -75 190 -75 201 -28 c 0,13,14
 209 5 209 5 200 40 c 128,-1,15
 191 75 191 75 163 120 c 0,16,17
 153 137 153 137 133 137 c 0,18,19
 114 137 114 137 97 123 c 0,20,21
 78 108 78 108 73.5 87.5 c 128,-1,22
 69 67 69 67 77 52 c 0,23,24
 101 13 101 13 105 -3.5 c 128,-1,25
 109 -20 109 -20 106.5 -30 c 128,-1,26
 104 -40 104 -40 89 -59 c 1,0,1
EndSplineSet
EndChar

StartChar: hyphen
Encoding: 45 45 16
AltUni2: 00fe58.ffffffff.0 00fe32.ffffffff.0 00fe31.ffffffff.0 002500.ffffffff.0 00208b.ffffffff.0 00207b.ffffffff.0 002011.ffffffff.0 002010.ffffffff.0 002012.ffffffff.0 002013.ffffffff.0 002014.ffffffff.0 002015.ffffffff.0 002212.ffffffff.0 00fe63.ffffffff.0 00ff0d.ffffffff.0 002010.ffffffff.0 002012.ffffffff.0 002013.ffffffff.0 002014.ffffffff.0 002015.ffffffff.0 002212.ffffffff.0 00fe63.ffffffff.0 00ff0d.ffffffff.0
Width: 411
GlyphClass: 1
Flags: W
LayerCount: 2
UndoRedoHistory
Layer: 1
Undoes
UndoOperation
Index: 0
Type: 3
WasModified: 0
WasOrder2: 1
Layer: 2
EndUndoOperation
UndoOperation
Index: 1
Type: 1
WasModified: 1
WasOrder2: 1
Layer: 2
Width: 414
VWidth: 1000
LBearingChange: 0
UnicodeEnc: 0
InstructionsLength: 0
EndUndoOperation
EndUndoes
Redoes
EndRedoes
EndUndoRedoHistory
Fore
SplineSet
163 344 m 0,0,1
 189 334 189 334 223 333 c 0,2,3
 240 332 240 332 289 332 c 0,4,5
 335 332 335 332 353 331 c 0,6,7
 398 326 398 326 418 320 c 0,8,9
 435 316 435 316 440 295.5 c 128,-1,10
 445 275 445 275 437 248 c 0,11,12
 428 223 428 223 410.5 208 c 128,-1,13
 393 193 393 193 377 198 c 0,14,15
 344 205 344 205 321 206 c 0,16,17
 306 207 306 207 261 207 c 0,18,19
 210 207 210 207 191 209 c 0,20,21
 150 213 150 213 118 221 c 0,22,23
 102 226 102 226 97.5 247.5 c 128,-1,24
 93 269 93 269 102 294 c 128,-1,25
 111 319 111 319 129 334 c 128,-1,26
 147 349 147 349 163 344 c 0,0,1
EndSplineSet
EndChar

StartChar: period
Encoding: 46 46 17
AltUni2: 002024.ffffffff.0 00fe52.ffffffff.0 00ff0e.ffffffff.0 002024.ffffffff.0 00fe52.ffffffff.0 00ff0e.ffffffff.0
Width: 182
GlyphClass: 1
Flags: W
LayerCount: 2
UndoRedoHistory
Layer: 1
Undoes
UndoOperation
Index: 0
Type: 3
WasModified: 0
WasOrder2: 1
Layer: 2
EndUndoOperation
UndoOperation
Index: 1
Type: 1
WasModified: 1
WasOrder2: 1
Layer: 2
Width: 198
VWidth: 1000
LBearingChange: 0
UnicodeEnc: 0
InstructionsLength: 0
SplineSet
146.695120263 -0.965372561093 m 4,0,1
 177.125 12.2209086584 177.125 12.2209086584 177.125 51.3806061649 c 4,2,3
 177.125 58.823748496 177.125 58.823748496 174.340243851 70.134932974 c 4,4,5
 171.865799073 80.1856878236 171.865799073 80.1856878236 164.98887569 93.6617697935 c 4,6,7
 152.206524914 120.1394964 152.206524914 120.1394964 134.278073066 131.792990102 c 4,8,9
 122.813654071 140.391304348 122.813654071 140.391304348 105.328413386 140.391304348 c 132,-1,10
 87.8431727004 140.391304348 87.8431727004 140.391304348 74.300089817 126.167988887 c 4,11,12
 64.4060646131 115.420946981 64.4060646131 115.420946981 61.8831715574 100.46275772 c 4,13,14
 61.021148982 94.3085691211 61.021148982 94.3085691211 61.0004579283 82.5232332352 c 4,15,16
 62.0558824336 72.8466493853 62.0558824336 72.8466493853 67.6947631642 46.4921498603 c 4,17,18
 70.6519098154 36.6438055017 70.6519098154 36.6438055017 70.9314027149 32.85603772 c 4,19,20
 71.380442593 31.5518529282 71.380442593 31.5518529282 73.6412417557 25.6617995582 c 4,21,22
 80.1140465058 2.19788233909 80.1140465058 2.19788233909 103.509260987 -4.31648040776 c 4,23,24
 117.39233782 -6.65159735984 117.39233782 -6.65159735984 122.345679012 -6.72222222222 c 4,25,26
 135.70477091 -6.72222222222 135.70477091 -6.72222222222 146.695120263 -0.965372561093 c 4,0,1
EndSplineSet
EndUndoOperation
EndUndoes
Redoes
EndRedoes
EndUndoRedoHistory
Fore
SplineSet
137 -15 m 4,0,1
 175 1 175 1 186 48 c 4,2,3
 188 57 188 57 188 71 c 4,4,5
 188 83 188 83 184 99 c 4,6,7
 177 131 177 131 160 145 c 4,8,9
 150 155 150 155 130.5 155 c 132,-1,10
 111 155 111 155 92 138 c 4,11,12
 78 125 78 125 71 107 c 4,13,14
 68 100 68 100 65 86 c 4,15,16
 63 74 63 74 62 42 c 4,17,18
 63 30 63 30 62 26 c 4,19,20
 62 24 62 24 63 17 c 4,21,22
 64 -11 64 -11 88 -19 c 4,23,24
 103 -22 103 -22 108 -21 c 4,25,26
 123 -22 123 -22 137 -15 c 4,0,1
EndSplineSet
EndChar

StartChar: slash
Encoding: 47 47 18
AltUni2: 002215.ffffffff.0 00ff0f.ffffffff.0 002215.ffffffff.0 00ff0f.ffffffff.0
Width: 628
GlyphClass: 1
Flags: W
LayerCount: 2
UndoRedoHistory
Layer: 1
Undoes
UndoOperation
Index: 0
Type: 3
WasModified: 0
WasOrder2: 1
Layer: 2
EndUndoOperation
UndoOperation
Index: 1
Type: 1
WasModified: 1
WasOrder2: 1
Layer: 2
Width: 586
VWidth: 1000
LBearingChange: 0
UnicodeEnc: 0
InstructionsLength: 0
EndUndoOperation
EndUndoes
Redoes
EndRedoes
EndUndoRedoHistory
Fore
SplineSet
15 -92 m 0,0,1
 9 -108 9 -108 20 -121 c 128,-1,2
 31 -134 31 -134 52.5 -134 c 128,-1,3
 74 -134 74 -134 92 -125 c 128,-1,4
 110 -116 110 -116 115 -102 c 2,5,-1
 115 -101 l 1,6,7
 192 100 192 100 351 308.5 c 128,-1,8
 510 517 510 517 722 699 c 0,9,10
 733 709 733 709 737 724.5 c 128,-1,11
 741 740 741 740 724.5 748.5 c 128,-1,12
 708 757 708 757 687 757 c 128,-1,13
 666 757 666 757 647 741 c 0,14,15
 426 550 426 550 260.5 333.5 c 128,-1,16
 95 117 95 117 15 -92 c 0,0,1
EndSplineSet
EndChar

StartChar: zero
Encoding: 48 48 19
AltUni2: 002070.ffffffff.0 002080.ffffffff.0 00ff10.ffffffff.0 002070.ffffffff.0 002080.ffffffff.0 00ff10.ffffffff.0
Width: 492
GlyphClass: 1
Flags: W
LayerCount: 2
UndoRedoHistory
Layer: 1
Undoes
UndoOperation
Index: 0
Type: 3
WasModified: 0
WasOrder2: 1
Layer: 2
EndUndoOperation
UndoOperation
Index: 1
Type: 1
WasModified: 1
WasOrder2: 1
Layer: 2
Width: 471
VWidth: 1000
LBearingChange: 0
UnicodeEnc: 0
InstructionsLength: 0
SplineSet
180 619 m 1,0,1
 153 569 153 569 130 479 c 0,2,3
 101 366 101 366 101 275 c 0,4,5
 99 168 99 168 139 112 c 0,6,7
 181 53 181 53 278 63 c 0,8,9
 339 69 339 69 373 169 c 0,10,11
 407 273 407 273 391 401 c 0,12,13
 375 533 375 533 321 598 c 0,14,15
 269 661 269 661 192 622 c 0,16,17
 186 619 186 619 180 619 c 1,0,1
151 671 m 1,18,19
 155 677 155 677 162 680 c 0,20,21
 285 742 285 742 371 640 c 0,22,23
 439 558 439 558 456 409 c 0,24,25
 472 262 472 262 434 149 c 0,26,27
 414 86 414 86 380 49 c 0,28,29
 340 4 340 4 285 -2 c 0,30,31
 151 -16 151 -16 86 74 c 0,32,33
 34 148 34 148 36 276 c 0,34,35
 36 374 36 374 67 496 c 0,36,37
 94 599 94 599 126 655 c 0,38,39
 136 669 136 669 151 671 c 1,18,19
EndSplineSet
EndUndoOperation
EndUndoes
Redoes
EndRedoes
EndUndoRedoHistory
Fore
SplineSet
397 607 m 0,0,1
 373 607 373 607 343 595 c 0,2,3
 338 592 338 592 332 591 c 0,4,5
 297 549 297 549 258 475 c 0,6,7
 205 364 205 364 185 275 c 2,8,-1
 185 275 l 2,9,10
 184 270 184 270 182 265 c 0,11,12
 161 176 161 176 185 129 c 0,13,14
 210 91 210 91 282 92 c 0,15,16
 295 92 295 92 309 93 c 0,17,18
 366 97 366 97 415 174 c 0,19,20
 451 242 451 242 470 322 c 0,21,22
 479 360 479 360 483 399 c 0,23,24
 497 520 497 520 457 579 c 0,25,26
 434 607 434 607 397 607 c 0,0,1
559 325 m 0,27,28
 537 229 537 229 492 149 c 0,29,30
 458 86 458 86 416 49 c 0,31,32
 364 4 364 4 298 -2 c 0,33,34
 278 -4 278 -4 259 -4 c 0,35,36
 137 -4 137 -4 99 74 c 0,37,38
 66 146 66 146 94 267 c 0,39,40
 95 272 95 272 97 276 c 0,41,42
 120 376 120 376 177 500 c 0,43,44
 225 599 225 599 270 654 c 1,45,46
 284 666 284 666 301 670 c 1,47,48
 308 676 308 676 317 680 c 0,49,50
 375 704 375 704 422 703 c 0,51,52
 501 703 501 703 545 640 c 0,53,54
 592 558 592 558 574 411 c 0,55,56
 569 366 569 366 559 325 c 0,27,28
EndSplineSet
EndChar

StartChar: one
Encoding: 49 49 20
AltUni2: 0000b9.ffffffff.0 002081.ffffffff.0 00ff11.ffffffff.0 0000b9.ffffffff.0 002081.ffffffff.0 00ff11.ffffffff.0
Width: 311
GlyphClass: 1
Flags: W
LayerCount: 2
UndoRedoHistory
Layer: 1
Undoes
UndoOperation
Index: 0
Type: 3
WasModified: 0
WasOrder2: 1
Layer: 2
EndUndoOperation
EndUndoes
Redoes
EndRedoes
EndUndoRedoHistory
Fore
SplineSet
300 527 m 1,0,1
 290 521 290 521 277.5 520.5 c 128,-1,2
 265 520 265 520 256 532 c 0,3,4
 241 549 241 549 249 583 c 0,5,6
 251 593 251 593 262 602 c 0,7,8
 291 633 291 633 328 669 c 1,9,10
 366 703 366 703 371 707 c 0,11,12
 374 709 374 709 391 721 c 0,13,14
 395 723 395 723 405 727 c 0,15,16
 415 730 415 730 426 730 c 0,17,18
 450 730 450 730 460 717 c 0,19,20
 467 709 467 709 464 699 c 0,21,22
 462 692 462 692 460 686 c 0,23,24
 458 679 458 679 455 673 c 0,25,26
 454 670 454 670 446 654 c 0,27,28
 419 589 419 589 415 584 c 0,29,30
 392 534 392 534 380 510 c 0,31,32
 286 320 286 320 226 66 c 1,33,34
 244 72 244 72 256.5 60.5 c 128,-1,35
 269 49 269 49 269 24 c 0,36,37
 269 15 269 15 266 3 c 0,38,39
 265 -3 265 -3 258 -10 c 0,40,41
 247 -22 247 -22 229 -26 c 0,42,43
 215 -31 215 -31 191 -36 c 2,44,45
 192 -21 192 -21 187 -37 c 2,46,47
 154 -45 154 -45 116 -65 c 0,48,49
 98 -71 98 -71 93 -71 c 0,50,51
 87 -71 87 -71 81 -70 c 0,52,53
 64 -66 64 -66 58 -55 c 0,54,55
 54 -47 54 -47 55 -39 c 0,56,57
 57 -31 57 -31 60 -22 c 0,58,59
 70 3 70 3 90 16 c 0,60,61
 116 31 116 31 131 37 c 1,62,63
 196 317 196 317 300 531 c 0,64,65
 300 529 300 529 300 527 c 1,0,1
EndSplineSet
EndChar

StartChar: two
Encoding: 50 50 21
AltUni2: 0000b2.ffffffff.0 002082.ffffffff.0 00ff12.ffffffff.0 0000b2.ffffffff.0 002082.ffffffff.0 00ff12.ffffffff.0
Width: 501
GlyphClass: 1
Flags: W
LayerCount: 2
UndoRedoHistory
Layer: 1
Undoes
UndoOperation
Index: 0
Type: 3
WasModified: 0
WasOrder2: 1
Layer: 2
EndUndoOperation
EndUndoes
Redoes
EndRedoes
EndUndoRedoHistory
Fore
SplineSet
205 466 m 0,0,1
 191 456 191 456 176 456 c 0,2,3
 153 456 153 456 144 474 c 0,4,5
 138 486 138 486 142 500 c 0,6,7
 143 503 143 503 144 507 c 0,8,9
 172 587 172 587 246 643 c 0,10,11
 313 692 313 692 396 701 c 0,12,13
 417 704 417 704 436 704 c 0,14,15
 497 704 497 704 538 676 c 0,16,17
 592 634 592 634 574 545 c 2,18,19
 572 537 572 537 574 545 c 1,20,21
 565 508 565 508 550 475 c 0,22,23
 526 421 526 421 471 351 c 1,24,25
 429 303 429 303 364 240 c 1,26,27
 365 244 365 244 363 239 c 2,28,29
 306 186 306 186 291 171 c 0,30,31
 255 137 255 137 234 111 c 0,32,33
 233 108 233 108 227 102.5 c 128,-1,34
 221 97 221 97 218.5 93.5 c 128,-1,35
 216 90 216 90 210 82 c 1,36,37
 217 85 217 85 219 85.5 c 128,-1,38
 221 86 221 86 240 94 c 1,39,-1
 241 94 l 2,40,41
 242 94 242 94 244.5 95.5 c 128,-1,42
 247 97 247 97 253 99 c 128,-1,43
 259 101 259 101 261 102 c 0,44,45
 307 121 307 121 341 131 c 0,46,47
 393 146 393 146 428 147 c 2,48,49
 430 155 430 155 429 147 c 2,50,51
 441 147 441 147 452 143 c 1,52,53
 459 148 459 148 462 136 c 2,54,55
 464 134 464 134 472 128 c 0,56,57
 475 128 475 128 477 128 c 0,58,59
 489 128 489 128 498 121 c 0,60,61
 512 111 512 111 512 92 c 0,62,63
 512 81 512 81 510 76 c 2,64,65
 512 86 512 86 510 75 c 1,66,67
 503 54 503 54 489 43 c 0,68,69
 472 27 472 27 450 27 c 2,70,-1
 449 27 l 1,71,72
 451 40 451 40 448 28 c 1,73,74
 444 42 444 42 434 30 c 1,75,76
 436 43 436 43 433 31 c 1,77,78
 423 37 423 37 402 54 c 1,79,80
 405 66 405 66 402 55 c 1,81,82
 404 67 404 67 401 55 c 1,83,84
 379 52 379 52 357 45.5 c 128,-1,85
 335 39 335 39 285 20 c 0,86,87
 285 20 285 20 237 1 c 0,88,89
 212 -9 212 -9 189 -15 c 0,90,91
 139 -26 139 -26 126 -26 c 0,92,93
 126 -26 126 -26 126 -26 c 0,94,95
 107 -26 107 -26 92 -20 c 0,96,97
 77 -14 77 -14 72 1 c 0,98,99
 70 6 70 6 71 21 c 0,100,101
 72 23 72 23 73 27 c 0,102,103
 76 43 76 43 95 70 c 0,104,105
 100 77 100 77 105 84 c 128,-1,106
 110 91 110 91 117 100 c 1,107,108
 119 110 119 110 118 101 c 1,109,110
 121 106 121 106 146 139 c 0,111,112
 150 144 150 144 154 150 c 1,113,114
 156 158 156 158 154 152 c 1,115,116
 157 161 157 161 158 154 c 1,117,118
 178 180 178 180 222 224 c 1,119,120
 259 262 259 262 295 294 c 2,121,122
 359 355 359 355 397 397 c 0,123,124
 443 450 443 450 466 496 c 0,125,126
 478 522 478 522 483 543 c 0,127,128
 491 581 491 581 465 600 c 0,129,130
 447 613 447 613 415 613 c 0,131,132
 403 613 403 613 390 611 c 0,133,134
 336 604 336 604 290 574 c 0,135,136
 243 541 243 541 228 496 c 0,137,138
 222 478 222 478 205 466 c 0,0,1
EndSplineSet
EndChar

StartChar: three
Encoding: 51 51 22
AltUni2: 0000b3.ffffffff.0 002083.ffffffff.0 00ff13.ffffffff.0 0000b3.ffffffff.0 002083.ffffffff.0 00ff13.ffffffff.0
Width: 493
GlyphClass: 1
Flags: W
LayerCount: 2
UndoRedoHistory
Layer: 1
Undoes
UndoOperation
Index: 0
Type: 3
WasModified: 0
WasOrder2: 1
Layer: 2
EndUndoOperation
EndUndoes
Redoes
EndRedoes
EndUndoRedoHistory
Fore
SplineSet
197 511 m 0,0,1
 192 510 192 510 188 510 c 0,2,3
 174 510 174 510 164.5 520 c 128,-1,4
 155 530 155 530 156 549 c 0,5,6
 156 553 156 553 157 557 c 0,7,8
 160 571 160 571 171 583 c 0,9,10
 276 692 276 692 377 697 c 0,11,12
 388 697 388 697 391 697 c 0,13,14
 480 697 480 697 516 622 c 0,15,16
 534 573 534 573 522 519 c 0,17,18
 515 490 515 490 500.5 462 c 128,-1,19
 486 434 486 434 468 413 c 1,20,21
 486 406 486 406 501 393 c 0,22,23
 531 369 531 369 541 329.5 c 128,-1,24
 551 290 551 290 541 248 c 0,25,26
 517 144 517 144 413 75 c 2,27,28
 416 86 416 86 413 75 c 2,29,30
 292 3 292 3 106 3 c 0,31,32
 88 3 88 3 78.5 17 c 128,-1,33
 69 31 69 31 73.5 50.5 c 128,-1,34
 78 70 78 70 94 84 c 128,-1,35
 110 98 110 98 128 98 c 0,36,37
 284 98 284 98 373 151 c 0,38,39
 439 192 439 192 452 247 c 2,40,41
 454 254 454 254 453 247 c 2,42,43
 454 249 454 249 454 251 c 0,44,45
 464 296 464 296 432 320 c 0,46,47
 412 335 412 335 383 335 c 0,48,49
 364 335 364 335 341 329 c 0,50,51
 335 327 335 327 325 323 c 0,52,53
 312 318 312 318 295 318 c 0,54,55
 263 318 263 318 257 346 c 0,56,57
 255 355 255 355 257 363.5 c 128,-1,58
 259 372 259 372 265 381 c 0,59,60
 277 399 277 399 296 405 c 128,-1,61
 315 411 315 411 323 414 c 0,62,63
 385 440 385 440 413 488 c 0,64,65
 422 504 422 504 425 519 c 0,66,67
 432 548 432 548 420 574 c 0,68,69
 404 607 404 607 366 608 c 0,70,71
 364 608 364 608 362 608 c 0,72,73
 305 604 305 604 229 529 c 0,74,75
 216 514 216 514 197 511 c 0,0,1
EndSplineSet
EndChar

StartChar: four
Encoding: 52 52 23
AltUni2: 002074.ffffffff.0 002084.ffffffff.0 00ff14.ffffffff.0 002074.ffffffff.0 002084.ffffffff.0 00ff14.ffffffff.0
Width: 532
GlyphClass: 1
Flags: W
LayerCount: 2
UndoRedoHistory
Layer: 1
Undoes
UndoOperation
Index: 0
Type: 3
WasModified: 0
WasOrder2: 1
Layer: 2
EndUndoOperation
UndoOperation
Index: 1
Type: 1
WasModified: 1
WasOrder2: 1
Layer: 2
Width: 514
VWidth: 1000
LBearingChange: 0
UnicodeEnc: 0
InstructionsLength: 0
SplineSet
149 697 m 0,0,1
 148 686 148 686 141 615 c 0,2,3
 141 610 141 610 140 602 c 128,-1,4
 139 594 139 594 138 588 c 2,5,-1
 137 582 l 2,6,7
 137 580 137 580 136.5 575 c 128,-1,8
 136 570 136 570 136 567 c 0,9,10
 135 554 135 554 132 494 c 0,11,12
 128 386 128 386 149 328 c 0,13,14
 165 283 165 283 197 268 c 0,15,16
 226 254 226 254 274 260 c 0,17,18
 278 261 278 261 284.5 262 c 128,-1,19
 291 263 291 263 296.5 264 c 128,-1,20
 302 265 302 265 307 266 c 0,21,22
 308 270 308 270 308.5 279.5 c 128,-1,23
 309 289 309 289 309 294 c 0,24,25
 314 381 314 381 315 400 c 0,26,27
 318 448 318 448 316 482 c 0,28,29
 316 496 316 496 325.5 505.5 c 128,-1,30
 335 515 335 515 348 516 c 0,31,32
 362 517 362 517 371.5 507.5 c 128,-1,33
 381 498 381 498 381 485 c 0,34,35
 383 447 383 447 380 397 c 0,36,37
 379 375 379 375 374 290 c 0,38,39
 374 289 374 289 373.5 286.5 c 128,-1,40
 373 284 373 284 373 283 c 1,41,42
 374 283 374 283 376.5 283.5 c 128,-1,43
 379 284 379 284 380 284 c 0,44,45
 386 287 386 287 393 288 c 0,46,47
 442 303 442 303 463 307 c 0,48,49
 476 311 476 311 487.5 304 c 128,-1,50
 499 297 499 297 502 284 c 0,51,52
 506 271 506 271 499 259.5 c 128,-1,53
 492 248 492 248 478 244 c 0,54,55
 467 242 467 242 411 226 c 0,56,57
 408 225 408 225 403.5 223.5 c 128,-1,58
 399 222 399 222 398 222 c 0,59,60
 396 221 396 221 385 218 c 128,-1,61
 374 215 374 215 369 214 c 1,62,63
 362 77 362 77 371 22 c 0,64,65
 374 9 374 9 366.5 -2.5 c 128,-1,66
 359 -14 359 -14 346 -16 c 0,67,68
 332 -18 332 -18 321 -10.5 c 128,-1,69
 310 -3 310 -3 308 10 c 0,70,71
 301 42 301 42 301 120 c 0,72,73
 301 139 301 139 303 199 c 1,74,-1
 282 196 l 2,75,76
 216 187 216 187 169 209 c 0,77,78
 113 236 113 236 88 306 c 128,-1,79
 63 376 63 376 67 497 c 0,80,81
 70 554 70 554 71 572 c 0,82,83
 71 578 71 578 73 590 c 0,84,85
 73 602 73 602 77 622 c 0,86,87
 78 627 78 627 80.5 654.5 c 128,-1,88
 83 682 83 682 85 703 c 0,89,90
 86 716 86 716 96 725 c 128,-1,91
 106 734 106 734 120 732 c 0,92,93
 133 731 133 731 142 721 c 128,-1,94
 151 711 151 711 149 697 c 0,0,1
EndSplineSet
EndUndoOperation
EndUndoes
Redoes
EndRedoes
EndUndoRedoHistory
Fore
SplineSet
499 396 m 0,0,1
 493 376 493 376 472 303 c 1,2,3
 541 324 541 324 554 323 c 0,4,5
 554 323 554 323 554 323 c 0,6,7
 565 323 565 323 574 317 c 0,8,9
 587 307 587 307 587 288 c 0,10,11
 587 281 587 281 586 275 c 0,12,13
 583 263 583 263 575 253 c 0,14,15
 562 237 562 237 542 232 c 1,16,17
 531 230 531 230 476 215 c 0,18,19
 466 212 466 212 464.5 211.5 c 128,-1,20
 463 211 463 211 462 210 c 0,21,22
 460 209 460 209 443 206 c 1,23,24
 429 156 429 156 418.5 110.5 c 128,-1,25
 408 65 408 65 406 37 c 0,26,27
 406 32 406 32 405 27 c 0,28,29
 402 14 402 14 391 3 c 0,30,31
 372 -17 372 -17 346 -16 c 0,32,33
 330 -16 330 -16 319 -8 c 0,34,35
 304 3 304 3 305 21 c 0,36,37
 305 53 305 53 323 129 c 0,38,39
 327 145 327 145 338 189 c 1,40,41
 313 186 313 186 293 185 c 0,42,43
 244 185 244 185 210 202 c 0,44,45
 159 231 159 231 151 303 c 0,46,47
 144 363 144 363 167 460 c 0,48,49
 171 475 171 475 175 492 c 2,50,51
 184 521 184 521 195 564 c 2,52,53
 197 571 197 571 201 582 c 0,54,55
 204 595 204 595 212 614 c 0,56,57
 214 618 214 618 225.5 654 c 128,-1,58
 237 690 237 690 237 691 c 0,59,60
 243 709 243 709 258 720 c 0,61,62
 273 732 273 732 289 732 c 0,63,64
 311 732 311 732 320 717 c 0,65,66
 328 705 328 705 324 688 c 0,67,68
 324 686 324 686 297 603 c 0,69,70
 295 593 295 593 286 571 c 0,71,72
 285 569 285 569 284 564 c 0,73,74
 280 552 280 552 262 486 c 0,75,76
 256 462 256 462 254 455 c 0,77,78
 236 376 236 376 241 331 c 0,79,80
 246 293 246 293 271 281 c 0,81,82
 287 273 287 273 315 273 c 0,83,84
 327 273 327 273 341 275 c 0,85,86
 346 276 346 276 352.5 277 c 128,-1,87
 359 278 359 278 365 279 c 1,88,89
 368 288 368 288 369 294 c 2,90,-1
 369 295 l 1,91,-1
 400 401 l 2,92,93
 408 429 408 429 412.5 448.5 c 128,-1,94
 417 468 417 468 420 482 c 0,95,96
 425 503 425 503 442 516 c 0,97,98
 462 531 462 531 482.5 531 c 128,-1,99
 503 531 503 531 514 517.5 c 128,-1,100
 525 504 525 504 521 485 c 0,101,102
 514 447 514 447 499 396 c 0,0,1
EndSplineSet
EndChar

StartChar: five
Encoding: 53 53 24
AltUni2: 002075.ffffffff.0 002085.ffffffff.0 00ff15.ffffffff.0 002075.ffffffff.0 002085.ffffffff.0 00ff15.ffffffff.0
Width: 472
GlyphClass: 1
Flags: W
LayerCount: 2
UndoRedoHistory
Layer: 1
Undoes
UndoOperation
Index: 0
Type: 3
WasModified: 0
WasOrder2: 1
Layer: 2
EndUndoOperation
UndoOperation
Index: 1
Type: 1
WasModified: 1
WasOrder2: 1
Layer: 2
Width: 449
VWidth: 1000
LBearingChange: 0
UnicodeEnc: 0
InstructionsLength: 0
SplineSet
157 669 m 0,0,1
 220 678 220 678 398 720 c 0,2,3
 411 723 411 723 422.5 716 c 128,-1,4
 434 709 434 709 437 695 c 0,5,6
 440 682 440 682 433 670.5 c 128,-1,7
 426 659 426 659 413 656 c 0,8,9
 235 616 235 616 181 607 c 1,10,11
 138 519 138 519 125 472 c 0,12,13
 114 431 114 431 120 416 c 0,14,15
 122 412 122 412 134 409 c 0,16,17
 147 407 147 407 189 408 c 0,18,19
 196 408 196 408 205 408.5 c 128,-1,20
 214 409 214 409 217 409 c 0,21,22
 244 409 244 409 265 406 c 0,23,24
 293 402 293 402 315 390 c 0,25,26
 367 361 367 361 379 288 c 0,27,28
 391 218 391 218 356 145 c 0,29,30
 324 80 324 80 269 38 c 0,31,32
 209 -7 209 -7 151 1 c 0,33,34
 82 9 82 9 52 85 c 0,35,36
 47 98 47 98 52 110.5 c 128,-1,37
 57 123 57 123 70 127 c 0,38,39
 82 132 82 132 94.5 127 c 128,-1,40
 107 122 107 122 112 109 c 0,41,42
 127 70 127 70 159 65 c 0,43,44
 190 62 190 62 230 91 c 0,45,46
 273 122 273 122 297 173 c 0,47,48
 323 226 323 226 315 278 c 0,49,50
 308 320 308 320 283 333 c 0,51,52
 264 344 264 344 218 344 c 0,53,54
 215 344 215 344 206.5 343.5 c 128,-1,55
 198 343 198 343 191 343 c 0,56,57
 173 342 173 342 156 342 c 0,58,59
 137 342 137 342 122 345 c 0,60,61
 76 354 76 354 60 391 c 0,62,63
 45 426 45 426 61.5 486 c 128,-1,64
 78 546 78 546 128 646 c 0,65,66
 130 650 130 650 133 654 c 0,67,68
 141 668 141 668 157 669 c 0,0,1
EndSplineSet
EndUndoOperation
EndUndoes
Redoes
EndRedoes
EndUndoRedoHistory
Fore
SplineSet
291 423 m 2,0,-1
 292 423 l 1,1,-1
 322 424 l 1,2,3
 353 424 353 424 381 420.5 c 128,-1,4
 409 417 409 417 432 404 c 0,5,6
 481 373 481 373 475 295 c 0,7,8
 474 277 474 277 470 258 c 0,9,10
 457 204 457 204 419 148 c 0,11,12
 373 82 373 82 300 40 c 0,13,14
 231 0 231 0 172 -0 c 0,15,16
 83 0 83 0 69 90 c 0,17,18
 68 99 68 99 70 108 c 128,-1,19
 72 117 72 117 77 125 c 0,20,21
 88 143 88 143 108 149 c 0,22,23
 126 156 126 156 141 149 c 128,-1,24
 156 142 156 142 159 124 c 0,25,26
 163 95 163 95 185 91 c 0,27,28
 187 91 187 91 189 91 c 0,29,30
 215 91 215 91 255 113 c 0,31,32
 304 140 304 140 340 186 c 0,33,34
 368 222 368 222 376 257 c 0,35,36
 378 268 378 268 379 278 c 0,37,38
 380 311 380 311 363 320 c 0,39,40
 347 329 347 329 302 329 c 0,41,42
 299 329 299 329 289.5 328.5 c 128,-1,43
 280 328 280 328 272 328 c 0,44,45
 221 325 221 325 200 330 c 0,46,47
 152 340 152 340 144 383 c 0,48,49
 141 402 141 402 146.5 427 c 128,-1,50
 152 452 152 452 168 484 c 0,51,52
 197 543 197 543 267 641 c 0,53,54
 270 646 270 646 275 650 c 0,55,56
 291 669 291 669 312 671 c 0,57,58
 382 680 382 680 574 720 c 0,59,60
 579 721 579 721 585 721 c 0,61,62
 597 721 597 721 606 714 c 0,63,64
 620 704 620 704 619 685 c 0,65,66
 619 680 619 680 618.5 677.5 c 128,-1,67
 618 675 618 675 618 674 c 0,68,69
 615 662 615 662 606 651 c 0,70,71
 593 635 593 635 574 631 c 0,72,73
 397 595 397 595 332 585 c 1,74,75
 246 471 246 471 236 429 c 0,76,77
 235 426 235 426 235 425 c 0,78,79
 236 424 236 424 238 424 c 0,80,81
 253 422 253 422 291 423 c 2,0,-1
EndSplineSet
EndChar

StartChar: six
Encoding: 54 54 25
AltUni2: 002076.ffffffff.0 002086.ffffffff.0 00ff16.ffffffff.0 002076.ffffffff.0 002086.ffffffff.0 00ff16.ffffffff.0
Width: 465
GlyphClass: 1
Flags: W
LayerCount: 2
UndoRedoHistory
Layer: 1
Undoes
UndoOperation
Index: 0
Type: 3
WasModified: 0
WasOrder2: 1
Layer: 2
EndUndoOperation
UndoOperation
Index: 1
Type: 1
WasModified: 1
WasOrder2: 1
Layer: 2
Width: 442
VWidth: 1000
LBearingChange: 0
UnicodeEnc: 0
InstructionsLength: 0
SplineSet
114 257 m 1,0,1
 98 173 98 173 116 123 c 0,2,3
 142 51 142 51 241 44 c 0,4,5
 307 40 307 40 341 89 c 0,6,7
 373 137 373 137 365 207 c 128,-1,8
 357 277 357 277 316 313 c 0,9,10
 274 349 274 349 210 324 c 0,11,12
 188 315 188 315 168 300.5 c 128,-1,13
 148 286 148 286 143 275 c 0,14,15
 135 257 135 257 114 257 c 1,0,1
320 668 m 0,16,17
 275 624 275 624 220 526 c 0,18,19
 175 446 175 446 144 363 c 1,20,21
 158 372 158 372 186 385 c 0,22,23
 287 423 287 423 358 362 c 0,24,25
 419 310 419 310 429 215 c 0,26,27
 440 121 440 121 395 53 c 0,28,29
 342 -27 342 -27 237 -21 c 0,30,31
 94 -10 94 -10 55 102 c 0,32,33
 25 188 25 188 64 328 c 0,34,35
 94 433 94 433 163 558 c 0,36,37
 228 669 228 669 275 715 c 0,38,39
 284 724 284 724 297.5 724 c 128,-1,40
 311 724 311 724 321 714 c 0,41,42
 330 704 330 704 330 691 c 128,-1,43
 330 678 330 678 320 668 c 0,16,17
EndSplineSet
EndUndoOperation
EndUndoes
Redoes
EndRedoes
EndUndoRedoHistory
Fore
SplineSet
392 302 m 0,0,1
 374 320 374 320 345 319 c 0,2,3
 324 319 324 319 298 310.5 c 128,-1,4
 272 302 272 302 250 289 c 128,-1,5
 228 276 228 276 222 269 c 0,6,7
 208 249 208 249 187 244 c 1,8,9
 172 200 172 200 169 185 c 0,10,11
 161 152 161 152 164 128 c 0,12,13
 171 65 171 65 267 59 c 0,14,15
 272 59 272 59 276 59 c 0,16,17
 331 59 331 59 369 97 c 0,18,19
 398 132 398 132 410 180 c 0,20,21
 413 192 413 192 414 205 c 0,22,23
 422 270 422 270 392 302 c 0,0,1
278 397 m 0,24,25
 326 412 326 412 367 412 c 0,26,27
 433 412 433 412 469 372 c 0,28,29
 518 318 518 318 505 222 c 0,30,31
 503 203 503 203 499 186 c 0,32,33
 482 113 482 113 433 57 c 0,34,35
 360 -27 360 -27 242 -21 c 1,36,37
 245 -6 245 -6 241 -21 c 1,38,39
 88 -10 88 -10 76 107 c 0,40,41
 72 145 72 145 83 193 c 0,42,43
 97 254 97 254 136 333 c 0,44,45
 188 435 188 435 281 557 c 1,46,47
 279 549 279 549 282 557 c 1,48,49
 379 665 379 665 441 711 c 0,50,51
 459 724 459 724 480.5 724 c 128,-1,52
 502 724 502 724 513 709 c 1,53,54
 522 695 522 695 518 677 c 128,-1,55
 514 659 514 659 497 645 c 0,56,57
 441 604 441 604 361 512 c 0,58,59
 310 454 310 454 269 393 c 1,60,61
 276 396 276 396 278 397 c 0,24,25
EndSplineSet
EndChar

StartChar: seven
Encoding: 55 55 26
AltUni2: 002077.ffffffff.0 002087.ffffffff.0 00ff17.ffffffff.0 002077.ffffffff.0 002087.ffffffff.0 00ff17.ffffffff.0
Width: 500
GlyphClass: 1
Flags: W
LayerCount: 2
UndoRedoHistory
Layer: 1
Undoes
UndoOperation
Index: 0
Type: 3
WasModified: 0
WasOrder2: 1
Layer: 2
EndUndoOperation
UndoOperation
Index: 1
Type: 1
WasModified: 1
WasOrder2: 1
Layer: 2
Width: 479
VWidth: 1000
LBearingChange: 0
UnicodeEnc: 0
InstructionsLength: 0
SplineSet
61 664 m 0,0,1
 91 672 91 672 112 678 c 0,2,3
 113 678 113 678 125 681 c 0,4,5
 166 693 166 693 210 704 c 0,6,7
 261 715 261 715 301 719 c 0,8,9
 302 719 302 719 305 719.5 c 128,-1,10
 308 720 308 720 310 720 c 0,11,12
 317 720 317 720 321 722 c 0,13,14
 348 725 348 725 365 725 c 0,15,16
 393 725 393 725 417 716 c 0,17,18
 447 704 447 704 464 675 c 0,19,20
 468 667 468 667 468 656 c 0,21,22
 468 648 468 648 467 644 c 0,23,24
 466 635 466 635 461 621 c 0,25,26
 454 603 454 603 437 563 c 0,27,28
 434 556 434 556 401.5 485.5 c 128,-1,29
 369 415 369 415 361 396 c 1,30,-1
 360 395 l 2,31,32
 360 394 360 394 360 393 c 1,33,-1
 363 393 l 2,34,35
 388 395 388 395 413 398 c 0,36,37
 426 401 426 401 437 393.5 c 128,-1,38
 448 386 448 386 451 372 c 0,39,40
 453 358 453 358 445 347 c 128,-1,41
 437 336 437 336 424 334 c 0,42,43
 419 334 419 334 401.5 332 c 128,-1,44
 384 330 384 330 369 328 c 0,45,46
 357 328 357 328 333 325 c 2,47,-1
 331 325 l 1,48,49
 325 311 325 311 323 304 c 0,50,51
 287 217 287 217 270 146 c 0,52,53
 253 70 253 70 263 35 c 0,54,55
 267 22 267 22 260 10.5 c 128,-1,56
 253 -1 253 -1 240 -5 c 128,-1,57
 227 -9 227 -9 215.5 -2 c 128,-1,58
 204 5 204 5 200 18 c 0,59,60
 186 71 186 71 207 161 c 0,61,62
 224 228 224 228 258 317 c 1,63,-1
 216 310 l 2,64,65
 202 308 202 308 191 315.5 c 128,-1,66
 180 323 180 323 178 336 c 0,67,68
 175 349 175 349 182.5 360.5 c 128,-1,69
 190 372 190 372 203 374 c 0,70,71
 245 381 245 381 286 385 c 1,72,73
 296 409 296 409 302 422 c 0,74,75
 320 464 320 464 378 589 c 0,76,77
 394 627 394 627 400 643 c 0,78,79
 400 646 400 646 402 650 c 1,80,81
 392 660 392 660 365 660 c 0,82,83
 352 660 352 660 329 657 c 0,84,85
 328 657 328 657 323.5 656.5 c 128,-1,86
 319 656 319 656 318 656 c 0,87,88
 314 655 314 655 308 655 c 0,89,90
 271 651 271 651 225 640 c 0,91,92
 195 633 195 633 142 618 c 0,93,94
 138 617 138 617 134 616 c 128,-1,95
 130 615 130 615 129 615 c 0,96,97
 122 613 122 613 77 601 c 0,98,99
 64 597 64 597 52.5 604 c 128,-1,100
 41 611 41 611 38 624 c 0,101,102
 34 637 34 637 41 648.5 c 128,-1,103
 48 660 48 660 61 664 c 0,0,1
EndSplineSet
EndUndoOperation
EndUndoes
Redoes
EndRedoes
EndUndoRedoHistory
Fore
SplineSet
478 719 m 1,0,-1
 479 719 l 1,1,2
 488 720 488 720 490 720 c 0,3,4
 493 720 493 720 496 722 c 1,5,6
 529 725 529 725 548 725 c 0,7,8
 621 725 621 725 639 669 c 0,9,10
 642 658 642 658 640 647 c 0,11,12
 635 626 635 626 623.5 606.5 c 128,-1,13
 612 587 612 587 597.5 564.5 c 128,-1,14
 583 542 583 542 545 486 c 128,-1,15
 507 430 507 430 492 406 c 1,16,17
 505 407 505 407 517 409 c 0,18,19
 522 410 522 410 527 410 c 0,20,21
 540 410 540 410 548 403 c 0,22,23
 561 392 561 392 560 372 c 0,24,25
 560 368 560 368 559 365 c 0,26,27
 556 350 556 350 544 337 c 0,28,29
 530 321 530 321 510 319 c 1,30,-1
 509 319 l 2,31,32
 501 319 501 319 457 313 c 1,33,-1
 457 313 l 2,34,35
 448 313 448 313 428 311 c 1,36,37
 424 305 424 305 420 299 c 1,38,39
 364 217 364 217 331 150 c 0,40,41
 310 106 310 106 303 78 c 0,42,43
 299 62 299 62 300 53.5 c 128,-1,44
 301 45 301 45 299 36 c 128,-1,45
 297 27 297 27 287 17 c 0,46,47
 273 1 273 1 252 -4 c 0,48,49
 244 -6 244 -6 234.5 -6 c 128,-1,50
 225 -6 225 -6 215 0 c 0,51,52
 199 10 199 10 198 28 c 0,53,54
 197 50 197 50 203 78 c 0,55,56
 212 118 212 118 238 171 c 1,57,58
 267 227 267 227 312 299 c 1,59,60
 303 299 303 299 294 296 c 2,61,62
 290 295 290 295 286 296 c 0,63,64
 270 296 270 296 258 304 c 0,65,66
 243 314 243 314 245 332 c 0,67,68
 245 337 245 337 246 342 c 0,69,70
 249 355 249 355 259 366 c 0,71,72
 275 382 275 382 296 385 c 0,73,74
 337 391 337 391 378 395 c 1,75,76
 414 446 414 446 514 582 c 0,77,78
 533 612 533 612 543 628 c 1,79,80
 536 630 536 630 526 630 c 0,81,82
 514 630 514 630 489 627 c 1,83,-1
 488 627 l 2,84,85
 487 627 487 627 483 626.5 c 128,-1,86
 479 626 479 626 475.5 625.5 c 128,-1,87
 472 625 472 625 466 625 c 0,88,89
 427 621 427 621 386 612 c 128,-1,90
 345 603 345 603 286 589 c 2,91,92
 282 574 282 574 285 588 c 2,93,94
 265 583 265 583 221 572 c 0,95,96
 202 566 202 566 188.5 576 c 128,-1,97
 175 586 175 586 175 605 c 0,98,99
 175 612 175 612 176 618 c 0,100,101
 179 630 179 630 187 641 c 0,102,103
 200 658 200 658 220 663 c 0,104,105
 250 671 250 671 272 678 c 1,106,-1
 273 678 l 2,107,108
 276 679 276 679 283 680 c 0,109,110
 327 692 327 692 376 704 c 1,111,112
 433 715 433 715 478 719 c 1,0,-1
EndSplineSet
EndChar

StartChar: eight
Encoding: 56 56 27
AltUni2: 002078.ffffffff.0 002088.ffffffff.0 00ff18.ffffffff.0 002078.ffffffff.0 002088.ffffffff.0 00ff18.ffffffff.0
Width: 461
GlyphClass: 1
Flags: W
LayerCount: 2
UndoRedoHistory
Layer: 1
Undoes
UndoOperation
Index: 0
Type: 3
WasModified: 0
WasOrder2: 1
Layer: 2
EndUndoOperation
UndoOperation
Index: 1
Type: 1
WasModified: 1
WasOrder2: 1
Layer: 2
Width: 437
VWidth: 1000
LBearingChange: 0
UnicodeEnc: 0
InstructionsLength: 0
SplineSet
176 -6 m 1,0,-1
 174 -6 l 2,1,2
 173 -5 173 -5 172 -5 c 0,3,4
 77 24 77 24 41 69 c 0,5,6
 1 115 1 115 18 177 c 0,7,8
 31 224 31 224 76 278 c 0,9,10
 101 308 101 308 127 334 c 1,11,12
 96 360 96 360 79 388 c 0,13,14
 32 470 32 470 105 577 c 0,15,16
 138 627 138 627 169 656 c 0,17,18
 220 702 220 702 277 706 c 0,19,20
 310 709 310 709 336 693 c 0,21,22
 349 685 349 685 373 660 c 0,23,24
 406 624 406 624 400 577 c 0,25,26
 397 543 397 543 368 497 c 0,27,28
 341 459 341 459 305 421 c 0,29,30
 296 411 296 411 230 345 c 2,31,-1
 229 344 l 1,32,33
 235 340 235 340 241 337 c 0,34,35
 243 336 243 336 251 331 c 128,-1,36
 259 326 259 326 260 326 c 0,37,38
 285 311 285 311 317 291 c 0,39,40
 352 266 352 266 370 248 c 0,41,42
 427 193 427 193 427 121 c 0,43,44
 427 77 427 77 398 45 c 0,45,46
 372 17 372 17 334 2 c 0,47,48
 259 -27 259 -27 188 -11 c 0,49,50
 184 -10 184 -10 176 -6 c 1,0,-1
173 381 m 1,51,-1
 184 392 l 2,52,53
 225 432 225 432 258 465 c 0,54,55
 295 505 295 505 313 533 c 0,56,57
 333 561 333 561 336 584 c 0,58,59
 338 602 338 602 325 616 c 0,60,61
 309 634 309 634 301.5 638.5 c 128,-1,62
 294 643 294 643 282 642 c 0,63,64
 247 639 247 639 213 608 c 0,65,66
 193 590 193 590 158 540 c 0,67,68
 131 498 131 498 126 466 c 0,69,70
 123 442 123 442 135 421 c 0,71,72
 149 398 149 398 173 381 c 1,51,-1
203 52 m 0,73,74
 254 40 254 40 309 62 c 0,75,76
 362 83 362 83 362 121 c 0,77,78
 362 165 362 165 324 202 c 0,79,80
 300 227 300 227 227 270 c 0,81,82
 226 270 226 270 218 275 c 128,-1,83
 210 280 210 280 208 281 c 0,84,85
 204 283 204 283 195 288.5 c 128,-1,86
 186 294 186 294 181 297 c 1,87,88
 148 264 148 264 127 237 c 0,89,90
 88 191 88 191 81 160 c 0,91,92
 72 131 72 131 90 111 c 0,93,94
 116 81 116 81 191 57 c 0,95,96
 197 55 197 55 201 53 c 0,97,98
 201 52 201 52 203 52 c 0,73,74
EndSplineSet
EndUndoOperation
EndUndoes
Redoes
EndRedoes
EndUndoRedoHistory
Fore
SplineSet
429 408 m 0,0,1
 418 399 418 399 348 347 c 1,2,3
 353 344 353 344 357 341 c 1,4,-1
 358 341 l 1,5,6
 408 310 408 310 415 305 c 0,7,8
 443 280 443 280 456 262 c 0,9,10
 500 205 500 205 483 130 c 0,11,12
 472 82 472 82 433 47 c 0,13,14
 400 18 400 18 358 2 c 0,15,16
 302 -17 302 -17 249 -17 c 0,17,18
 218 -17 218 -17 192 -11 c 0,19,20
 187 -10 187 -10 180 -6 c 1,21,-1
 175 -6 l 1,22,23
 177 10 177 10 173 -4 c 1,24,25
 86 24 86 24 58 71 c 0,26,27
 37 106 37 106 46 150 c 0,28,29
 61 214 61 214 141 290 c 0,30,31
 165 313 165 313 189 334 c 1,32,33
 171 357 171 357 163 379 c 0,34,35
 152 413 152 413 160 452 c 0,36,37
 173 510 173 510 233 576 c 0,38,39
 278 627 278 627 318 654 c 0,40,41
 394 706 394 706 467 706 c 0,42,43
 500 706 500 706 521 691 c 0,44,45
 534 682 534 682 550 657 c 0,46,47
 572 624 572 624 563 581 c 0,48,49
 561 574 561 574 558 566 c 0,50,51
 547 530 547 530 507 483 c 1,52,53
 472 445 472 445 429 408 c 0,0,1
469 591 m 0,54,55
 457 607 457 607 452 611 c 0,56,57
 450 613 450 613 446 612 c 0,58,59
 412 612 412 612 370 582 c 0,60,61
 346 565 346 565 299 517 c 0,62,63
 256 470 256 470 249 442 c 0,64,65
 242 413 242 413 270 386 c 1,66,67
 315 408 315 408 368 460 c 1,68,69
 415 499 415 499 440 526 c 1,70,71
 465 551 465 551 472 571 c 0,72,73
 473 572 473 572 473 574 c 0,74,75
 475 583 475 583 469 591 c 0,54,55
139 156 m 0,76,77
 135 148 135 148 133 142 c 0,78,79
 130 131 130 131 136 121 c 0,80,81
 152 95 152 95 223 71 c 0,82,83
 230 69 230 69 234 66 c 0,84,85
 258 62 258 62 268 63 c 0,86,87
 301 63 301 63 339 76 c 0,88,89
 386 93 386 93 392 121 c 0,90,91
 401 159 401 159 376 191 c 1,92,93
 357 214 357 214 292 256 c 0,94,95
 289 257 289 257 282.5 261.5 c 128,-1,96
 276 266 276 266 273 268 c 128,-1,97
 270 270 270 270 264.5 273.5 c 128,-1,98
 259 277 259 277 257 278 c 0,99,100
 222 251 222 251 198 228 c 2,101,-1
 198 227 l 1,102,103
 151 184 151 184 139 156 c 0,76,77
EndSplineSet
EndChar

StartChar: nine
Encoding: 57 57 28
AltUni2: 002079.ffffffff.0 002089.ffffffff.0 00ff19.ffffffff.0 002079.ffffffff.0 002089.ffffffff.0 00ff19.ffffffff.0
Width: 467
GlyphClass: 1
Flags: W
LayerCount: 2
UndoRedoHistory
Layer: 1
Undoes
UndoOperation
Index: 0
Type: 3
WasModified: 0
WasOrder2: 1
Layer: 2
EndUndoOperation
UndoOperation
Index: 1
Type: 1
WasModified: 1
WasOrder2: 1
Layer: 2
Width: 444
VWidth: 1000
LBearingChange: 0
UnicodeEnc: 0
InstructionsLength: 0
SplineSet
356 308 m 1,0,1
 378 402 378 402 362 484 c 0,2,3
 344 584 344 584 278 613 c 0,4,5
 217 640 217 640 172 599 c 0,6,7
 127 559 127 559 122 484 c 0,8,9
 117 407 117 407 164 359 c 0,10,11
 223 302 223 302 339 312 c 0,12,13
 349 312 349 312 356 308 c 1,0,1
103 76 m 0,14,15
 180 43 180 43 247 101 c 0,16,17
 304 150 304 150 338 247 c 1,18,19
 194 236 194 236 118 314 c 0,20,21
 51 381 51 381 57 488 c 0,22,23
 63 589 63 589 129 648 c 0,24,25
 206 717 206 717 304 672 c 0,26,27
 402 628 402 628 426 496 c 0,28,29
 447 384 447 384 409 253 c 0,30,31
 370 121 370 121 289 51 c 0,32,33
 192 -32 192 -32 77 16 c 0,34,35
 65 21 65 21 60 33.5 c 128,-1,36
 55 46 55 46 60 59 c 0,37,38
 65 71 65 71 77.5 76 c 128,-1,39
 90 81 90 81 103 76 c 0,14,15
EndSplineSet
EndUndoOperation
EndUndoes
Redoes
EndRedoes
EndUndoRedoHistory
Fore
SplineSet
437 327 m 0,0,1
 456 372 456 372 464 410 c 0,2,3
 473 447 473 447 475 481 c 0,4,5
 478 562 478 562 419 586 c 0,6,7
 397 594 397 594 378 594 c 0,8,9
 348 594 348 594 319 577 c 0,10,11
 270 545 270 545 252 483 c 0,12,13
 250 476 250 476 248 469 c 0,14,15
 233 406 233 406 263 370 c 0,16,17
 303 326 303 326 396 326 c 0,18,19
 413 326 413 326 430 327 c 2,20,-1
 431 327 l 2,21,22
 434 327 434 327 437 327 c 0,0,1
181 94 m 0,23,24
 226 94 226 94 275 124 c 0,25,26
 336 161 336 161 386 231 c 1,27,28
 379 231 379 231 372 231 c 0,29,30
 235 231 235 231 183 303 c 0,31,32
 137 369 137 369 160 471 c 0,33,34
 162 480 162 480 165 489 c 0,35,36
 194 589 194 589 273 648 c 0,37,38
 331 690 331 690 397 690 c 0,39,40
 439 690 439 690 481 672 c 0,41,42
 572 628 572 628 566 499 c 0,43,44
 564 458 564 458 553 414 c 0,45,46
 535 335 535 335 492 249 c 0,47,48
 425 120 425 120 325 51 c 0,49,50
 241 -2 241 -2 160 -2 c 0,51,52
 120 -2 120 -2 83 16 c 0,53,54
 68 21 68 21 63 34 c 0,55,56
 61 40 61 40 63 46 c 0,57,58
 66 58 66 58 72 70 c 0,59,60
 84 94 84 94 104 104 c 0,61,62
 113 108 113 108 122 108 c 0,63,64
 131 108 131 108 138 104 c 0,65,66
 159 94 159 94 181 94 c 0,23,24
EndSplineSet
EndChar

StartChar: colon
Encoding: 58 58 29
AltUni2: 000589.ffffffff.0 002236.ffffffff.0 00fe13.ffffffff.0 00fe55.ffffffff.0 00ff1a.ffffffff.0 000589.ffffffff.0 002236.ffffffff.0 00fe13.ffffffff.0 00fe55.ffffffff.0 00ff1a.ffffffff.0
Width: 212
GlyphClass: 1
Flags: W
LayerCount: 2
UndoRedoHistory
Layer: 1
Undoes
UndoOperation
Index: 0
Type: 3
WasModified: 0
WasOrder2: 1
Layer: 2
EndUndoOperation
UndoOperation
Index: 1
Type: 1
WasModified: 0
WasOrder2: 1
Layer: 2
Width: 230
VWidth: 1000
LBearingChange: 0
UnicodeEnc: 0
InstructionsLength: 0
SplineSet
92 152 m 1,0,1
 108 173 108 173 134 167 c 0,2,3
 169 158 169 158 191 129 c 0,4,5
 222 88 222 88 196 47 c 0,6,7
 176 19 176 19 140 10 c 0,8,9
 120 6 120 6 106 9 c 0,10,11
 83 14 83 14 69 29 c 0,12,13
 53 47 53 47 53 70 c 0,14,15
 52 90 52 90 61 115 c 0,16,17
 63 121 63 121 67 129 c 0,18,19
 77 144 77 144 92 152 c 1,0,1
73 386 m 1,20,21
 71 403 71 403 83 416 c 0,22,23
 102 435 102 435 125 436 c 0,24,25
 144 437 144 437 164 426 c 0,26,27
 192 411 192 411 208 378 c 0,28,29
 228 339 228 339 214 307 c 0,30,31
 203 284 203 284 180 275 c 0,32,33
 160 268 160 268 135 271 c 0,34,35
 104 274 104 274 84 296 c 0,36,37
 58 324 58 324 64 363 c 0,38,39
 65 375 65 375 73 386 c 1,20,21
EndSplineSet
EndUndoOperation
EndUndoes
Redoes
EndRedoes
EndUndoRedoHistory
Fore
SplineSet
74 74 m 0,0,1
 74 72 74 72 74 71 c 2,2,-1
 74 70 l 2,3,4
 70 51 70 51 78 36 c 0,5,6
 86 23 86 23 104 19 c 0,7,8
 108 18 108 18 114.5 18 c 128,-1,9
 121 18 121 18 131 20 c 0,10,11
 163 28 163 28 185 53 c 1,12,13
 199 75 199 75 202 84 c 0,14,15
 206 103 206 103 197 123 c 0,16,17
 185 149 185 149 157 157 c 0,18,19
 153 158 153 158 150 158 c 0,20,21
 137 158 137 158 125 146 c 2,22,-1
 124 144 l 1,23,24
 109 136 109 136 98 124 c 0,25,26
 93 117 93 117 90 112 c 0,27,28
 78 91 78 91 74 74 c 0,0,1
147 349 m 0,29,30
 141 323 141 323 153 303 c 0,31,32
 167 280 167 280 202 280 c 0,33,34
 240 280 240 280 261 311 c 0,35,36
 269 327 269 327 271 335 c 0,37,38
 275 353 275 353 270 374 c 0,39,40
 263 404 263 404 243 417 c 0,41,42
 230 426 230 426 216 426 c 0,43,44
 197 426 197 426 177 409 c 0,45,46
 168 398 168 398 166.5 393.5 c 128,-1,47
 165 389 165 389 165 383 c 1,48,-1
 162 380 l 2,49,50
 155 372 155 372 151.5 363.5 c 128,-1,51
 148 355 148 355 147 349 c 0,29,30
EndSplineSet
EndChar

StartChar: semicolon
Encoding: 59 59 30
AltUni2: 00037e.ffffffff.0 00fe14.ffffffff.0 00fe54.ffffffff.0 00ff1b.ffffffff.0 00037e.ffffffff.0 00fe14.ffffffff.0 00fe54.ffffffff.0 00ff1b.ffffffff.0
Width: 196
GlyphClass: 1
Flags: W
LayerCount: 2
UndoRedoHistory
Layer: 1
Undoes
UndoOperation
Index: 0
Type: 3
WasModified: 0
WasOrder2: 1
Layer: 2
EndUndoOperation
UndoOperation
Index: 1
Type: 1
WasModified: 0
WasOrder2: 1
Layer: 2
Width: 212
VWidth: 1000
LBearingChange: 0
UnicodeEnc: 0
InstructionsLength: 0
SplineSet
95 352 m 2,0,1
 113 369 113 369 136 359 c 0,2,3
 186 338 186 338 193 300 c 0,4,5
 200 261 200 261 168 234 c 0,6,7
 136 209 136 209 101 223 c 0,8,9
 81 232 81 232 70 252 c 0,10,11
 62 268 62 268 62 293 c 2,12,-1
 62 298 l 1,13,-1
 62 306 l 2,14,15
 65 323 65 323 76 332 c 2,16,-1
 81 337 l 2,17,18
 86 340 86 340 90 347 c 2,19,-1
 95 352 l 2,0,1
124 156 m 0,20,21
 166 142 166 142 188 99 c 0,22,23
 205 62 205 62 201 22 c 0,24,25
 197 -22 197 -22 173.5 -56.5 c 128,-1,26
 150 -91 150 -91 112 -104 c 0,27,28
 97 -109 97 -109 82 -102 c 128,-1,29
 67 -95 67 -95 63 -80 c 0,30,31
 58 -64 58 -64 65 -49.5 c 128,-1,32
 72 -35 72 -35 87 -30 c 0,33,34
 101 -26 101 -26 111.5 -9.5 c 128,-1,35
 122 7 122 7 124 28 c 0,36,37
 126 50 126 50 118 64 c 0,38,39
 112 77 112 77 98 82 c 0,40,41
 83 87 83 87 76 101.5 c 128,-1,42
 69 116 69 116 74 131 c 0,43,44
 79 147 79 147 94 154 c 128,-1,45
 109 161 109 161 124 156 c 0,20,21
EndSplineSet
EndUndoOperation
EndUndoes
Redoes
EndRedoes
EndUndoRedoHistory
Fore
SplineSet
198 378 m 0,0,1
 208 378 208 378 217 373 c 0,2,3
 273 345 273 345 260 286 c 0,4,5
 251 249 251 249 215 222 c 1,6,7
 187 203 187 203 163 203 c 0,8,9
 148 203 148 203 136 209 c 0,10,11
 96 231 96 231 110 293 c 2,12,-1
 112 298 l 1,13,-1
 113 306 l 1,14,-1
 114 307 l 1,15,16
 123 330 123 330 140 343 c 1,17,-1
 145 348 l 1,18,-1
 146 349 l 1,19,-1
 148 350 l 2,20,21
 150 351 150 351 154 356 c 1,22,-1
 155 358 l 2,23,24
 161 363 161 363 162 363 c 0,25,26
 180 378 180 378 198 378 c 0,0,1
209 37 m 0,27,28
 196 -20 196 -20 157 -65 c 0,29,30
 124 -104 124 -104 80 -118 c 0,31,32
 71 -121 71 -121 61.5 -121 c 128,-1,33
 52 -121 52 -121 43 -116 c 0,34,35
 26 -106 26 -106 25 -84 c 128,-1,37
 24 -62 24 -62 37.5 -42.5 c 128,-1,38
 51 -23 51 -23 72 -16 c 0,39,40
 81 -13 81 -13 91 -1 c 0,41,42
 104 15 104 15 109 36 c 0,43,44
 112 47 112 47 109 58 c 0,45,46
 108 65 108 65 101 68 c 0,47,48
 83 75 83 75 79 95 c 0,49,50
 76 107 76 107 78.5 117 c 128,-1,51
 81 127 81 127 86 136 c 0,52,53
 98 158 98 158 119 168 c 0,54,55
 131 173 131 173 141 173 c 128,-1,56
 151 173 151 173 158 170 c 0,57,58
 199 154 199 154 211 106 c 1,59,60
 217 72 217 72 209 37 c 0,27,28
EndSplineSet
EndChar

StartChar: less
Encoding: 60 60 31
AltUni2: 00fe3f.ffffffff.0 002329.ffffffff.0 002039.ffffffff.0 003008.ffffffff.0 00fe64.ffffffff.0 00ff1c.ffffffff.0 002039.ffffffff.0 003008.ffffffff.0 00fe64.ffffffff.0 00ff1c.ffffffff.0
Width: 362
GlyphClass: 1
Flags: W
LayerCount: 2
UndoRedoHistory
Layer: 1
Undoes
UndoOperation
Index: 0
Type: 3
WasModified: 0
WasOrder2: 1
Layer: 2
EndUndoOperation
UndoOperation
Index: 1
Type: 1
WasModified: 0
WasOrder2: 1
Layer: 2
Width: 390
VWidth: 1000
LBearingChange: 0
UnicodeEnc: 0
InstructionsLength: 0
SplineSet
369 566 m 0,0,1
 333 529 333 529 257 455 c 0,2,3
 256 454 256 454 239.5 438 c 128,-1,4
 223 422 223 422 204.5 404 c 128,-1,5
 186 386 186 386 180 380 c 0,6,7
 151 352 151 352 136 334 c 0,8,9
 134 331 134 331 131 326 c 2,10,-1
 128 321 l 2,11,12
 128 320 128 320 127 319 c 128,-1,13
 126 318 126 318 126 317 c 2,14,-1
 126 316 l 2,15,16
 126 315 126 315 127 313 c 128,-1,17
 128 311 128 311 128 310 c 0,18,19
 134 301 134 301 153 279 c 0,20,21
 190 240 190 240 204 225 c 0,22,23
 237 187 237 187 273 141 c 0,24,25
 277 135 277 135 295 123 c 0,26,27
 301 118 301 118 305.5 114 c 128,-1,28
 310 110 310 110 312 109 c 0,29,30
 329 95 329 95 337 82 c 0,31,32
 353 54 353 54 340 28 c 0,33,34
 334 13 334 13 318.5 7 c 128,-1,35
 303 1 303 1 289 8 c 0,36,37
 264 20 264 20 266 46 c 0,38,39
 264 48 264 48 262 49 c 0,40,41
 257 54 257 54 247 61 c 0,42,43
 220 82 220 82 212 93 c 0,44,45
 197 112 197 112 146 173 c 1,46,-1
 96 227 l 2,47,48
 70 255 70 255 61 271 c 0,49,50
 45 299 45 299 49 329 c 0,51,52
 53 354 53 354 75 382 c 0,53,54
 90 401 90 401 125 436 c 0,55,56
 167 475 167 475 203 511 c 0,57,58
 277 584 277 584 313 620 c 0,59,60
 324 632 324 632 340.5 632 c 128,-1,61
 357 632 357 632 368 621 c 128,-1,62
 379 610 379 610 379.5 593.5 c 128,-1,63
 380 577 380 577 369 566 c 0,0,1
EndSplineSet
EndUndoOperation
EndUndoes
Redoes
EndRedoes
EndUndoRedoHistory
Fore
SplineSet
325 122 m 0,0,1
 355 89 355 89 347 53 c 0,2,3
 343 36 343 36 333 22 c 0,4,5
 320 1 320 1 299 -7 c 0,6,7
 289 -11 289 -11 279 -11 c 128,-1,8
 269 -11 269 -11 261 -5 c 0,9,10
 237 9 237 9 242 39 c 0,11,12
 240 42 240 42 232 49 c 0,13,14
 211 71 211 71 205 84 c 0,15,16
 195 103 195 103 162 163 c 1,17,-1
 128 217 l 2,18,19
 109 246 109 246 105 264 c 0,20,21
 97 290 97 290 103 317 c 0,22,23
 111 353 111 353 148 391 c 0,24,25
 167 411 167 411 209 447 c 1,26,27
 273 499 273 499 426 630 c 0,28,29
 444 647 444 647 465 647 c 128,-1,30
 486 647 486 647 497 632 c 0,31,32
 508 616 508 616 503 593 c 128,-1,33
 498 570 498 570 481 555 c 0,34,35
 435 515 435 515 388 475 c 0,36,37
 283 386 283 386 256.5 364 c 128,-1,38
 230 342 230 342 212 325 c 0,39,40
 210 322 210 322 205 316 c 1,41,42
 209 307 209 307 219 289 c 0,43,44
 251 240 251 240 254 235 c 0,45,46
 276 197 276 197 299 150 c 1,47,-1
 299 149 l 2,48,49
 301 145 301 145 313 135 c 0,50,51
 318 129 318 129 321 126 c 0,52,53
 324 123 324 123 325 122 c 0,0,1
EndSplineSet
Substitution2: "'rtla' Right to Left Alternates lookup 0 subtable" greater
EndChar

StartChar: equal
Encoding: 61 61 32
AltUni2: 00207c.ffffffff.0 00208c.ffffffff.0 00fe66.ffffffff.0 00ff1d.ffffffff.0 00207c.ffffffff.0 00208c.ffffffff.0 00fe66.ffffffff.0 00ff1d.ffffffff.0
Width: 506
GlyphClass: 1
Flags: W
LayerCount: 2
UndoRedoHistory
Layer: 1
Undoes
UndoOperation
Index: 0
Type: 3
WasModified: 0
WasOrder2: 1
Layer: 2
EndUndoOperation
UndoOperation
Index: 1
Type: 1
WasModified: 0
WasOrder2: 1
Layer: 2
Width: 546
VWidth: 1000
LBearingChange: 0
UnicodeEnc: 0
InstructionsLength: 0
SplineSet
122 408 m 0,0,1
 297 401 297 401 493 409 c 0,2,3
 509 410 509 410 521 399 c 128,-1,4
 533 388 533 388 534 372 c 128,-1,5
 535 356 535 356 524 344 c 128,-1,6
 513 332 513 332 497 331 c 0,7,8
 298 323 298 323 119 330 c 0,9,10
 103 331 103 331 92 342.5 c 128,-1,11
 81 354 81 354 81 370 c 0,12,13
 82 387 82 387 94 398 c 128,-1,14
 106 409 106 409 122 408 c 0,0,1
124 201 m 0,15,16
 385 206 385 206 495 212 c 0,17,18
 511 213 511 213 522.5 202 c 128,-1,19
 534 191 534 191 536 175 c 0,20,21
 537 159 537 159 526 147 c 128,-1,22
 515 135 515 135 499 134 c 0,23,24
 387 128 387 128 126 123 c 0,25,26
 109 122 109 122 97.5 133.5 c 128,-1,27
 86 145 86 145 86 161 c 128,-1,28
 86 177 86 177 97 188.5 c 128,-1,29
 108 200 108 200 124 201 c 0,15,16
EndSplineSet
EndUndoOperation
EndUndoes
Redoes
EndRedoes
EndUndoRedoHistory
Fore
SplineSet
595 369 m 0,0,1
 590 349 590 349 573 333 c 128,-1,2
 556 317 556 317 535 316 c 2,3,-1
 534 316 l 1,4,5
 347 308 347 308 182 315 c 1,6,-1
 181 315 l 2,7,8
 161 316 161 316 150.5 332 c 128,-1,9
 140 348 140 348 145 370 c 0,10,11
 151 393 151 393 170 408 c 128,-1,12
 189 423 189 423 207 423 c 0,13,14
 209 423 209 423 211 423 c 0,15,16
 371 416 371 416 554 424 c 0,17,18
 556 424 556 424 558 424 c 0,19,20
 577 424 577 424 588 410 c 0,21,22
 601 393 601 393 595 369 c 0,0,1
514 227 m 0,23,24
 533 227 533 227 543.5 212.5 c 128,-1,25
 554 198 554 198 552 176 c 0,26,27
 552 174 552 174 551 172 c 0,28,29
 546 152 546 152 529 136 c 128,-1,30
 512 120 512 120 491 119 c 0,31,32
 385 113 385 113 141 108 c 0,33,34
 139 108 139 108 138 108 c 0,35,36
 118 108 118 108 107.5 123.5 c 128,-1,37
 97 139 97 139 102 161 c 128,-1,38
 107 183 107 183 125 199 c 0,39,40
 143 215 143 215 164 216 c 0,41,42
 408 221 408 221 511 227 c 0,43,44
 512 227 512 227 514 227 c 0,23,24
EndSplineSet
EndChar

StartChar: greater
Encoding: 62 62 33
AltUni2: 00fe40.ffffffff.0 00232a.ffffffff.0 00203a.ffffffff.0 003009.ffffffff.0 00fe65.ffffffff.0 00ff1e.ffffffff.0 00203a.ffffffff.0 003009.ffffffff.0 00fe65.ffffffff.0 00ff1e.ffffffff.0
Width: 335
GlyphClass: 1
Flags: W
LayerCount: 2
UndoRedoHistory
Layer: 1
Undoes
UndoOperation
Index: 0
Type: 3
WasModified: 0
WasOrder2: 1
Layer: 2
EndUndoOperation
UndoOperation
Index: 1
Type: 1
WasModified: 0
WasOrder2: 1
Layer: 2
Width: 361
VWidth: 1000
LBearingChange: 0
UnicodeEnc: 0
InstructionsLength: 0
SplineSet
109 619 m 0,0,1
 163 558 163 558 209 510 c 0,2,3
 250 469 250 469 280 434 c 0,4,5
 312 400 312 400 326 381 c 0,6,7
 346 352 346 352 350 328 c 0,8,9
 354 301 354 301 339 273 c 0,10,11
 329 254 329 254 307 228 c 2,12,-1
 298 218 l 2,13,14
 290 207 290 207 278.5 193.5 c 128,-1,15
 267 180 267 180 262 174 c 0,16,17
 231 138 231 138 201 95 c 0,18,19
 192 82 192 82 168 62 c 0,20,21
 160 55 160 55 155 50 c 0,22,23
 154 49 154 49 151 47 c 0,24,25
 153 18 153 18 127 8 c 0,26,27
 112 1 112 1 97.5 7.5 c 128,-1,28
 83 14 83 14 76 29 c 0,29,30
 66 54 66 54 80 80 c 0,31,32
 88 96 88 96 103 108 c 0,33,34
 109 114 109 114 118 122 c 0,35,36
 133 133 133 133 138 140 c 0,37,38
 173 189 173 189 201 223 c 2,39,-1
 247 278 l 2,40,41
 266 300 266 300 270 309 c 0,42,43
 273 313 273 313 273 317 c 0,44,45
 271 323 271 323 263 335 c 0,46,47
 251 352 251 352 223 381 c 0,48,49
 193 416 193 416 153 456 c 0,50,51
 87 525 87 525 51 567 c 0,52,53
 40 579 40 579 41 595 c 128,-1,54
 42 611 42 611 54 622 c 128,-1,55
 66 633 66 633 82 632 c 128,-1,56
 98 631 98 631 109 619 c 0,0,1
EndSplineSet
EndUndoOperation
EndUndoes
Redoes
EndRedoes
EndUndoRedoHistory
Fore
SplineSet
223 647 m 0,0,1
 246 647 246 647 256 629 c 0,2,3
 292 568 292 568 324 520 c 0,4,5
 353 479 353 479 373 444 c 0,6,7
 397 407 397 407 404 390 c 0,8,9
 420 350 420 350 413 317 c 0,10,11
 407 292 407 292 390 268 c 0,12,13
 372 243 372 243 346 218 c 2,14,-1
 336 209 l 1,15,16
 326 198 326 198 312 184 c 128,-1,17
 298 170 298 170 292 164 c 0,18,19
 255 128 255 128 218 86 c 0,20,21
 205 71 205 71 176 51 c 0,22,23
 168 45 168 45 163 40 c 1,24,25
 159 26 159 26 151 16 c 0,26,27
 140 1 140 1 122 -6 c 0,28,29
 100 -16 100 -16 83 -6 c 0,30,31
 66 3 66 3 63 23 c 0,32,33
 61 36 61 36 64.5 52.5 c 128,-1,34
 68 69 68 69 82 87 c 0,35,36
 95 105 95 105 113 119 c 0,37,38
 120 125 120 125 131 134 c 1,39,40
 146 144 146 144 151 149 c 0,41,42
 198 202 198 202 243 246 c 0,43,44
 285 287 285 287 285 288 c 0,45,46
 307 310 307 310 311 316 c 1,47,48
 310 321 310 321 308 327 c 0,49,50
 301 343 301 343 282 371 c 1,51,-1
 282 371 l 1,52,53
 262 406 262 406 235 446 c 0,54,55
 218 471 218 471 165 557 c 0,56,57
 156 572 156 572 160 592 c 0,58,59
 166 616 166 616 186 633 c 0,60,61
 204 647 204 647 223 647 c 0,0,1
EndSplineSet
Substitution2: "'rtla' Right to Left Alternates lookup 0 subtable" less
EndChar

StartChar: question
Encoding: 63 63 34
AltUni2: 00fe16.ffffffff.0 00fe56.ffffffff.0 00ff1f.ffffffff.0 00fe16.ffffffff.0 00fe56.ffffffff.0 00ff1f.ffffffff.0
Width: 430
GlyphClass: 1
Flags: W
LayerCount: 2
UndoRedoHistory
Layer: 1
Undoes
UndoOperation
Index: 0
Type: 3
WasModified: 0
WasOrder2: 1
Layer: 2
EndUndoOperation
UndoOperation
Index: 1
Type: 1
WasModified: 0
WasOrder2: 1
Layer: 2
Width: 464
VWidth: 1000
LBearingChange: 0
UnicodeEnc: 0
InstructionsLength: 0
SplineSet
214 51 m 0,0,1
 224 64 224 64 235 71 c 0,2,3
 262 86 262 86 288 75 c 0,4,5
 313 64 313 64 321 44 c 0,6,7
 333 20 333 20 320 -4 c 0,8,9
 308 -28 308 -28 273 -44 c 0,10,11
 260 -50 260 -50 246 -53 c 0,12,13
 226 -56 226 -56 209 -49 c 0,14,15
 177 -32 177 -32 184 2 c 0,16,17
 187 20 187 20 202 38 c 0,18,19
 210 47 210 47 214 51 c 0,0,1
90 499 m 0,20,21
 96 557 96 557 144 610 c 0,22,23
 188 657 188 657 245 680 c 0,24,25
 312 706 312 706 363 689 c 0,26,27
 428 669 428 669 448 595 c 0,28,29
 464 533 464 533 438 463 c 0,30,31
 428 436 428 436 411 406 c 0,32,33
 402 390 402 390 380 354 c 0,34,35
 354 312 354 312 350 303 c 0,36,37
 330 268 330 268 323 242 c 1,38,-1
 322 241 l 1,39,-1
 322 240 l 2,40,41
 322 237 322 237 321 233 c 0,42,43
 320 230 320 230 318.5 223.5 c 128,-1,44
 317 217 317 217 316 214 c 2,45,-1
 313 202 l 2,46,47
 312 200 312 200 311 196.5 c 128,-1,48
 310 193 310 193 309.5 191 c 128,-1,49
 309 189 309 189 308 187 c 0,50,51
 308 185 308 185 307 182.5 c 128,-1,52
 306 180 306 180 305 179 c 0,53,54
 299 169 299 169 293 165 c 0,55,56
 285 157 285 157 269 155 c 0,57,58
 250 155 250 155 239 168 c 0,59,60
 234 173 234 173 230 181 c 0,61,62
 228 187 228 187 228 189 c 0,63,64
 226 201 226 201 226 212 c 0,65,66
 226 232 226 232 243 244 c 1,67,-1
 248 264 l 2,68,69
 258 300 258 300 282 341 c 0,70,71
 291 357 291 357 313 394 c 0,72,73
 355 463 355 463 365 491 c 0,74,75
 382 538 382 538 372 575 c 0,76,77
 364 607 364 607 340 615 c 0,78,79
 313 623 313 623 274 608 c 0,80,81
 233 591 233 591 202.5 557.5 c 128,-1,82
 172 524 172 524 168 491 c 0,83,84
 167 475 167 475 154 464.5 c 128,-1,85
 141 454 141 454 125 456 c 0,86,87
 109 457 109 457 98.5 470 c 128,-1,88
 88 483 88 483 90 499 c 0,20,21
EndSplineSet
EndUndoOperation
EndUndoes
Redoes
EndRedoes
EndUndoRedoHistory
Fore
SplineSet
229 84 m 0,0,1
 249 95 249 95 265 95 c 128,-1,3
 281 95 281 95 292 89 c 0,4,5
 315 77 315 77 321 50 c 0,6,7
 324 36 324 36 321 22 c 0,8,9
 321 22 321 22 321 21 c 0,10,11
 317 5 317 5 306 -11 c 0,12,13
 286 -40 286 -40 245 -58 c 0,14,15
 220 -69 220 -69 202 -69 c 0,16,17
 183 -69 183 -69 172 -62 c 0,18,19
 144 -44 144 -44 152 -10 c 0,20,21
 159 20 159 20 187 48 c 0,22,23
 196 57 196 57 201 61 c 0,24,25
 215 76 215 76 229 84 c 0,0,1
182 494 m 0,26,27
 183 497 183 497 184 501 c 0,28,29
 205 565 205 565 265 620 c 0,30,31
 320 670 320 670 382 694 c 0,32,33
 426 711 426 711 460 711 c 0,34,35
 483 711 483 711 503 703 c 0,36,37
 565 681 565 681 567 599 c 0,38,39
 567 573 567 573 561 547 c 0,40,41
 545 478 545 478 485 399 c 0,42,43
 473 383 473 383 442 344 c 128,-1,44
 411 305 411 305 405 296 c 0,45,46
 379 262 379 262 366 235 c 0,47,48
 365 231 365 231 363.5 228.5 c 128,-1,49
 362 226 362 226 359 220 c 2,50,-1
 349 198 l 1,51,-1
 348 197 l 2,52,53
 346 194 346 194 344 190 c 0,54,55
 337 175 337 175 333 170 c 0,56,57
 312 144 312 144 282 140 c 1,58,-1
 281 140 l 2,59,60
 257 140 257 140 247 158 c 0,61,62
 243 165 243 165 240 175 c 1,63,64
 239 190 239 190 244 213 c 128,-1,65
 249 236 249 236 270 253 c 1,66,-1
 277 268 l 2,67,68
 294 305 294 305 329 348 c 0,69,70
 341 364 341 364 370 402 c 0,71,72
 424 470 424 470 439.5 496.5 c 128,-1,73
 455 523 455 523 460 546 c 0,74,75
 463 559 463 559 463 571 c 0,76,77
 463 595 463 595 449 601 c 0,78,79
 443 603 443 603 435 603 c 0,80,81
 419 603 419 603 396 594 c 0,82,83
 357 578 357 578 324 548 c 128,-1,84
 291 518 291 518 282 490 c 0,85,86
 275 468 275 468 255 453 c 0,87,88
 238 441 238 441 221 441 c 0,89,90
 196 441 196 441 186 461 c 0,91,92
 178 476 178 476 182 494 c 0,26,27
EndSplineSet
EndChar

StartChar: at
Encoding: 64 64 35
AltUni2: 00fe6b.ffffffff.0 00ff20.ffffffff.0 00fe6b.ffffffff.0 00ff20.ffffffff.0
Width: 497
GlyphClass: 1
Flags: W
LayerCount: 2
UndoRedoHistory
Layer: 1
Undoes
UndoOperation
Index: 0
Type: 3
WasModified: 0
WasOrder2: 1
Layer: 2
EndUndoOperation
EndUndoes
Redoes
EndRedoes
EndUndoRedoHistory
Fore
SplineSet
341 265 m 1,0,1
 348 269 348 269 353 275 c 0,2,3
 355 277 355 277 356 277 c 0,4,5
 366 289 366 289 374 318 c 0,6,7
 381 344 381 344 389 365 c 0,8,9
 399 389 399 389 411 411 c 1,10,11
 403 419 403 419 399 420 c 0,12,13
 396 420 396 420 394 418 c 0,14,15
 370 400 370 400 352 344 c 0,16,17
 335 293 335 293 341 265 c 1,0,1
477 311 m 1,18,19
 477 312 477 312 478 313 c 0,20,21
 486 328 486 328 498 368 c 0,22,23
 513 422 513 422 518 442 c 0,24,25
 524 474 524 474 524 510 c 0,26,27
 521 539 521 539 487 559 c 0,28,29
 453 579 453 579 416 572 c 0,30,31
 396 568 396 568 389 565 c 0,32,33
 387 565 387 565 382 562 c 0,34,35
 379 559 379 559 371 552 c 0,36,37
 355 538 355 538 346 531 c 0,38,39
 270 467 270 467 235 386 c 0,40,41
 203 313 203 313 214 243 c 128,-1,42
 225 173 225 173 274 132 c 0,43,44
 330 87 330 87 412 88 c 0,45,46
 427 89 427 89 435 77.5 c 128,-1,47
 443 66 443 66 441 50 c 0,48,49
 437 34 437 34 424 22.5 c 128,-1,50
 411 11 411 11 395 10 c 0,51,52
 289 8 289 8 220 67 c 0,53,54
 155 120 155 120 141 213 c 0,55,56
 126 303 126 303 168 402 c 0,57,58
 213 505 213 505 309 587 c 0,59,60
 320 595 320 595 331 606 c 0,61,62
 334 609 334 609 337 611.5 c 128,-1,63
 340 614 340 614 341.5 615.5 c 128,-1,64
 343 617 343 617 345 618.5 c 128,-1,65
 347 620 347 620 348 621 c 0,66,67
 362 632 362 632 385 640 c 0,68,69
 388 641 388 641 399 643.5 c 128,-1,70
 410 646 410 646 419 648 c 0,71,72
 479 662 479 662 535 629 c 0,73,74
 594 593 594 593 598 533 c 0,75,76
 600 494 600 494 590 445 c 0,77,78
 586 422 586 422 569 362 c 0,79,80
 543 273 543 273 505 241 c 0,81,82
 477 219 477 219 449 225 c 0,83,84
 430 229 430 229 418 248 c 1,85,86
 407 234 407 234 401 228 c 0,87,88
 400 227 400 227 397.5 224.5 c 128,-1,89
 395 222 395 222 394 221 c 0,90,91
 351 184 351 184 320 184 c 0,92,93
 283 183 283 183 271 221 c 0,94,95
 255 269 255 269 281 351 c 0,96,97
 309 438 309 438 360 477 c 0,98,99
 395 505 395 505 432 496 c 0,100,101
 464 487 464 487 489 448 c 0,102,103
 503 427 503 427 484 403 c 0,104,105
 484 402 484 402 483 399.5 c 128,-1,106
 482 397 482 397 481 396 c 0,107,108
 470 380 470 380 470 349 c 0,109,110
 471 326 471 326 477 311 c 1,18,19
EndSplineSet
EndChar

StartChar: A
Encoding: 65 65 36
AltUni2: 000391.ffffffff.0 000410.ffffffff.0 0013aa.ffffffff.0 001d2c.ffffffff.0 00ff21.ffffffff.0 000391.ffffffff.0 000410.ffffffff.0 0013aa.ffffffff.0 001d2c.ffffffff.0 00ff21.ffffffff.0
Width: 459
GlyphClass: 1
Flags: W
LayerCount: 2
UndoRedoHistory
Layer: 1
Undoes
UndoOperation
Index: 0
Type: 3
WasModified: 0
WasOrder2: 1
Layer: 2
EndUndoOperation
UndoOperation
Index: 1
Type: 1
WasModified: 1
WasOrder2: 1
Layer: 2
Width: 436
VWidth: 1000
LBearingChange: 0
UnicodeEnc: 0
InstructionsLength: 0
SplineSet
128 247 m 1,0,1
 182 270 182 270 226 296 c 0,2,3
 285 331 285 331 347 380 c 1,4,5
 350 507 350 507 343 575 c 0,6,7
 336 656 336 656 311 690 c 1,8,9
 262 647 262 647 220 562.5 c 128,-1,10
 178 478 178 478 152 372 c 0,11,12
 136 309 136 309 128 247 c 1,0,1
76 -13 m 0,13,14
 53 62 53 62 56.5 168 c 128,-1,15
 60 274 60 274 89 387 c 0,16,17
 118 505 118 505 165.5 598 c 128,-1,18
 213 691 213 691 271 741 c 0,19,20
 283 752 283 752 304 755 c 0,21,22
 314 756 314 756 324 755 c 0,23,24
 339 754 339 754 351 743 c 0,25,26
 396 697 396 697 408 581 c 0,27,28
 415 507 415 507 412 365 c 0,29,30
 412 354 412 354 411 344 c 0,31,32
 409 219 409 219 411 189 c 0,33,34
 413 110 413 110 424 70 c 0,35,36
 428 57 428 57 421 45.5 c 128,-1,37
 414 34 414 34 401 30 c 128,-1,38
 388 26 388 26 376.5 33 c 128,-1,39
 365 40 365 40 361 53 c 0,40,41
 347 104 347 104 346 187 c 0,42,43
 345 230 345 230 346 297 c 1,44,45
 299 264 299 264 260 240 c 0,46,47
 184 197 184 197 122 176 c 1,48,49
 117 73 117 73 138 6 c 0,50,51
 142 -7 142 -7 135.5 -18.5 c 128,-1,52
 129 -30 129 -30 116 -34 c 128,-1,53
 103 -38 103 -38 91.5 -32 c 128,-1,54
 80 -26 80 -26 76 -13 c 0,13,14
EndSplineSet
EndUndoOperation
EndUndoes
Redoes
EndRedoes
EndUndoRedoHistory
Fore
SplineSet
476 656 m 1,0,1
 424 617 424 617 369 549 c 0,2,3
 305 469 305 469 254 368 c 0,4,5
 230 319 230 319 212 272 c 1,6,7
 256 290 256 290 297 309 c 0,8,9
 366 342 366 342 439 387 c 1,10,11
 451 436 451 436 454 451 c 0,12,13
 471 526 471 526 478 572 c 2,14,15
 478 571 478 571 478 572 c 2,16,17
 486 626 486 626 476 656 c 1,0,1
83 141 m 0,18,19
 111 261 111 261 172 391 c 0,20,21
 226 507 226 507 293 598 c 0,22,23
 366 690 366 690 444 741 c 0,24,25
 470 756 470 756 506 756 c 0,26,27
 512 756 512 756 518 755 c 0,28,29
 537 754 537 754 549 743 c 0,30,31
 583 696 583 696 568 581 c 0,32,33
 561 529 561 529 541 444 c 0,34,35
 522 363 522 363 516 343 c 0,36,37
 501 281 501 281 492 243 c 0,38,39
 485 212 485 212 481 190 c 0,40,41
 465 112 465 112 467 79 c 0,42,43
 466 70 466 70 465 62 c 0,44,45
 463 53 463 53 455 46 c 0,46,47
 443 34 443 34 425 30 c 0,48,49
 418 29 418 29 409 29 c 128,-1,50
 400 29 400 29 391 33 c 0,51,52
 377 40 377 40 375 53 c 0,53,54
 373 104 373 104 392 187 c 0,55,56
 395 201 395 201 397 214 c 0,57,58
 401 233 401 233 410 268 c 1,59,60
 362 249 362 249 336 240 c 0,61,62
 248 200 248 200 181 179 c 1,63,64
 173 148 173 148 171 138 c 0,65,66
 154 65 154 65 158 15 c 0,67,68
 158 6 158 6 155 -6 c 0,69,70
 154 -12 154 -12 147 -18 c 0,71,72
 136 -30 136 -30 117 -34 c 0,73,74
 110 -36 110 -36 101.5 -36 c 128,-1,75
 93 -36 93 -36 84 -32 c 0,76,77
 70 -26 70 -26 67 -13 c 0,78,79
 63 53 63 53 83 141 c 0,18,19
EndSplineSet
EndChar

StartChar: B
Encoding: 66 66 37
AltUni2: 000392.ffffffff.0 000412.ffffffff.0 0013f4.ffffffff.0 001d2e.ffffffff.0 00212c.ffffffff.0 00ff22.ffffffff.0 000392.ffffffff.0 000412.ffffffff.0 0013f4.ffffffff.0 001d2e.ffffffff.0 00212c.ffffffff.0 00ff22.ffffffff.0
Width: 475
GlyphClass: 1
Flags: W
LayerCount: 2
UndoRedoHistory
Layer: 1
Undoes
UndoOperation
Index: 0
Type: 3
WasModified: 0
WasOrder2: 1
Layer: 2
EndUndoOperation
UndoOperation
Index: 1
Type: 1
WasModified: 1
WasOrder2: 1
Layer: 2
Width: 452
VWidth: 1000
LBearingChange: 0
UnicodeEnc: 0
InstructionsLength: 0
SplineSet
132.375 401.75 m 1,0,1
 139.724609375 403.849609375 139.724609375 403.849609375 149.174804688 407.525390625 c 128,-1,2
 158.625 411.200195312 158.625 411.200195312 164.400390625 413.825195312 c 128,-1,3
 170.174804688 416.450195312 170.174804688 416.450195312 172.275390625 416.450195312 c 0,4,5
 193.275390625 424.849609375 193.275390625 424.849609375 219.525390625 436.400390625 c 0,6,7
 246.825195312 450.049804688 246.825195312 450.049804688 262.575195312 465.799804688 c 0,8,9
 277.275390625 480.5 277.275390625 480.5 290.924804688 499.400390625 c 0,10,11
 324.525390625 540.349609375 324.525390625 540.349609375 310.875 580.25 c 0,12,13
 298.275390625 618.049804688 298.275390625 618.049804688 252.075195312 644.299804688 c 0,14,15
 203.775390625 669.5 203.775390625 669.5 149.174804688 664.25 c 0,16,17
 148.125 663.200195312 148.125 663.200195312 143.924804688 663.200195312 c 128,-1,18
 139.724609375 663.200195312 139.724609375 663.200195312 138.674804688 662.150390625 c 0,19,20
 132.375 537.200195312 132.375 537.200195312 132.375 401.75 c 1,0,1
137.625 38.4501953125 m 1,21,22
 138.674804688 39.5 138.674804688 39.5 141.825195312 40.025390625 c 128,-1,23
 144.974609375 40.5498046875 144.974609375 40.5498046875 146.025390625 40.5498046875 c 0,24,25
 152.325195312 40.5498046875 152.325195312 40.5498046875 169.125 44.75 c 0,26,27
 174.375 45.7998046875 174.375 45.7998046875 181.724609375 47.375 c 128,-1,28
 189.075195312 48.9501953125 189.075195312 48.9501953125 192.224609375 48.9501953125 c 0,29,30
 294.075195312 67.849609375 294.075195312 67.849609375 323.474609375 97.25 c 0,31,32
 358.125 130.849609375 358.125 130.849609375 354.974609375 173.900390625 c 0,33,34
 351.825195312 213.799804688 351.825195312 213.799804688 315.075195312 255.799804688 c 128,-1,35
 278.325195312 297.799804688 278.325195312 297.799804688 227.924804688 316.700195312 c 128,-1,36
 177.525390625 335.599609375 177.525390625 335.599609375 137.625 324.049804688 c 0,37,38
 136.575195312 324.049804688 136.575195312 324.049804688 135 323.525390625 c 128,-1,39
 133.424804688 323 133.424804688 323 132.375 321.950195312 c 0,40,41
 132.375 267.349609375 132.375 267.349609375 134.474609375 143.450195312 c 2,42,-1
 135.525390625 109.849609375 l 2,43,44
 136.575195312 102.5 136.575195312 102.5 136.575195312 87.7998046875 c 0,45,46
 137.625 68.900390625 137.625 68.900390625 137.625 43.7001953125 c 2,47,-1
 137.625 38.4501953125 l 1,21,22
1.125 657.950195312 m 0,48,49
 58.875 723.049804688 58.875 723.049804688 141.825195312 731.450195312 c 0,50,51
 216.375 740.900390625 216.375 740.900390625 284.625 704.150390625 c 0,52,53
 354.974609375 665.299804688 354.974609375 665.299804688 375.974609375 602.299804688 c 0,54,55
 400.125 527.75 400.125 527.75 345.525390625 457.400390625 c 0,56,57
 322.424804688 429.049804688 322.424804688 429.049804688 310.875 417.5 c 0,58,59
 282.525390625 391.25 282.525390625 391.25 256.275390625 378.650390625 c 1,60,61
 320.325195312 352.400390625 320.325195312 352.400390625 365.474609375 300.950195312 c 0,62,63
 416.924804688 243.200195312 416.924804688 243.200195312 423.224609375 180.200195312 c 0,64,65
 429.525390625 103.549804688 429.525390625 103.549804688 370.724609375 47.900390625 c 0,66,67
 345.525390625 22.7001953125 345.525390625 22.7001953125 294.075195312 3.7998046875 c 0,68,69
 262.575195312 -6.7001953125 262.575195312 -6.7001953125 204.825195312 -18.25 c 0,70,71
 201.674804688 -18.25 201.674804688 -18.25 193.799804688 -19.8251953125 c 128,-1,72
 185.924804688 -21.400390625 185.924804688 -21.400390625 180.674804688 -22.4501953125 c 0,73,74
 178.575195312 -23.5 178.575195312 -23.5 169.125 -25.0751953125 c 128,-1,75
 159.674804688 -26.650390625 159.674804688 -26.650390625 157.575195312 -26.650390625 c 0,76,77
 99.8251953125 -38.2001953125 99.8251953125 -38.2001953125 83.025390625 -43.4501953125 c 0,78,79
 69.375 -48.7001953125 69.375 -48.7001953125 56.775390625 -42.400390625 c 128,-1,80
 44.1748046875 -36.099609375 44.1748046875 -36.099609375 39.974609375 -22.4501953125 c 0,81,82
 34.724609375 -8.7998046875 34.724609375 -8.7998046875 41.025390625 4.3251953125 c 128,-1,83
 47.3251953125 17.4501953125 47.3251953125 17.4501953125 60.974609375 21.650390625 c 0,84,85
 64.125 21.650390625 64.125 21.650390625 66.224609375 22.7001953125 c 0,86,87
 64.125 34.25 64.125 34.25 69.375 43.7001953125 c 1,88,-1
 69.375 45.7998046875 l 2,89,90
 69.375 67.849609375 69.375 67.849609375 68.3251953125 85.7001953125 c 0,91,92
 68.3251953125 99.349609375 68.3251953125 99.349609375 67.275390625 106.700195312 c 2,93,-1
 67.275390625 118.25 l 2,94,95
 67.275390625 126.650390625 67.275390625 126.650390625 66.224609375 128.75 c 2,96,-1
 66.224609375 142.400390625 l 1,97,98
 59.9248046875 398.599609375 59.9248046875 398.599609375 68.3251953125 629.599609375 c 1,99,-1
 52.5751953125 613.849609375 l 2,100,101
 44.1748046875 603.349609375 44.1748046875 603.349609375 30 602.299804688 c 128,-1,102
 15.8251953125 601.25 15.8251953125 601.25 5.3251953125 610.700195312 c 0,103,104
 -5.1748046875 619.099609375 -5.1748046875 619.099609375 -6.224609375 633.275390625 c 128,-1,105
 -7.275390625 647.450195312 -7.275390625 647.450195312 1.125 657.950195312 c 0,48,49
EndSplineSet
EndUndoOperation
EndUndoes
Redoes
EndRedoes
EndUndoRedoHistory
Fore
SplineSet
414 509 m 1,0,1
 442 534 442 534 447 557 c 0,2,3
 449 566 449 566 448 575 c 0,4,5
 444 607 444 607 406 631 c 0,6,7
 372 650 372 650 329 650 c 0,8,9
 316 650 316 650 313 649 c 0,10,11
 282 540 282 540 255 423 c 1,12,13
 263 426 263 426 269.5 428.5 c 128,-1,14
 276 431 276 431 280 431 c 0,15,16
 303 439 303 439 331 450 c 0,17,18
 360 462 360 462 378 476.5 c 128,-1,19
 396 491 396 491 414 509 c 1,0,1
358 108 m 0,20,21
 390 134 390 134 397 167 c 0,22,23
 406 204 406 204 380 245 c 0,24,25
 352 285 352 285 307 303 c 0,26,27
 279 314 279 314 253 313 c 0,28,29
 241 313 241 313 229 311 c 1,30,31
 203 198 203 198 186 111 c 0,32,33
 185 103 185 103 182 88 c 0,34,35
 180 74 180 74 176 56 c 1,36,37
 183 57 183 57 190 59 c 0,38,39
 213 64 213 64 218 64 c 0,40,41
 324 82 324 82 358 108 c 0,20,21
96 151 m 1,42,43
 143 378 143 378 198 585 c 1,44,45
 186 579 186 579 171 578.5 c 128,-1,46
 156 578 156 578 146 590 c 0,47,48
 133 603 133 603 139 626 c 0,49,50
 143 643 143 643 156 656 c 0,51,52
 229 723 229 723 318 731 c 0,53,54
 344 733 344 733 348.5 733 c 128,-1,55
 353 733 353 733 353 733 c 0,56,57
 419 733 419 733 472 704 c 0,58,59
 536 664 536 664 543 598 c 0,60,61
 545 574 545 574 539 550 c 0,62,63
 527 496 527 496 477 445 c 0,64,65
 449 417 449 417 434 405 c 0,66,67
 413 390 413 390 394 380 c 1,68,69
 439 355 439 355 465 313 c 0,70,71
 507 246 507 246 490.5 174.5 c 128,-1,72
 474 103 474 103 408 50 c 0,73,74
 376 24 376 24 319 5 c 0,75,76
 286 -5 286 -5 215 -18 c 1,77,-1
 214 -18 l 2,78,79
 212 -18 212 -18 208 -19 c 0,80,81
 169 -26 169 -26 164 -27 c 0,82,83
 103 -38 103 -38 86 -43 c 0,84,85
 66 -50 66 -50 51 -41 c 128,-1,86
 36 -32 36 -32 35 -12 c 0,87,88
 33 8 33 8 44.5 24 c 128,-1,89
 56 40 56 40 72 46 c 1,90,91
 74 53 74 53 78 59 c 0,92,93
 79 62 79 62 84 85 c 128,-1,94
 89 108 89 108 89 115 c 1,95,96
 91 125 91 125 90 117 c 1,97,98
 93 132 93 132 92 128 c 2,99,100
 93 131 93 131 93 133 c 2,101,102
 95 143 95 143 93 134 c 1,103,104
 95 144 95 144 94 138 c 1,105,106
 96 153 96 153 96 151 c 1,42,43
EndSplineSet
EndChar

StartChar: C
Encoding: 67 67 38
AltUni2: 000421.ffffffff.0 0013df.ffffffff.0 002102.ffffffff.0 00212d.ffffffff.0 00216d.ffffffff.0 00a7f2.ffffffff.0 00ff23.ffffffff.0 000421.ffffffff.0 0013df.ffffffff.0 002102.ffffffff.0 00212d.ffffffff.0 00216d.ffffffff.0 00a7f2.ffffffff.0 00ff23.ffffffff.0
Width: 520
GlyphClass: 1
Flags: W
LayerCount: 2
UndoRedoHistory
Layer: 1
Undoes
UndoOperation
Index: 0
Type: 3
WasModified: 0
WasOrder2: 1
Layer: 2
EndUndoOperation
UndoOperation
Index: 1
Type: 1
WasModified: 1
WasOrder2: 1
Layer: 2
Width: 501
VWidth: 1000
LBearingChange: 0
UnicodeEnc: 0
InstructionsLength: 0
SplineSet
427 651 m 0,0,1
 420 670 420 670 409 683 c 0,2,3
 403 689 403 689 396 691 c 0,4,5
 381 695 381 695 357 674 c 0,6,7
 292 623 292 623 224 478 c 0,8,9
 157 338 157 338 134 211 c 0,10,11
 124 154 124 154 129 113 c 0,12,13
 135 83 135 83 146 78 c 0,14,15
 190 57 190 57 262 67 c 0,16,17
 293 71 293 71 343 85 c 0,18,19
 344 85 344 85 346 85.5 c 128,-1,20
 348 86 348 86 349 86 c 0,21,22
 350 87 350 87 353 87 c 0,23,24
 354 88 354 88 356 88 c 0,25,26
 362 90 362 90 370 92 c 0,27,28
 385 95 385 95 397 98 c 0,29,30
 410 101 410 101 421.5 94 c 128,-1,31
 433 87 433 87 436 74 c 128,-1,32
 439 61 439 61 432 49.5 c 128,-1,33
 425 38 425 38 411 35 c 0,34,35
 399 32 399 32 386 29 c 0,36,37
 378 27 378 27 373 25 c 0,38,39
 371 25 371 25 369 24 c 0,40,41
 367 24 367 24 366 23 c 0,42,43
 364 23 364 23 362 22.5 c 128,-1,44
 360 22 360 22 359 22 c 0,45,46
 310 9 310 9 272 3 c 0,47,48
 180 -11 180 -11 117 20 c 0,49,50
 75 40 75 40 65 103 c 0,51,52
 58 151 58 151 70 222 c 0,53,54
 93 357 93 357 165 506 c 0,55,56
 239 663 239 663 316 725 c 0,57,58
 366 765 366 765 411 755 c 0,59,60
 460 743 460 743 488 675 c 0,61,62
 493 663 493 663 487.5 650.5 c 128,-1,63
 482 638 482 638 470 633 c 0,64,65
 457 628 457 628 444.5 633 c 128,-1,66
 432 638 432 638 427 651 c 0,0,1
EndSplineSet
EndUndoOperation
EndUndoes
Redoes
EndRedoes
EndUndoRedoHistory
Fore
SplineSet
83 103 m 0,0,1
 84 120 84 120 91 149 c 0,2,3
 98 180 98 180 116 227 c 0,4,5
 168 360 168 360 270 506 c 0,6,7
 384 662 384 662 483 725 c 0,8,9
 537 757 537 757 581 757 c 0,10,11
 592 757 592 757 600 755 c 0,12,13
 650 743 650 743 663 675 c 0,14,15
 665 669 665 669 664 663 c 0,16,17
 661 651 661 651 654 638 c 0,18,19
 641 614 641 614 622 605 c 0,20,21
 613 601 613 601 604.5 600.5 c 128,-1,22
 596 600 596 600 589 605 c 0,23,24
 574 615 574 615 572 641 c 0,25,26
 569 654 569 654 564 662 c 0,27,28
 560 662 560 662 557 662 c 0,29,30
 549 662 549 662 529 651 c 1,31,32
 452 605 452 605 351 472 c 0,33,34
 249 335 249 335 200 211 c 0,35,36
 185 173 185 173 178 142 c 0,37,38
 175 129 175 129 174 118 c 0,39,40
 175 107 175 107 179 105 c 0,41,42
 203 94 203 94 244 94 c 0,43,44
 264 94 264 94 289 97 c 2,45,46
 294 119 294 119 289 97 c 2,47,48
 322 101 322 101 379 115 c 1,49,-1
 380 115 l 2,50,51
 381 115 381 115 383 115 c 0,52,53
 385 117 385 117 388 117 c 0,54,55
 393 118 393 118 407 121 c 0,56,57
 420 123 420 123 432 126 c 0,58,59
 442 129 442 129 447 129 c 0,60,61
 459 129 459 129 467 120 c 0,62,63
 480 106 480 106 478 81 c 0,64,65
 478 74 478 74 476 66 c 0,66,67
 474 57 474 57 466 50 c 0,68,69
 454 39 454 39 434 35 c 0,70,71
 422 32 422 32 412 30 c 0,72,73
 402 28 402 28 395 25 c 1,74,-1
 393 25 l 1,75,76
 411 105 411 105 392 23 c 1,77,78
 391 24 391 24 390 23 c 1,79,-1
 384 23 l 2,80,81
 381 22 381 22 379 22 c 0,82,83
 280 -1 280 -1 218 -1 c 0,84,85
 158 -1 158 -1 120 20 c 0,86,87
 79 41 79 41 83 103 c 0,0,1
EndSplineSet
EndChar

StartChar: D
Encoding: 68 68 39
AltUni2: 0013a0.ffffffff.0 001d30.ffffffff.0 002145.ffffffff.0 00216e.ffffffff.0 00ff24.ffffffff.0 0013a0.ffffffff.0 001d30.ffffffff.0 002145.ffffffff.0 00216e.ffffffff.0 00ff24.ffffffff.0
Width: 612
GlyphClass: 1
Flags: W
LayerCount: 2
UndoRedoHistory
Layer: 1
Undoes
UndoOperation
Index: 0
Type: 3
WasModified: 0
WasOrder2: 1
Layer: 2
EndUndoOperation
UndoOperation
Index: 1
Type: 1
WasModified: 1
WasOrder2: 1
Layer: 2
Width: 598
VWidth: 1000
LBearingChange: 0
UnicodeEnc: 0
InstructionsLength: 0
SplineSet
187.099609375 672.525390625 m 1,0,1
 159.799804688 521.325195312 159.799804688 521.325195312 137.75 300.825195312 c 0,2,3
 125.150390625 165.375 125.150390625 165.375 126.200195312 86.625 c 0,4,5
 126.200195312 46.724609375 126.200195312 46.724609375 131.450195312 20.474609375 c 1,6,7
 280.549804688 87.6748046875 280.549804688 87.6748046875 350.900390625 165.375 c 0,8,9
 398.150390625 215.775390625 398.150390625 215.775390625 433.849609375 276.674804688 c 0,10,11
 479 350.174804688 479 350.174804688 496.849609375 416.325195312 c 0,12,13
 517.849609375 490.875 517.849609375 490.875 500 548.625 c 0,14,15
 481.099609375 612.674804688 481.099609375 612.674804688 411.799804688 652.575195312 c 0,16,17
 384.5 669.375 384.5 669.375 318.349609375 676.724609375 c 128,-1,18
 252.200195312 684.075195312 252.200195312 684.075195312 187.099609375 677.775390625 c 1,19,-1
 187.099609375 672.525390625 l 1,0,1
9.650390625 595.875 m 0,20,21
 -5.0498046875 630.525390625 -5.0498046875 630.525390625 4.400390625 659.400390625 c 128,-1,22
 13.849609375 688.275390625 13.849609375 688.275390625 46.400390625 708.224609375 c 0,23,24
 94.7001953125 736.575195312 94.7001953125 736.575195312 175.549804688 744.974609375 c 0,25,26
 252.200195312 753.375 252.200195312 753.375 329.375 743.924804688 c 128,-1,27
 406.549804688 734.474609375 406.549804688 734.474609375 446.450195312 711.375 c 0,28,29
 537.799804688 657.825195312 537.799804688 657.825195312 565.099609375 568.575195312 c 0,30,31
 588.200195312 494.025390625 588.200195312 494.025390625 563 398.474609375 c 0,32,33
 544.099609375 326.025390625 544.099609375 326.025390625 492.650390625 240.974609375 c 0,34,35
 448.549804688 168.525390625 448.549804688 168.525390625 401.299804688 119.174804688 c 0,36,37
 313.099609375 22.5751953125 313.099609375 22.5751953125 139.849609375 -49.875 c 1,38,39
 129.349609375 -62.474609375 129.349609375 -62.474609375 114.650390625 -60.375 c 1,40,41
 61.099609375 -82.4248046875 61.099609375 -82.4248046875 14.900390625 -93.974609375 c 0,42,43
 1.25 -98.1748046875 1.25 -98.1748046875 -11.349609375 -90.8251953125 c 128,-1,44
 -23.9501953125 -83.474609375 -23.9501953125 -83.474609375 -27.099609375 -69.8251953125 c 0,45,46
 -31.2998046875 -56.1748046875 -31.2998046875 -56.1748046875 -23.9501953125 -44.099609375 c 128,-1,47
 -16.599609375 -32.025390625 -16.599609375 -32.025390625 -2.9501953125 -27.8251953125 c 0,48,49
 29.599609375 -19.4248046875 29.599609375 -19.4248046875 67.400390625 -5.775390625 c 1,50,-1
 64.25 3.6748046875 l 1,51,52
 59 37.275390625 59 37.275390625 57.9501953125 85.5751953125 c 0,53,54
 55.849609375 172.724609375 55.849609375 172.724609375 70.5498046875 307.125 c 0,55,56
 88.400390625 488.775390625 88.400390625 488.775390625 115.700195312 664.125 c 1,57,58
 94.7001953125 657.825195312 94.7001953125 657.825195312 83.150390625 650.474609375 c 0,59,60
 70.5498046875 643.125 70.5498046875 643.125 69.5 636.825195312 c 0,61,62
 67.400390625 632.625 67.400390625 632.625 71.599609375 624.224609375 c 0,63,64
 76.849609375 611.625 76.849609375 611.625 72.125 598.5 c 128,-1,65
 67.400390625 585.375 67.400390625 585.375 54.7998046875 579.075195312 c 0,66,67
 42.2001953125 573.825195312 42.2001953125 573.825195312 28.5498046875 578.549804688 c 128,-1,68
 14.900390625 583.275390625 14.900390625 583.275390625 9.650390625 595.875 c 0,20,21
EndSplineSet
EndUndoOperation
EndUndoes
Redoes
EndRedoes
EndUndoRedoHistory
Fore
SplineSet
588 420 m 0,0,1
 607 459 607 459 614 490 c 0,2,3
 620 517 620 517 619 540 c 0,4,5
 615 593 615 593 558 627 c 0,6,7
 535 641 535 641 475 647 c 0,8,9
 441 651 441 651 412.5 651 c 128,-1,10
 384 651 384 651 360 649 c 1,11,12
 300 506 300 506 231 299 c 0,13,14
 191 175 191 175 173 99 c 0,15,16
 172 93 172 93 171 87 c 2,17,-1
 170 87 l 2,18,19
 166 70 166 70 165 56 c 1,20,21
 312 117 312 117 392 186 c 1,22,23
 449 231 449 231 496 284 c 2,24,-1
 496 285 l 2,25,26
 557 356 557 356 588 420 c 0,0,1
64 18 m 1,27,28
 67 55 67 55 82 118 c 0,29,30
 99 190 99 190 138 309 c 0,31,32
 191 471 191 471 251 628 c 1,33,34
 241 625 241 625 237 622 c 0,35,36
 237 622 237 622 239 620 c 0,37,38
 241 617 241 617 240 611 c 0,39,40
 237 599 237 599 231 588 c 0,41,42
 219 563 219 563 199 552 c 0,43,44
 189 547 189 547 180 546.5 c 128,-1,45
 171 546 171 546 164 550 c 0,46,47
 148 559 148 559 146 584 c 0,48,49
 143 611 143 611 148 636 c 0,50,51
 151 648 151 648 158 659 c 0,52,53
 175 689 175 689 214 708 c 0,54,55
 269 736 269 736 355 745 c 0,56,57
 393 749 393 749 432.5 749 c 128,-1,58
 472 749 472 749 512 744 c 0,59,60
 590 735 590 735 628 711 c 0,61,62
 707 658 707 658 713 569 c 0,63,64
 716 533 716 533 705 491 c 0,65,66
 679 379 679 379 568 241 c 0,67,68
 509 169 509 169 449 119 c 0,69,70
 337 23 337 23 147 -49 c 1,71,72
 132 -61 132 -61 115 -61 c 0,73,74
 113 -61 113 -61 112 -61 c 0,75,76
 55 -83 55 -83 10 -94 c 0,77,78
 -9 -98 -9 -98 -24 -91 c 0,79,80
 -39 -84 -39 -84 -40 -69 c 0,81,82
 -41 -64 -41 -64 -40 -60 c 0,83,84
 -36 -43 -36 -43 -26 -29 c 0,85,86
 -11 -6 -11 -6 9 1 c 0,87,88
 34 8 34 8 64 18 c 1,27,28
EndSplineSet
EndChar

StartChar: E
Encoding: 69 69 40
AltUni2: 000395.ffffffff.0 000415.ffffffff.0 0013ac.ffffffff.0 001d31.ffffffff.0 002130.ffffffff.0 00ff25.ffffffff.0 000395.ffffffff.0 000415.ffffffff.0 0013ac.ffffffff.0 001d31.ffffffff.0 002130.ffffffff.0 00ff25.ffffffff.0
Width: 525
GlyphClass: 1
Flags: W
LayerCount: 2
UndoRedoHistory
Layer: 1
Undoes
UndoOperation
Index: 0
Type: 3
WasModified: 0
WasOrder2: 1
Layer: 2
EndUndoOperation
UndoOperation
Index: 1
Type: 1
WasModified: 1
WasOrder2: 1
Layer: 2
Width: 505
VWidth: 1000
LBearingChange: 0
UnicodeEnc: 0
InstructionsLength: 0
SplineSet
224.349609375 643.200195312 m 4,0,1
 191.799804688 578.099609375 191.799804688 578.099609375 159.25 463.650390625 c 4,2,3
 149.799804688 431.099609375 149.799804688 431.099609375 147.700195312 420.599609375 c 5,4,5
 225.400390625 461.549804688 225.400390625 461.549804688 327.25 481.5 c 4,6,7
 340.900390625 483.599609375 340.900390625 483.599609375 352.450195312 475.724609375 c 132,-1,8
 364 467.849609375 364 467.849609375 367.150390625 454.200195312 c 132,-1,9
 370.299804688 440.549804688 370.299804688 440.549804688 362.424804688 429 c 132,-1,10
 354.549804688 417.450195312 354.549804688 417.450195312 339.849609375 414.299804688 c 4,11,12
 210.700195312 388.049804688 210.700195312 388.049804688 127.75 327.150390625 c 5,13,14
 118.299804688 266.25 118.299804688 266.25 117.25 228.450195312 c 4,15,16
 112 109.799804688 112 109.799804688 154 58.349609375 c 4,17,18
 175 32.099609375 175 32.099609375 209.650390625 24.75 c 4,19,20
 252.700195312 16.349609375 252.700195312 16.349609375 313.599609375 33.150390625 c 4,21,22
 327.25 36.2998046875 327.25 36.2998046875 339.325195312 29.474609375 c 132,-1,23
 351.400390625 22.650390625 351.400390625 22.650390625 355.599609375 9 c 4,24,25
 358.75 -5.7001953125 358.75 -5.7001953125 351.924804688 -17.775390625 c 132,-1,26
 345.099609375 -29.849609375 345.099609375 -29.849609375 331.450195312 -33 c 4,27,28
 175 -73.9501953125 175 -73.9501953125 101.5 15.2998046875 c 4,29,30
 42.7001953125 86.7001953125 42.7001953125 86.7001953125 49 231.599609375 c 4,31,32
 49 243.150390625 49 243.150390625 51.099609375 268.349609375 c 5,33,34
 33.25 265.200195312 33.25 265.200195312 21.7001953125 277.799804688 c 4,35,36
 11.2001953125 288.299804688 11.2001953125 288.299804688 11.2001953125 302.474609375 c 132,-1,37
 11.2001953125 316.650390625 11.2001953125 316.650390625 21.7001953125 326.099609375 c 4,38,39
 37.4501953125 341.849609375 37.4501953125 341.849609375 64.75 364.950195312 c 5,40,41
 75.25 421.650390625 75.25 421.650390625 93.099609375 482.549804688 c 4,42,43
 96.25 493.049804688 96.25 493.049804688 102.025390625 512.474609375 c 132,-1,44
 107.799804688 531.900390625 107.799804688 531.900390625 109.900390625 538.200195312 c 5,45,46
 83.650390625 547.650390625 83.650390625 547.650390625 86.7998046875 574.950195312 c 4,47,48
 94.150390625 632.700195312 94.150390625 632.700195312 146.650390625 676.799804688 c 4,49,50
 188.650390625 710.400390625 188.650390625 710.400390625 253.75 730.349609375 c 4,51,52
 347.200195312 761.849609375 347.200195312 761.849609375 471.099609375 765 c 4,53,54
 484.75 766.049804688 484.75 766.049804688 495.25 756.599609375 c 132,-1,55
 505.75 747.150390625 505.75 747.150390625 506.799804688 732.450195312 c 4,56,57
 506.799804688 717.75 506.799804688 717.75 496.825195312 707.775390625 c 132,-1,58
 486.849609375 697.799804688 486.849609375 697.799804688 473.200195312 696.75 c 4,59,60
 364 694.650390625 364 694.650390625 274.75 666.299804688 c 4,61,62
 246.400390625 656.849609375 246.400390625 656.849609375 225.400390625 646.349609375 c 4,63,64
 225.400390625 645.299804688 225.400390625 645.299804688 224.349609375 643.200195312 c 4,0,1
EndSplineSet
EndUndoOperation
EndUndoes
Redoes
EndRedoes
EndUndoRedoHistory
Fore
SplineSet
211.5 507 m 128,-1,1
 217 518 217 518 220 524 c 1,2,3
 204 537 204 537 210 561 c 0,4,5
 211 565 211 565 212 568 c 0,6,7
 234 629 234 629 299 675 c 0,8,9
 351 709 351 709 427 730 c 0,10,11
 532 762 532 762 656 765 c 0,12,13
 658 765 658 765 659 765 c 0,14,15
 676 765 676 765 686 752 c 0,16,17
 697 740 697 740 693 720 c 1,18,19
 690 707 690 707 693 719 c 2,20,21
 688 699 688 699 672 686 c 0,22,23
 655 672 655 672 637 671 c 0,24,25
 534 669 534 669 438 643 c 0,26,27
 412 635 412 635 391 628 c 1,28,29
 344 566 344 566 281 448 c 1,30,31
 359 479 359 479 451 496 c 0,32,33
 456 497 456 497 459 497 c 0,34,35
 474 497 474 497 486 488 c 0,36,37
 500 477 500 477 501 459 c 0,38,39
 501 454 501 454 500 448 c 0,40,41
 497 435 497 435 485 423 c 0,42,43
 470 407 470 407 448 403 c 0,44,45
 317 379 317 379 223 325 c 1,46,47
 202 271 202 271 193 237 c 2,48,49
 195 246 195 246 193 237 c 2,50,51
 190 225 190 225 187 213 c 0,52,53
 166 123 166 123 192 82 c 0,54,55
 205 60 205 60 233 54 c 0,56,57
 246 52 246 52 261 52 c 0,58,59
 292 52 292 52 335 63 c 0,60,61
 342 65 342 65 348 64 c 0,62,63
 361 64 361 64 372 58 c 0,64,65
 388 48 388 48 389 27 c 0,66,67
 389 21 389 21 388 15 c 0,68,69
 385 2 385 2 375 -10 c 0,70,71
 361 -28 361 -28 339 -33 c 0,72,73
 261 -46 261 -46 241 -46 c 0,74,75
 240 -46 240 -46 240 -46 c 0,76,77
 141 -46 141 -46 101 19 c 0,78,79
 64 84 64 84 93 209 c 0,80,81
 99 235 99 235 106 257 c 1,82,83
 94 260 94 260 86 270 c 0,84,85
 76 284 76 284 80.5 304 c 128,-1,86
 85 324 85 324 102 337 c 0,87,88
 119 351 119 351 147 372 c 1,89,90
 170 428 170 428 202 489 c 0,91,0
 206 496 206 496 211.5 507 c 128,-1,1
EndSplineSet
EndChar

StartChar: F
Encoding: 70 70 41
AltUni2: 002131.ffffffff.0 00a7f3.ffffffff.0 00ff26.ffffffff.0 002131.ffffffff.0 00a7f3.ffffffff.0 00ff26.ffffffff.0
Width: 548
GlyphClass: 1
Flags: W
LayerCount: 2
UndoRedoHistory
Layer: 1
Undoes
UndoOperation
Index: 0
Type: 3
WasModified: 0
WasOrder2: 1
Layer: 2
EndUndoOperation
UndoOperation
Index: 1
Type: 1
WasModified: 1
WasOrder2: 1
Layer: 2
Width: 531
VWidth: 1000
LBearingChange: 0
UnicodeEnc: 0
InstructionsLength: 0
SplineSet
100.799804688 672.474609375 m 4,0,1
 103.950195312 673.525390625 103.950195312 673.525390625 108.150390625 675.625 c 4,2,3
 182.700195312 701.875 182.700195312 701.875 287.700195312 727.075195312 c 4,4,5
 362.25 744.924804688 362.25 744.924804688 414.75 748.075195312 c 4,6,7
 486.150390625 753.325195312 486.150390625 753.325195312 516.599609375 732.325195312 c 4,8,9
 528.150390625 724.974609375 528.150390625 724.974609375 531.299804688 710.799804688 c 132,-1,10
 534.450195312 696.625 534.450195312 696.625 527.099609375 685.075195312 c 4,11,12
 518.700195312 673.525390625 518.700195312 673.525390625 505.049804688 670.375 c 132,-1,13
 491.400390625 667.224609375 491.400390625 667.224609375 479.849609375 675.625 c 4,14,15
 478.799804688 676.674804688 478.799804688 676.674804688 477.75 676.674804688 c 4,16,17
 475.650390625 677.724609375 475.650390625 677.724609375 474.599609375 677.724609375 c 4,18,19
 468.299804688 679.825195312 468.299804688 679.825195312 462 679.825195312 c 4,20,21
 445.200195312 680.875 445.200195312 680.875 420 679.825195312 c 4,22,23
 380.099609375 677.724609375 380.099609375 677.724609375 302.400390625 660.924804688 c 4,24,25
 215.25 639.924804688 215.25 639.924804688 149.099609375 616.825195312 c 5,26,27
 148.049804688 610.525390625 148.049804688 610.525390625 147.525390625 602.125 c 132,-1,28
 147 593.724609375 147 593.724609375 145.950195312 581.650390625 c 132,-1,29
 144.900390625 569.575195312 144.900390625 569.575195312 143.849609375 561.174804688 c 4,30,31
 137.549804688 489.775390625 137.549804688 489.775390625 135.450195312 467.724609375 c 4,32,33
 133.349609375 440.424804688 133.349609375 440.424804688 129.150390625 392.125 c 5,34,35
 232.049804688 437.275390625 232.049804688 437.275390625 389.549804688 437.275390625 c 4,36,37
 403.200195312 437.275390625 403.200195312 437.275390625 413.174804688 427.299804688 c 132,-1,38
 423.150390625 417.325195312 423.150390625 417.325195312 423.150390625 402.625 c 132,-1,39
 423.150390625 387.924804688 423.150390625 387.924804688 413.174804688 378.474609375 c 132,-1,40
 403.200195312 369.025390625 403.200195312 369.025390625 389.549804688 369.025390625 c 4,41,42
 215.25 369.025390625 215.25 369.025390625 123.900390625 313.375 c 5,43,44
 109.200195312 76.0751953125 109.200195312 76.0751953125 133.349609375 -11.0751953125 c 4,45,46
 136.5 -24.724609375 136.5 -24.724609375 129.674804688 -36.7998046875 c 132,-1,47
 122.849609375 -48.875 122.849609375 -48.875 109.200195312 -53.0751953125 c 132,-1,48
 95.5498046875 -57.275390625 95.5498046875 -57.275390625 83.474609375 -49.9248046875 c 132,-1,49
 71.400390625 -42.5751953125 71.400390625 -42.5751953125 67.2001953125 -28.9248046875 c 4,50,51
 38.849609375 72.9248046875 38.849609375 72.9248046875 56.7001953125 325.974609375 c 4,52,53
 57.75 342.775390625 57.75 342.775390625 67.2001953125 474.025390625 c 6,54,-1
 75.599609375 567.474609375 l 6,55,56
 77.7001953125 590.575195312 77.7001953125 590.575195312 78.75 600.025390625 c 5,57,58
 67.2001953125 604.224609375 67.2001953125 604.224609375 59.849609375 618.924804688 c 4,59,60
 54.599609375 631.525390625 54.599609375 631.525390625 59.849609375 644.650390625 c 132,-1,61
 65.099609375 657.775390625 65.099609375 657.775390625 77.7001953125 664.075195312 c 4,62,63
 84 666.174804688 84 666.174804688 100.799804688 672.474609375 c 4,0,1
EndSplineSet
EndUndoOperation
EndUndoes
Redoes
EndRedoes
EndUndoRedoHistory
Fore
SplineSet
710 699 m 0,0,1
 710 693 710 693 709 688 c 0,2,3
 706 673 706 673 695 661 c 0,4,5
 680 645 680 645 662 641 c 0,6,7
 657 640 657 640 651 640 c 0,8,9
 638 640 638 640 629 648 c 1,10,11
 624 650 624 650 621 650 c 0,12,13
 605 651 605 651 599.5 650.5 c 128,-1,14
 594 650 594 650 581 650 c 0,15,16
 541 648 541 648 459 633 c 0,17,18
 372 615 372 615 303 595 c 0,19,20
 302 593 302 593 300 588 c 0,21,22
 294 569 294 569 288 552 c 0,23,24
 270 497 270 497 245 415 c 1,25,26
 356 452 356 452 504 452 c 0,27,28
 525 452 525 452 536 438 c 0,29,30
 546 424 546 424 541 402.5 c 128,-1,31
 536 381 536 381 519 368 c 0,32,33
 501 354 501 354 481 354 c 0,34,35
 312 354 312 354 212 307 c 1,36,37
 182 196 182 196 175 164 c 0,38,39
 151 58 151 58 152 8 c 0,40,41
 152 2 152 2 151 -5 c 0,42,43
 148 -18 148 -18 139 -29 c 0,44,45
 126 -46 126 -46 107 -52 c 0,46,47
 100 -54 100 -54 90.5 -54.5 c 128,-1,48
 81 -55 81 -55 72 -48 c 0,49,50
 58 -37 58 -37 58 -18 c 0,51,52
 56 44 56 44 82 161 c 0,53,54
 99 234 99 234 128 328 c 2,55,56
 149 398 149 398 170 471 c 1,57,58
 202 573 202 573 206 583 c 1,59,60
 198 590 198 590 195 603 c 0,61,62
 193 612 193 612 195.5 621 c 128,-1,63
 198 630 198 630 203 639 c 0,64,65
 214 657 214 657 234 665 c 1,66,67
 247 658 247 658 265 677 c 1,68,69
 343 702 343 702 458 727 c 0,70,71
 560 749 560 749 625 749 c 0,72,73
 676 749 676 749 697 730 c 0,74,75
 710 719 710 719 710 699 c 0,0,1
127 327 m 1,76,-1
 127 327 l 1,76,-1
EndSplineSet
EndChar

StartChar: G
Encoding: 71 71 42
AltUni2: 0013c0.ffffffff.0 001d33.ffffffff.0 00ff27.ffffffff.0 0013c0.ffffffff.0 001d33.ffffffff.0 00ff27.ffffffff.0
Width: 499
GlyphClass: 1
Flags: W
LayerCount: 2
UndoRedoHistory
Layer: 1
Undoes
UndoOperation
Index: 0
Type: 3
WasModified: 1
WasOrder2: 1
Layer: 2
EndUndoOperation
UndoOperation
Index: 1
Type: 1
WasModified: 1
WasOrder2: 1
Layer: 2
Width: 478
VWidth: 1000
LBearingChange: 0
UnicodeEnc: 0
InstructionsLength: 0
SplineSet
309 337 m 0,0,1
 372 363 372 363 407 360 c 0,2,3
 458 355 458 355 465 300 c 0,4,5
 469 270 469 270 454 203 c 0,6,7
 450 185 450 185 438 137 c 2,8,-1
 418 57 l 2,9,10
 415 44 415 44 403.5 37 c 128,-1,11
 392 30 392 30 379 33 c 0,12,13
 377 33 377 33 373 35 c 1,14,15
 365 29 365 29 361 27 c 0,16,17
 338 13 338 13 315 5 c 0,18,19
 259 -13 259 -13 203 10 c 0,20,21
 30 82 30 82 39 254 c 0,22,23
 46 383 46 383 157 543 c 0,24,25
 250 676 250 676 345 749 c 0,26,27
 393 786 393 786 424 786 c 0,28,29
 459 786 459 786 466 751 c 0,30,31
 470 734 470 734 460 705 c 0,32,33
 455 693 455 693 443 687.5 c 128,-1,34
 431 682 431 682 418 686 c 0,35,36
 403 692 403 692 398 707 c 1,37,38
 397 706 397 706 392 702.5 c 128,-1,39
 387 699 387 699 384 697 c 0,40,41
 296 629 296 629 210 506 c 0,42,43
 110 360 110 360 104 251 c 0,44,45
 98 124 98 124 228 70 c 0,46,47
 263 56 263 56 294 67 c 0,48,49
 317 74 317 74 364 107 c 1,50,51
 366 115 366 115 369 127 c 128,-1,52
 372 139 372 139 373.5 145.5 c 128,-1,53
 375 152 375 152 375 153 c 0,54,55
 385 192 385 192 391 217 c 0,56,57
 403 272 403 272 401 292 c 0,58,59
 400 293 400 293 400 295 c 0,60,61
 384 296 384 296 333 277 c 0,62,63
 320 272 320 272 308 277.5 c 128,-1,64
 296 283 296 283 291 295 c 0,65,66
 286 308 286 308 291 320.5 c 128,-1,67
 296 333 296 333 309 337 c 0,0,1
EndSplineSet
EndUndoOperation
EndUndoes
Redoes
EndRedoes
EndUndoRedoHistory
Fore
SplineSet
432 38 m 0,0,1
 420 31 420 31 408 31 c 0,2,3
 405 31 405 31 398 32 c 0,4,5
 394 29 394 29 390 28 c 0,6,7
 328 -3 328 -3 275 -3 c 0,8,9
 239 -3 239 -3 206 11 c 0,10,11
 54 80 54 80 91 243 c 0,12,13
 122 377 122 377 274 545 c 0,14,15
 404 675 404 675 522 746 c 0,16,17
 583 786 583 786 617 786 c 0,18,19
 636 786 636 786 646 776 c 0,20,21
 659 764 659 764 659 739 c 0,22,23
 659 733 659 733 657 725 c 0,24,25
 653 707 653 707 640 686 c 0,26,27
 629 669 629 669 612 662 c 0,28,29
 602 658 602 658 593 657 c 0,30,31
 572 657 572 657 562 673 c 1,32,33
 459 609 459 609 344 493 c 0,34,35
 211 353 211 353 182 250 c 0,36,37
 181 245 181 245 179 240 c 0,38,39
 154 132 154 132 261 84 c 0,40,41
 284 78 284 78 295 77 c 0,42,43
 305 77 305 77 320 81 c 0,44,45
 342 87 342 87 393 116 c 1,46,47
 409 148 409 148 411 154 c 1,48,-1
 411 155 l 1,49,50
 430 196 430 196 442 220 c 0,51,52
 458 257 458 257 464 278 c 1,53,54
 445 274 445 274 413 263 c 0,55,56
 398 260 398 260 396 260 c 128,-1,57
 394 260 394 260 394 260 c 0,58,59
 384 260 384 260 375 264 c 0,60,61
 358 272 358 272 355 290 c 0,62,63
 353 299 353 299 355 308 c 128,-1,64
 357 317 357 317 363 326 c 0,65,66
 375 345 375 345 397 351 c 0,67,68
 483 375 483 375 498 375 c 0,69,70
 503 375 503 375 507 375 c 2,71,72
 507 375 507 375 508 375 c 2,73,74
 539 372 539 372 551 349 c 0,75,76
 564 326 564 326 555 289 c 0,77,78
 548 259 548 259 525 206 c 0,79,80
 517 189 517 189 459 66 c 0,81,82
 450 48 450 48 432 38 c 0,0,1
EndSplineSet
EndChar

StartChar: H
Encoding: 72 72 43
AltUni2: 000397.ffffffff.0 00041d.ffffffff.0 0013bb.ffffffff.0 001d34.ffffffff.0 00210b.ffffffff.0 00210c.ffffffff.0 00210d.ffffffff.0 00ff28.ffffffff.0 000397.ffffffff.0 00041d.ffffffff.0 0013bb.ffffffff.0 001d34.ffffffff.0 00210b.ffffffff.0 00210c.ffffffff.0 00210d.ffffffff.0 00ff28.ffffffff.0
Width: 498
GlyphClass: 1
Flags: W
LayerCount: 2
UndoRedoHistory
Layer: 1
Undoes
UndoOperation
Index: 0
Type: 3
WasModified: 1
WasOrder2: 1
Layer: 2
EndUndoOperation
UndoOperation
Index: 1
Type: 1
WasModified: 1
WasOrder2: 1
Layer: 2
Width: 477
VWidth: 1000
LBearingChange: 0
UnicodeEnc: 0
InstructionsLength: 0
SplineSet
468.549804688 696.775390625 m 0,0,1
 410.799804688 503.575195312 410.799804688 503.575195312 395.049804688 362.875 c 0,2,3
 374.049804688 173.875 374.049804688 173.875 417.099609375 34.224609375 c 0,4,5
 421.299804688 20.5751953125 421.299804688 20.5751953125 414.474609375 8.5 c 128,-1,6
 407.650390625 -3.5751953125 407.650390625 -3.5751953125 394 -7.775390625 c 128,-1,7
 380.349609375 -11.974609375 380.349609375 -11.974609375 368.275390625 -5.6748046875 c 128,-1,8
 356.200195312 0.625 356.200195312 0.625 350.950195312 14.275390625 c 0,9,10
 310 151.825195312 310 151.825195312 322.599609375 318.775390625 c 1,11,12
 250.150390625 301.974609375 250.150390625 301.974609375 242.799804688 299.875 c 0,13,14
 181.900390625 285.174804688 181.900390625 285.174804688 142 267.325195312 c 0,15,16
 121 258.924804688 121 258.924804688 95.7998046875 243.174804688 c 1,17,18
 92.650390625 185.424804688 92.650390625 185.424804688 93.7001953125 146.575195312 c 0,19,20
 96.849609375 51.025390625 96.849609375 51.025390625 124.150390625 -0.4248046875 c 0,21,22
 131.5 -13.025390625 131.5 -13.025390625 127.299804688 -26.6748046875 c 128,-1,23
 123.099609375 -40.3251953125 123.099609375 -40.3251953125 110.5 -46.625 c 0,24,25
 97.900390625 -53.974609375 97.900390625 -53.974609375 84.25 -49.775390625 c 128,-1,26
 70.599609375 -45.5751953125 70.599609375 -45.5751953125 64.2998046875 -32.974609375 c 0,27,28
 30.7001953125 28.974609375 30.7001953125 28.974609375 25.4501953125 144.474609375 c 0,29,30
 22.2998046875 235.825195312 22.2998046875 235.825195312 38.0498046875 357.625 c 0,31,32
 47.5 434.275390625 47.5 434.275390625 64.2998046875 532.974609375 c 0,33,34
 65.349609375 537.174804688 65.349609375 537.174804688 79 611.200195312 c 128,-1,35
 92.650390625 685.224609375 92.650390625 685.224609375 94.75 702.025390625 c 0,36,37
 96.849609375 715.674804688 96.849609375 715.674804688 108.400390625 724.075195312 c 128,-1,38
 119.950195312 732.474609375 119.950195312 732.474609375 133.599609375 730.375 c 128,-1,39
 147.25 728.275390625 147.25 728.275390625 155.650390625 716.724609375 c 128,-1,40
 164.049804688 705.174804688 164.049804688 705.174804688 161.950195312 690.474609375 c 0,41,42
 159.849609375 677.875 159.849609375 677.875 153.025390625 640.599609375 c 128,-1,43
 146.200195312 603.325195312 146.200195312 603.325195312 139.375 564.474609375 c 128,-1,44
 132.549804688 525.625 132.549804688 525.625 131.5 521.424804688 c 0,45,46
 114.700195312 423.775390625 114.700195312 423.775390625 105.25 349.224609375 c 2,47,-1
 102.099609375 324.025390625 l 1,48,-1
 114.700195312 330.325195312 l 2,49,50
 160.900390625 350.275390625 160.900390625 350.275390625 226 366.025390625 c 0,51,52
 255.400390625 373.375 255.400390625 373.375 329.950195312 390.174804688 c 1,53,54
 346.75 529.825195312 346.75 529.825195312 403.450195312 716.724609375 c 0,55,56
 408.700195312 730.375 408.700195312 730.375 420.775390625 736.674804688 c 128,-1,57
 432.849609375 742.974609375 432.849609375 742.974609375 446.5 738.775390625 c 128,-1,58
 460.150390625 734.575195312 460.150390625 734.575195312 466.450195312 722.5 c 128,-1,59
 472.75 710.424804688 472.75 710.424804688 468.549804688 696.775390625 c 0,0,1
EndSplineSet
EndUndoOperation
EndUndoes
Redoes
EndRedoes
EndUndoRedoHistory
Fore
SplineSet
473 244 m 0,0,1
 447 133 447 133 453 43 c 0,2,3
 453 34 453 34 450 22 c 0,4,5
 449 16 449 16 441 9 c 0,6,7
 429 -3 429 -3 410 -8 c 0,8,9
 403 -10 403 -10 394 -9.5 c 128,-1,10
 385 -9 385 -9 376 -6 c 0,11,12
 359 1 359 1 354 15 c 0,13,14
 345 120 345 120 373 242 c 0,15,16
 380 270 380 270 388 300 c 1,17,18
 333 288 333 288 322 285 c 0,19,20
 256 271 256 271 212 254 c 0,21,22
 191 251 191 251 173 247 c 1,23,24
 157 188 157 188 149 148 c 0,25,26
 131 57 131 57 145 14 c 0,27,28
 148 -1 148 -1 145 -16 c 0,29,30
 144 -21 144 -21 140 -27 c 0,31,32
 131 -40 131 -40 112 -46 c 0,33,34
 93 -54 93 -54 76 -50 c 0,35,36
 59 -46 59 -46 53 -33 c 0,37,38
 35 30 35 30 57 144 c 2,39,40
 57 144 57 144 57 145 c 2,41,42
 60 160 60 160 63 176 c 0,43,44
 82 257 82 257 118 359 c 0,45,46
 144 435 144 435 182 532 c 1,47,48
 182 530 182 530 183 534 c 2,49,50
 187 543 187 543 215 614 c 0,51,52
 241 680 241 680 250 701 c 0,53,54
 256 716 256 716 273 724 c 0,55,56
 287 731 287 731 301 731 c 0,57,58
 327 731 327 731 339 717 c 0,59,60
 347 708 347 708 345 696 c 0,61,62
 344 690 344 690 324 643 c 0,63,64
 305 598 305 598 289 560 c 0,65,66
 273 521 273 521 270 515 c 0,67,68
 231 421 231 421 206 349 c 1,69,70
 255 367 255 367 319 381 c 0,71,72
 349 388 349 388 423 402 c 1,73,74
 473 537 473 537 569 716 c 1,75,76
 579 730 579 730 596 737 c 0,77,78
 607 741 607 741 616 740.5 c 128,-1,79
 625 740 625 740 631 739 c 0,80,81
 648 735 648 735 654 722 c 0,82,83
 658 715 658 715 656 709 c 0,84,85
 653 697 653 697 649 688 c 0,86,87
 552 499 552 499 506 361 c 0,88,89
 486 300 486 300 473 244 c 0,0,1
EndSplineSet
EndChar

StartChar: I
Encoding: 73 73 44
AltUni2: 000399.ffffffff.0 000406.ffffffff.0 0004c0.ffffffff.0 001d35.ffffffff.0 002110.ffffffff.0 002111.ffffffff.0 002160.ffffffff.0 00ff29.ffffffff.0 000399.ffffffff.0 000406.ffffffff.0 0004c0.ffffffff.0 001d35.ffffffff.0 002110.ffffffff.0 002111.ffffffff.0 002160.ffffffff.0 00ff29.ffffffff.0
Width: 214
GlyphClass: 1
Flags: W
LayerCount: 2
UndoRedoHistory
Layer: 1
Undoes
UndoOperation
Index: 0
Type: 3
WasModified: 0
WasOrder2: 1
Layer: 2
EndUndoOperation
UndoOperation
Index: 1
Type: 1
WasModified: 1
WasOrder2: 1
Layer: 2
Width: 202
VWidth: 1000
LBearingChange: 0
UnicodeEnc: 0
InstructionsLength: 0
SplineSet
108 -30.1748046875 m 0,0,1
 97 -50.875 97 -50.875 70 -11.775390625 c 0,2,3
 41 30.775390625 41 30.775390625 66 357.375 c 0,4,5
 94 723.075195312 94 723.075195312 113 739.174804688 c 0,6,7
 162 780.575195312 162 780.575195312 174 712.724609375 c 0,8,9
 175 709.275390625 175 709.275390625 131 350.474609375 c 0,10,11
 122 273.424804688 122 273.424804688 122 16.974609375 c 0,12,13
 122 7.775390625 122 7.775390625 121 3.1748046875 c 1,14,15
 123 3.1748046875 123 3.1748046875 116 -14.0751953125 c 0,16,17
 110 -31.3251953125 110 -31.3251953125 108 -30.1748046875 c 0,0,1
EndSplineSet
EndUndoOperation
EndUndoes
Redoes
EndRedoes
EndUndoRedoHistory
Fore
SplineSet
76 116 m 0,0,1
 97 207 97 207 151 384 c 0,2,3
 243 689 243 689 271 734 c 0,4,5
 275 738 275 738 280 739 c 0,6,7
 305 755 305 755 322 755 c 0,8,9
 350 755 350 755 353 711 c 0,10,11
 353 711 353 711 353 712 c 0,12,13
 350 700 350 700 229 349 c 0,14,15
 203 273 203 273 144 17 c 0,16,17
 142 10 142 10 142 7 c 0,18,19
 141 3 141 3 140 1 c 0,20,21
 139 -2 139 -2 131 -14 c 0,22,23
 122 -27 122 -27 116 -30 c 0,24,25
 107 -37 107 -37 96.5 -37 c 128,-1,26
 86 -37 86 -37 78 -33 c 0,27,28
 70 -26 70 -26 64 -13.5 c 128,-1,29
 58 -1 58 -1 60 27 c 0,30,31
 63 58 63 58 76 116 c 0,0,1
EndSplineSet
EndChar

StartChar: J
Encoding: 74 74 45
AltUni2: 000408.ffffffff.0 0013ab.ffffffff.0 001d36.ffffffff.0 00ff2a.ffffffff.0 000408.ffffffff.0 0013ab.ffffffff.0 001d36.ffffffff.0 00ff2a.ffffffff.0
Width: 464
GlyphClass: 1
Flags: W
LayerCount: 2
UndoRedoHistory
Layer: 1
Undoes
UndoOperation
Index: 0
Type: 3
WasModified: 0
WasOrder2: 1
Layer: 2
EndUndoOperation
UndoOperation
Index: 1
Type: 1
WasModified: 1
WasOrder2: 1
Layer: 2
Width: 441
VWidth: 1000
LBearingChange: 0
UnicodeEnc: 0
InstructionsLength: 0
SplineSet
108 155.924804688 m 0,0,1
 134 71.9248046875 134 71.9248046875 183 47.775390625 c 0,2,3
 224 27.8251953125 224 27.8251953125 265 71.9248046875 c 0,4,5
 320 132.825195312 320 132.825195312 344 278.775390625 c 0,6,7
 373 457.275390625 373 457.275390625 344 719.775390625 c 0,8,9
 343 733.424804688 343 733.424804688 351 744.450195312 c 128,-1,10
 359 755.474609375 359 755.474609375 373 757.575195312 c 0,11,12
 386 759.674804688 386 759.674804688 397 750.224609375 c 128,-1,13
 408 740.775390625 408 740.775390625 409 727.125 c 0,14,15
 439 454.125 439 454.125 408 267.224609375 c 0,16,17
 381 100.275390625 381 100.275390625 312 24.6748046875 c 0,18,19
 277 -12.0751953125 277 -12.0751953125 236.5 -22.5751953125 c 128,-1,20
 196 -33.0751953125 196 -33.0751953125 156 -14.1748046875 c 0,21,22
 80 21.525390625 80 21.525390625 46 134.924804688 c 0,23,24
 42 148.575195312 42 148.575195312 48 161.174804688 c 128,-1,25
 54 173.775390625 54 173.775390625 67 177.974609375 c 128,-1,26
 80 182.174804688 80 182.174804688 91.5 175.875 c 128,-1,27
 103 169.575195312 103 169.575195312 108 155.924804688 c 0,0,1
EndSplineSet
EndUndoOperation
EndUndoes
Redoes
EndRedoes
EndUndoRedoHistory
Fore
SplineSet
233 72 m 0,0,1
 257 72 257 72 288 92 c 0,2,3
 358 147 358 147 412 281 c 0,4,5
 446 369 446 369 471 478 c 0,6,7
 496 586 496 586 512 716 c 0,8,9
 513 719 513 719 514 723 c 0,10,11
 517 735 517 735 529 746 c 0,12,13
 541 756 541 756 561 758 c 0,14,15
 564 758 564 758 567 758 c 0,16,17
 582 758 582 758 593.5 749.5 c 128,-1,18
 605 741 605 741 603 727 c 0,19,20
 568 453 568 453 495 265 c 0,21,22
 431 101 431 101 347 25 c 1,23,24
 298 -12 298 -12 246 -23 c 0,25,26
 227 -27 227 -27 210 -26 c 0,27,28
 178 -26 178 -26 149 -14 c 0,29,30
 81 22 81 22 74 135 c 0,31,32
 73 141 73 141 74 148 c 0,33,34
 77 160 77 160 85 174 c 0,35,36
 99 198 99 198 119 207 c 0,37,38
 127 210 127 210 135.5 210 c 128,-1,39
 144 210 144 210 152 202 c 0,40,41
 165 190 165 190 165 165 c 0,42,43
 171 94 171 94 213 75 c 0,44,45
 223 72 223 72 233 72 c 0,0,1
EndSplineSet
EndChar

StartChar: K
Encoding: 75 75 46
AltUni2: 00039a.ffffffff.0 00041a.ffffffff.0 0013e6.ffffffff.0 001d37.ffffffff.0 00212a.ffffffff.0 00ff2b.ffffffff.0 00039a.ffffffff.0 00041a.ffffffff.0 0013e6.ffffffff.0 001d37.ffffffff.0 00212a.ffffffff.0 00ff2b.ffffffff.0
Width: 510
GlyphClass: 1
Flags: W
LayerCount: 2
UndoRedoHistory
Layer: 1
Undoes
UndoOperation
Index: 0
Type: 3
WasModified: 0
WasOrder2: 1
Layer: 2
EndUndoOperation
UndoOperation
Index: 1
Type: 1
WasModified: 1
WasOrder2: 1
Layer: 2
Width: 490
VWidth: 1000
LBearingChange: 0
UnicodeEnc: 0
InstructionsLength: 0
SplineSet
209.462890625 719.424804688 m 128,-1,1
 207.362304688 704.724609375 207.362304688 704.724609375 190.5625 610.224609375 c 0,2,3
 190.5625 603.924804688 190.5625 603.924804688 187.412109375 592.375 c 0,4,5
 185.3125 577.674804688 185.3125 577.674804688 184.262695312 573.474609375 c 0,6,7
 181.112304688 548.275390625 181.112304688 548.275390625 176.912109375 532.525390625 c 0,8,9
 165.362304688 460.075195312 165.362304688 460.075195312 162.212890625 446.424804688 c 1,10,11
 278.762695312 633.325195312 278.762695312 633.325195312 422.612304688 740.424804688 c 0,12,13
 433.112304688 748.825195312 433.112304688 748.825195312 447.287109375 746.200195312 c 128,-1,14
 461.462890625 743.575195312 461.462890625 743.575195312 469.862304688 733.075195312 c 0,15,16
 478.262695312 721.525390625 478.262695312 721.525390625 476.6875 707.875 c 128,-1,17
 475.112304688 694.224609375 475.112304688 694.224609375 463.5625 685.825195312 c 0,18,19
 303.962890625 565.075195312 303.962890625 565.075195312 190.5625 359.275390625 c 1,20,21
 203.162109375 341.424804688 203.162109375 341.424804688 238.862304688 283.674804688 c 0,22,23
 239.912109375 281.575195312 239.912109375 281.575195312 243.0625 276.849609375 c 128,-1,24
 246.212890625 272.125 246.212890625 272.125 247.262695312 270.025390625 c 0,25,26
 252.512695312 259.525390625 252.512695312 259.525390625 255.662109375 256.375 c 0,27,28
 303.962890625 177.625 303.962890625 177.625 332.3125 138.775390625 c 0,29,30
 375.362304688 81.025390625 375.362304688 81.025390625 425.762695312 37.974609375 c 0,31,32
 436.262695312 28.525390625 436.262695312 28.525390625 437.3125 14.875 c 128,-1,33
 438.362304688 1.224609375 438.362304688 1.224609375 429.962890625 -10.3251953125 c 0,34,35
 420.512695312 -21.875 420.512695312 -21.875 406.862304688 -22.9248046875 c 128,-1,36
 393.212890625 -23.974609375 393.212890625 -23.974609375 381.662109375 -14.525390625 c 0,37,38
 328.112304688 29.5751953125 328.112304688 29.5751953125 276.662109375 97.8251953125 c 0,39,40
 243.0625 144.025390625 243.0625 144.025390625 196.862304688 220.674804688 c 0,41,42
 191.612304688 231.174804688 191.612304688 231.174804688 188.462890625 234.325195312 c 0,43,44
 181.112304688 246.924804688 181.112304688 246.924804688 180.0625 247.974609375 c 0,45,46
 175.862304688 255.325195312 175.862304688 255.325195312 167.462890625 268.974609375 c 128,-1,47
 159.0625 282.625 159.0625 282.625 154.862304688 288.924804688 c 1,48,49
 152.762695312 283.674804688 152.762695312 283.674804688 148.037109375 273.700195312 c 128,-1,50
 143.3125 263.724609375 143.3125 263.724609375 141.212890625 258.474609375 c 0,51,52
 137.012695312 249.025390625 137.012695312 249.025390625 131.762695312 244.825195312 c 1,53,54
 121.262695312 163.974609375 121.262695312 163.974609375 116.012695312 104.125 c 0,55,56
 112.862304688 51.625 112.862304688 51.625 116.012695312 23.275390625 c 0,57,58
 118.112304688 10.6748046875 118.112304688 10.6748046875 118.112304688 9.625 c 0,59,60
 138.0625 -5.0751953125 138.0625 -5.0751953125 131.762695312 -28.1748046875 c 0,61,62
 127.5625 -41.8251953125 127.5625 -41.8251953125 115.487304688 -48.650390625 c 128,-1,63
 103.412109375 -55.474609375 103.412109375 -55.474609375 89.7626953125 -51.275390625 c 0,64,65
 67.712890625 -46.025390625 67.712890625 -46.025390625 57.212890625 -19.775390625 c 0,66,67
 49.8623046875 -4.025390625 49.8623046875 -4.025390625 48.8125 15.9248046875 c 0,68,69
 44.6123046875 50.5751953125 44.6123046875 50.5751953125 48.8125 108.325195312 c 0,70,71
 55.1123046875 208.075195312 55.1123046875 208.075195312 80.3125 368.724609375 c 0,72,73
 83.462890625 385.525390625 83.462890625 385.525390625 88.712890625 418.075195312 c 128,-1,74
 93.962890625 450.625 93.962890625 450.625 95.0126953125 457.974609375 c 0,75,76
 99.212890625 478.974609375 99.212890625 478.974609375 109.712890625 545.125 c 2,77,-1
 112.862304688 559.825195312 l 2,78,79
 116.012695312 575.575195312 116.012695312 575.575195312 117.0625 585.025390625 c 2,80,-1
 120.212890625 603.924804688 l 2,81,82
 123.362304688 614.424804688 123.362304688 614.424804688 123.362304688 621.775390625 c 0,83,84
 139.112304688 709.974609375 139.112304688 709.974609375 141.212890625 728.875 c 0,85,86
 143.3125 742.525390625 143.3125 742.525390625 154.337890625 751.450195312 c 128,-1,87
 165.362304688 760.375 165.362304688 760.375 180.0625 758.275390625 c 0,88,89
 193.712890625 756.174804688 193.712890625 756.174804688 202.637695312 745.150390625 c 128,-1,0
 211.5625 734.125 211.5625 734.125 209.462890625 719.424804688 c 128,-1,1
EndSplineSet
EndUndoOperation
EndUndoes
Redoes
EndRedoes
EndUndoRedoHistory
Fore
SplineSet
257 622 m 2,0,-1
 257 620 l 1,1,2
 289 701 289 701 298 729 c 0,3,4
 304 742 304 742 320 750 c 0,5,6
 336 758 336 758 353 759 c 0,7,8
 379 759 379 759 392 745 c 0,9,10
 401 736 401 736 398 725 c 0,11,12
 397 721 397 721 393 710 c 0,13,14
 389 701 389 701 351 606 c 0,15,16
 349 598 349 598 342 585 c 0,17,18
 337 572 337 572 335 567 c 0,19,20
 326 542 326 542 317 526 c 0,21,22
 313 516 313 516 310 506 c 1,23,24
 452 651 452 651 596 740 c 0,25,26
 609 747 609 747 623 747 c 0,27,28
 627 747 627 747 631 746 c 0,29,30
 649 743 649 743 658 733 c 0,31,32
 665 724 665 724 662 712 c 0,33,34
 655 680 655 680 633 662 c 0,35,36
 457 550 457 550 297 360 c 1,37,38
 307 340 307 340 327 291 c 0,39,40
 328 289 328 289 330 284 c 0,41,42
 331 282 331 282 336 267 c 1,43,-1
 337 266 l 1,44,45
 372 192 372 192 393 157 c 0,46,47
 423 102 423 102 460 61 c 0,48,49
 471 41 471 41 464 12 c 0,50,51
 461 0 461 0 449 -10 c 0,52,53
 432 -23 432 -23 411 -23 c 0,54,55
 395 -23 395 -23 383 -14 c 0,56,57
 335 30 335 30 296 98 c 0,58,59
 272 140 272 140 239 221 c 1,60,61
 240 227 240 227 238 221 c 1,62,63
 239 239 239 239 235 234 c 1,64,65
 237 245 237 245 234 236 c 1,66,-1
 219 257 l 1,67,68
 219 256 219 256 214 250 c 0,69,70
 211 249 211 249 206 248 c 1,71,72
 178 166 178 166 159 104 c 0,73,74
 149 68 149 68 145 53 c 0,75,76
 142 39 142 39 142 28 c 1,77,78
 152 8 152 8 147 -18 c 0,79,80
 146 -23 146 -23 142 -28 c 0,81,82
 133 -42 133 -42 116 -49 c 0,83,84
 105 -53 105 -53 96 -53 c 0,85,86
 41 -53 41 -53 48 16 c 0,87,88
 61 110 61 110 159 371 c 0,89,90
 177 415 177 415 194 461 c 1,91,92
 203 481 203 481 227 545 c 1,93,94
 238 571 238 571 251 604 c 2,95,96
 255 615 255 615 257 622 c 2,0,-1
EndSplineSet
EndChar

StartChar: L
Encoding: 76 76 47
AltUni2: 0013de.ffffffff.0 001d38.ffffffff.0 002112.ffffffff.0 00216c.ffffffff.0 00ff2c.ffffffff.0 0013de.ffffffff.0 001d38.ffffffff.0 002112.ffffffff.0 00216c.ffffffff.0 00ff2c.ffffffff.0
Width: 487
GlyphClass: 1
Flags: W
LayerCount: 2
UndoRedoHistory
Layer: 1
Undoes
UndoOperation
Index: 0
Type: 3
WasModified: 0
WasOrder2: 1
Layer: 2
EndUndoOperation
UndoOperation
Index: 1
Type: 1
WasModified: 1
WasOrder2: 1
Layer: 2
Width: 465
VWidth: 1000
LBearingChange: 0
UnicodeEnc: 0
InstructionsLength: 0
SplineSet
156 713.349609375 m 0,0,1
 154 688.049804688 154 688.049804688 149 639.650390625 c 0,2,3
 139 560.450195312 139 560.450195312 136 532.950195312 c 0,4,5
 126 446.049804688 126 446.049804688 120 364.650390625 c 0,6,7
 111 216.150390625 111 216.150390625 124 130.349609375 c 0,8,9
 134 80.849609375 134 80.849609375 147 59.9501953125 c 0,10,11
 158 40.150390625 158 40.150390625 176 36.849609375 c 0,12,13
 201 32.4501953125 201 32.4501953125 236 35.75 c 0,14,15
 272 40.150390625 272 40.150390625 302 45.650390625 c 0,16,17
 303 45.650390625 303 45.650390625 305.5 46.2001953125 c 128,-1,18
 308 46.75 308 46.75 310 46.75 c 0,19,20
 347 54.4501953125 347 54.4501953125 365 55.5498046875 c 0,21,22
 393 59.9501953125 393 59.9501953125 422 59.9501953125 c 0,23,24
 436 59.9501953125 436 59.9501953125 445 49.5 c 128,-1,25
 454 39.0498046875 454 39.0498046875 454 24.75 c 0,26,27
 454 9.349609375 454 9.349609375 444.5 -1.099609375 c 128,-1,28
 435 -11.5498046875 435 -11.5498046875 422 -11.5498046875 c 0,29,30
 384 -11.5498046875 384 -11.5498046875 320 -23.650390625 c 0,31,32
 317 -24.75 317 -24.75 313 -24.75 c 0,33,34
 261 -33.5498046875 261 -33.5498046875 241 -35.75 c 0,35,36
 197 -39.0498046875 197 -39.0498046875 167 -33.5498046875 c 0,37,38
 121 -26.9501953125 121 -26.9501953125 93 20.349609375 c 0,39,40
 71 56.650390625 71 56.650390625 60 117.150390625 c 0,41,42
 44 210.650390625 44 210.650390625 55 370.150390625 c 0,43,44
 61 453.75 61 453.75 71 541.75 c 2,45,-1
 84 648.450195312 l 2,46,47
 91 710.049804688 91 710.049804688 91 716.650390625 c 0,48,49
 92 732.049804688 92 732.049804688 102 741.950195312 c 128,-1,50
 112 751.849609375 112 751.849609375 125 750.75 c 0,51,52
 139 749.650390625 139 749.650390625 148 738.650390625 c 128,-1,53
 157 727.650390625 157 727.650390625 156 713.349609375 c 0,0,1
EndSplineSet
EndUndoOperation
EndUndoes
Redoes
EndRedoes
EndUndoRedoHistory
Fore
SplineSet
176 145 m 0,0,1
 175 102 175 102 181 82 c 0,2,3
 186 68 186 68 198.5 66 c 128,-1,4
 211 64 211 64 227 64 c 0,5,6
 262 64 262 64 331 76 c 0,7,8
 332 76 332 76 334 76.5 c 128,-1,9
 336 77 336 77 339 77 c 0,10,11
 380 85 380 85 398 85 c 0,12,13
 426 89 426 89 454 90 c 0,14,15
 473 90 473 90 482 75 c 128,-1,16
 491 60 491 60 486 39.5 c 128,-1,17
 481 19 481 19 465 3.5 c 128,-1,18
 449 -12 449 -12 431 -12 c 0,19,20
 397 -12 397 -12 333 -23 c 0,21,22
 328 -24 328 -24 323 -25 c 0,23,24
 266 -34 266 -34 243 -36 c 0,25,26
 224 -37 224 -37 202 -37 c 128,-1,27
 180 -37 180 -37 160 -33 c 0,28,29
 111 -26 111 -26 93 25 c 0,30,31
 80 62 80 62 83 123 c 0,32,33
 87 178 87 178 105 255 c 0,34,35
 132 374 132 374 198 562 c 0,36,37
 244 694 244 694 246 703 c 0,38,39
 251 724 251 724 267 737 c 0,40,41
 283 751 283 751 300 751 c 0,42,43
 321 751 321 751 331 733 c 0,44,45
 340 720 340 720 337 703 c 0,46,47
 335 695 335 695 312 628 c 1,48,49
 292 570 292 570 275 526 c 2,50,51
 247 443 247 443 223 366 c 0,52,53
 183 225 183 225 176 145 c 0,0,1
EndSplineSet
EndChar

StartChar: M
Encoding: 77 77 48
AltUni2: 00039c.ffffffff.0 00041c.ffffffff.0 0013b7.ffffffff.0 001d39.ffffffff.0 002133.ffffffff.0 00216f.ffffffff.0 00ff2d.ffffffff.0 00039c.ffffffff.0 00041c.ffffffff.0 0013b7.ffffffff.0 001d39.ffffffff.0 002133.ffffffff.0 00216f.ffffffff.0 00ff2d.ffffffff.0
Width: 688
GlyphClass: 1
Flags: W
LayerCount: 2
UndoRedoHistory
Layer: 1
Undoes
UndoOperation
Index: 0
Type: 3
WasModified: 0
WasOrder2: 1
Layer: 2
EndUndoOperation
UndoOperation
Index: 1
Type: 1
WasModified: 1
WasOrder2: 1
Layer: 2
Width: 561
VWidth: 1000
LBearingChange: 0
UnicodeEnc: 0
InstructionsLength: 0
EndUndoOperation
EndUndoes
Redoes
EndRedoes
EndUndoRedoHistory
Fore
SplineSet
364 714 m 1,0,1
 369 720 369 720 370 724 c 2,2,-1
 371 730 l 2,3,4
 372 733 372 733 372 742 c 0,5,6
 369 758 369 758 354 763 c 0,7,8
 348 765 348 765 341 765 c 128,-1,9
 334 765 334 765 324 760 c 128,-1,10
 314 755 314 755 311 752 c 0,11,12
 309 750 309 750 306 748 c 0,13,14
 298 737 298 737 295 730 c 1,15,16
 292 726 292 726 290 721 c 1,17,18
 201 580 201 580 161 487 c 0,19,20
 107 361 107 361 88 279 c 0,21,22
 83 257 83 257 79 235 c 0,23,24
 76 205 76 205 74.5 179.5 c 128,-1,25
 73 154 73 154 72 141 c 128,-1,26
 71 128 71 128 71 119 c 0,27,28
 71 110 71 110 70 105 c 0,29,30
 69 98 69 98 69 85 c 0,31,32
 68 65 68 65 62 -14 c 1,33,34
 64 -20 64 -20 66 -23 c 2,35,36
 70 -31 70 -31 78 -38 c 0,37,38
 85 -46 85 -46 93 -46 c 0,39,40
 94 -46 94 -46 95 -46 c 0,41,42
 112 -44 112 -44 123 -33 c 128,-1,43
 134 -22 134 -22 137 -9 c 0,44,45
 137 -8 137 -8 137 -7 c 0,46,47
 142 37 142 37 145.5 104 c 128,-1,48
 149 171 149 171 149.5 184.5 c 128,-1,49
 150 198 150 198 155 240 c 0,50,51
 158 262 158 262 162 281 c 0,52,53
 180 358 180 358 229 471 c 0,54,55
 247 512 247 512 288 586 c 1,56,57
 288 518 288 518 285 490 c 0,58,59
 273 390 273 390 272 317 c 0,60,61
 273 218 273 218 303 137 c 0,62,63
 310 121 310 121 328 111 c 0,64,65
 344 107 344 107 349 107 c 2,66,67
 349 105 349 105 349 107 c 2,68,69
 352 107 352 107 355 107 c 0,70,71
 371 107 371 107 384 117 c 0,72,73
 395 125 395 125 401 133 c 0,74,75
 404 136 404 136 407 143 c 2,76,77
 412 153 412 153 418 165 c 1,78,79
 428 187 428 187 457 261 c 0,80,81
 496 357 496 357 524 421 c 0,82,83
 590 568 590 568 624 618 c 0,84,85
 629 626 629 626 640 644 c 1,86,-1
 636 627 l 2,87,88
 631 606 631 606 630 589 c 1,89,90
 619 522 619 522 618 491 c 1,91,-1
 618 491 l 2,92,93
 617 485 617 485 616 479 c 2,94,-1
 616 479 l 1,95,-1
 615 475 l 1,96,-1
 616 472 l 1,97,-1
 616 471 l 2,98,99
 616 470 616 470 616 468 c 0,100,101
 616 463 616 463 612 430 c 0,102,103
 612 418 612 418 603 361 c 1,104,-1
 603 361 l 2,105,106
 597 335 597 335 591 295 c 0,107,108
 581 229 581 229 579 221 c 0,109,110
 568 143 568 143 566 85 c 0,111,112
 566 10 566 10 587 -18 c 0,113,114
 596 -30 596 -30 611 -30 c 128,-1,115
 626 -30 626 -30 639 -21 c 0,116,117
 654 -10 654 -10 657 4 c 0,118,119
 660 17 660 17 653 26 c 0,120,121
 640 41 640 41 642 97 c 0,122,123
 643 153 643 153 654 227 c 1,124,-1
 654 227 l 2,125,126
 656 238 656 238 664 289.5 c 128,-1,127
 672 341 672 341 677 364 c 0,128,129
 688 425 688 425 688.5 435.5 c 128,-1,130
 689 446 689 446 690 457 c 2,131,-1
 691 475 l 2,132,133
 692 479 692 479 691 482 c 1,134,-1
 693 489 l 1,135,136
 693 500 693 500 693.5 505.5 c 128,-1,137
 694 511 694 511 694 523 c 0,138,139
 694 535 694 535 698 554 c 0,140,141
 701 573 701 573 704 592 c 0,142,143
 705 605 705 605 712 637 c 2,144,-1
 714 645 l 2,145,146
 717 657 717 657 719 673 c 1,147,148
 723 688 723 688 722 708 c 0,149,150
 721 720 721 720 717 730 c 0,151,152
 708 746 708 746 689 746 c 0,153,154
 684 746 684 746 678 745 c 0,155,156
 641 738 641 738 607 701 c 0,157,158
 583 675 583 675 553 629 c 0,159,160
 511 562 511 562 455 433 c 0,161,162
 452 424 452 424 412 331 c 0,163,164
 403 309 403 309 376 243 c 0,165,166
 369 224 369 224 365 217 c 2,167,168
 363 213 363 213 361 210 c 1,169,170
 347 273 347 273 347 331 c 0,171,172
 346 390 346 390 360 498 c 0,173,174
 363 539 363 539 362 596 c 1,175,176
 362 596 362 596 362 596 c 2,177,178
 363 598 363 598 362 601 c 0,179,180
 362 669 362 669 363.5 679 c 128,-1,181
 365 689 365 689 364 692 c 0,182,183
 364 693 364 693 364 697 c 0,184,185
 364 702 364 702 364 705 c 0,186,187
 363 706 363 706 364 707 c 0,188,189
 365 710 365 710 364 712 c 1,190,-1
 363 711 l 1,191,-1
 364 712 l 1,192,-1
 364 714 l 1,0,1
EndSplineSet
EndChar

StartChar: N
Encoding: 78 78 49
AltUni2: 00039d.ffffffff.0 001d3a.ffffffff.0 002115.ffffffff.0 00ff2e.ffffffff.0 00039d.ffffffff.0 001d3a.ffffffff.0 002115.ffffffff.0 00ff2e.ffffffff.0
Width: 552
GlyphClass: 1
InSpiro: 1
Flags: W
LayerCount: 2
UndoRedoHistory
Layer: 1
Undoes
UndoOperation
Index: 0
Type: 3
WasModified: 0
WasOrder2: 1
Layer: 2
EndUndoOperation
UndoOperation
Index: 1
Type: 1
WasModified: 1
WasOrder2: 1
Layer: 2
Width: 535
VWidth: 1000
LBearingChange: 0
UnicodeEnc: 0
InstructionsLength: 0
SplineSet
146 655 m 1,0,1
 132 633 132 633 129 566 c 0,2,3
 126.542787286 506.04400978 126.542787286 506.04400978 136 350 c 0,4,5
 138 317 138 317 144 285 c 0,6,7
 148.075860785 256.220446405 148.075860785 256.220446405 150 235 c 0,8,9
 156 195 156 195 157 184 c 0,10,11
 159 150 159 150 170 101 c 0,12,13
 179 59 179 59 183 32 c 0,14,15
 187 2 187 2 167 -24 c 0,16,17
 157 -37 157 -37 142 -39.5 c 128,-1,18
 127 -42 127 -42 114 -34 c 0,19,20
 103 -26 103 -26 94 -11 c 0,21,22
 81 12 81 12 75 34 c 0,23,24
 47 143 47 143 40 310 c 0,25,26
 37 385 37 385 37 441 c 2,27,-1
 37 443 l 2,28,29
 37 528 37 528 35 561 c 0,30,31
 34 574 34 574 43 583.5 c 128,-1,32
 52 593 52 593 65 594 c 1,33,34
 68 632 68 632 77 659 c 0,35,36
 92 705 92 705 126 724 c 0,37,38
 133 728 133 728 147 729 c 0,39,40
 165 731 165 731 179 717 c 0,41,42
 208 688 208 688 250 580 c 0,43,44
 271 526 271 526 316 379 c 0,45,46
 377 181 377 181 394 148 c 0,47,48
 418 102 418 102 430 78 c 0,49,50
 431 76 431 76 433.5 73.5 c 128,-1,51
 436 71 436 71 437 69 c 1,52,53
 445 96 445 96 449 126 c 0,54,55
 460 199 460 199 460 334 c 0,56,57
 460 446 460 446 453.5 560.5 c 0,58,59
 448 652 448 652 438 719 c 0,60,61
 436 732 436 732 443.5 743.5 c 128,-1,62
 451 755 451 755 464 757 c 0,63,64
 477 760 477 760 488.5 752.5 c 128,-1,65
 500 745 500 745 502 731 c 0,66,67
 527 607 527 607 525 334 c 0,68,69
 524 210 524 210 513 118 c 0,70,71
 507 64 507 64 497 43 c 0,72,73
 488 23 488 23 480 15 c 0,74,75
 465 -3 465 -3 444 -3 c 128,-1,76
 423 -3 423 -3 404 11 c 0,77,78
 391 21 391 21 377 40 c 0,79,80
 353 74 353 74 334 123 c 0,81,82
 325 146 325 146 294 234 c 0,83,84
 277 283 277 283 254 360 c 0,85,86
 209 506 209 506 190 557 c 0,87,88
 165 622 165 622 146 655 c 1,0,1
  Spiro
    146 655 v
    134.75 621.75 o
    129 566 o
    129.521 482.022 o
    136 350 o
    139 317.25 o
    144 285 o
    147.538 258.11 o
    150 235 o
    154.75 202.25 o
    157 184 o
    161.25 146.25 o
    170 101 o
    177.75 62.75 o
    183 32 o
    181 3 o
    167 -24 o
    155.75 -34.375 o
    142 -39.5 o
    127.5 -39.375 o
    114 -34 o
    103.5 -24.25 o
    94 -11 o
    82.75 11.75 o
    75 34 o
    52.25 157.5 o
    40 310 o
    37.75 380.25 o
    37 441 [
    37 443 ]
    36.5 515 o
    35 561 o
    36.5 573.125 o
    43 583.5 o
    53 590.875 o
    65 594 v
    69.5 629.25 o
    77 659 o
    96.75 698.25 o
    126 724 o
    134.75 727.25 o
    147 729 o
    164 727 o
    179 717 o
    211.25 668.25 o
    250 580 o
    277 502.75 o
    316 379 o
    366 222.25 o
    394 148 o
    415 107.5 o
    430 78 o
    431.375 75.875 o
    433.5 73.5 o
    435.625 71.125 o
    437 69 v
    444 96.75 o
    449 126 o
    457.25 214.5 o
    460 334 o
    458.375 446.625 o
    453.5 560.5 o
    446.875 645.875 o
    438 719 o
    438.375 731.625 o
    443.5 743.5 o
    452.375 752.625 o
    464 757 o
    476.625 757.375 o
    488.5 752.5 o
    497.625 743.375 o
    502 731 o
    520.25 569.75 o
    525 334 o
    521.5 218 o
    513 118 o
    506 72.25 o
    497 43 o
    488.25 26 o
    480 15 o
    463.5 1.5 o
    444 -3 o
    423.5 0.5 o
    404 11 o
    390.75 23.25 o
    377 40 o
    354.25 77.75 o
    334 123 o
    319.5 162.25 o
    294 234 o
    275.5 290 o
    254 360 o
    215.5 482.25 o
    190 557 o
    166.5 614 o
    0 0 z
  EndSpiro
EndSplineSet
EndUndoOperation
EndUndoes
Redoes
EndRedoes
EndUndoRedoHistory
Fore
SplineSet
294 610 m 1,0,1
 281 581 281 581 269 529 c 0,2,3
 256 474 256 474 236 351 c 0,4,5
 231 319 231 319 229 287 c 1,6,7
 227 259 227 259 224 239 c 0,8,9
 221 196 221 196 219 186 c 0,10,11
 214 156 214 156 214 111 c 0,12,13
 213 40 213 40 209 22 c 0,14,15
 203 -3 203 -3 178 -24 c 0,16,17
 157 -40 157 -40 130 -40 c 0,18,19
 116 -40 116 -40 104 -34 c 1,20,21
 93 -25 93 -25 86 -11 c 0,22,23
 78 12 78 12 77 34 c 0,24,25
 76 143 76 143 108 309 c 0,26,27
 123 384 123 384 136 441 c 2,28,-1
 136 443 l 2,29,30
 156 530 156 530 162 563 c 1,31,32
 165 575 165 575 178 583 c 0,33,34
 187 589 187 589 197 592 c 1,35,36
 230 692 230 692 291 724 c 0,37,38
 304 729 304 729 324 729 c 0,39,40
 345 729 345 729 360 717 c 0,41,42
 385 687 385 687 405 580 c 0,43,44
 415 527 415 527 430 359 c 0,45,46
 446 193 446 193 455 164 c 0,47,48
 464 135 464 135 469 116 c 1,49,50
 499 189 499 189 532 334 c 0,51,52
 558 445 558 445 576 547 c 0,53,54
 594 649 594 649 600 714 c 0,55,56
 601 719 601 719 601 724 c 0,57,58
 603 734 603 734 614 743 c 0,59,60
 627 754 627 754 645 757 c 0,61,62
 650 758 650 758 654 758 c 0,63,64
 666 758 666 758 677 753 c 0,65,66
 691 745 691 745 690 731 c 0,67,68
 685 616 685 616 630 374 c 0,69,70
 594 220 594 220 559 118 c 0,71,72
 541 65 541 65 526 43 c 0,73,74
 512 24 512 24 501 15 c 0,75,76
 479 -3 479 -3 454 -3 c 0,77,78
 428 -3 428 -3 408 11 c 0,79,80
 395 22 395 22 384 40 c 0,81,82
 366 74 366 74 357 123 c 0,83,84
 353 146 353 146 341 234 c 0,85,86
 334 281 334 281 328 356 c 0,87,88
 314 497 314 497 307 546 c 0,89,90
 301 584 301 584 294 610 c 1,0,1
EndSplineSet
EndChar

StartChar: O
Encoding: 79 79 50
AltUni2: 00039f.ffffffff.0 00041e.ffffffff.0 000555.ffffffff.0 001d3c.ffffffff.0 00ff2f.ffffffff.0 00039f.ffffffff.0 00041e.ffffffff.0 000555.ffffffff.0 001d3c.ffffffff.0 00ff2f.ffffffff.0
Width: 677
GlyphClass: 1
Flags: W
LayerCount: 2
UndoRedoHistory
Layer: 1
Undoes
UndoOperation
Index: 0
Type: 3
WasModified: 0
WasOrder2: 1
Layer: 2
EndUndoOperation
UndoOperation
Index: 1
Type: 1
WasModified: 1
WasOrder2: 1
Layer: 2
Width: 670
VWidth: 1000
LBearingChange: 0
UnicodeEnc: 0
InstructionsLength: 0
SplineSet
297.25 684.950195312 m 1,0,1
 287.349609375 683.849609375 287.349609375 683.849609375 277.450195312 679.450195312 c 0,2,3
 235.650390625 662.950195312 235.650390625 662.950195312 198.25 605.75 c 0,4,5
 128.950195312 501.25 128.950195312 501.25 103.650390625 385.75 c 0,6,7
 71.75 243.849609375 71.75 243.849609375 126.75 165.75 c 0,8,9
 185.049804688 82.150390625 185.049804688 82.150390625 245.549804688 60.150390625 c 0,10,11
 295.049804688 42.5498046875 295.049804688 42.5498046875 348.950195312 67.849609375 c 0,12,13
 400.650390625 93.150390625 400.650390625 93.150390625 447.400390625 154.75 c 128,-1,14
 494.150390625 216.349609375 494.150390625 216.349609375 524.950195312 298.849609375 c 0,15,16
 555.75 380.25 555.75 380.25 562.349609375 458.349609375 c 128,-1,17
 568.950195312 536.450195312 568.950195312 536.450195312 548.049804688 589.25 c 0,18,19
 528.25 640.950195312 528.25 640.950195312 483.150390625 659.650390625 c 0,20,21
 431.450195312 681.650390625 431.450195312 681.650390625 342.349609375 655.25 c 0,22,23
 328.049804688 650.849609375 328.049804688 650.849609375 315.400390625 658 c 128,-1,24
 302.75 665.150390625 302.75 665.150390625 298.349609375 679.450195312 c 0,25,26
 297.25 681.650390625 297.25 681.650390625 297.25 684.950195312 c 1,0,1
418.25 741.049804688 m 1,27,28
 467.75 742.150390625 467.75 742.150390625 510.650390625 725.650390625 c 0,29,30
 582.150390625 695.950195312 582.150390625 695.950195312 615.150390625 615.650390625 c 0,31,32
 640.450195312 546.349609375 640.450195312 546.349609375 633.849609375 457.25 c 128,-1,33
 627.25 368.150390625 627.25 368.150390625 592.049804688 273.549804688 c 0,34,35
 555.75 177.849609375 555.75 177.849609375 500.200195312 106.349609375 c 128,-1,36
 444.650390625 34.849609375 444.650390625 34.849609375 379.75 4.0498046875 c 0,37,38
 300.549804688 -34.4501953125 300.549804688 -34.4501953125 221.349609375 -6.9501953125 c 0,39,40
 138.849609375 22.75 138.849609375 22.75 67.349609375 123.950195312 c 0,41,42
 27.75 181.150390625 27.75 181.150390625 21.150390625 258.150390625 c 0,43,44
 16.75 323.049804688 16.75 323.049804688 33.25 401.150390625 c 0,45,46
 62.9501953125 528.75 62.9501953125 528.75 137.75 645.349609375 c 0,47,48
 188.349609375 721.25 188.349609375 721.25 251.049804688 745.450195312 c 0,49,50
 279.650390625 756.450195312 279.650390625 756.450195312 315.950195312 759.75 c 0,51,52
 334.650390625 761.950195312 334.650390625 761.950195312 386.349609375 761.950195312 c 0,53,54
 410.549804688 761.950195312 410.549804688 761.950195312 418.25 741.049804688 c 1,27,28
EndSplineSet
EndUndoOperation
EndUndoes
Redoes
EndRedoes
EndUndoRedoHistory
Fore
SplineSet
212 383 m 0,0,1
 190 332 190 332 180 290 c 0,2,3
 164 220 164 220 184 174 c 0,4,5
 234 68 234 68 307 68 c 0,6,7
 334 68 334 68 366 81 c 0,8,9
 420 105 420 105 478.5 164.5 c 128,-1,10
 537 224 537 224 585 304 c 0,11,12
 645 405 645 405 666 494 c 0,13,14
 678 545 678 545 673 584 c 0,15,16
 663 655 663 655 584 655 c 0,17,18
 549 655 549 655 499 641 c 0,19,20
 477 635 477 635 462 645 c 0,21,22
 450 653 450 653 446 667 c 1,23,-1
 441 665 l 2,24,25
 400 650 400 650 353 598 c 0,26,27
 262 496 262 496 212 383 c 0,0,1
768 611 m 1,28,29
 775 556 775 556 759 488 c 0,30,31
 735 386 735 386 668 272 c 0,32,33
 612 178 612 178 541 107 c 0,34,35
 467 36 467 36 392 6 c 0,36,37
 337 -18 337 -18 288 -18 c 0,38,39
 252 -18 252 -18 220 -6 c 0,40,41
 140 24 140 24 94 125 c 0,42,43
 64 194 64 194 85 289 c 0,44,45
 98 345 98 345 124 403 c 0,46,47
 181 528 181 528 278 643 c 1,48,49
 349 720 349 720 422 744 c 0,50,51
 455 756 455 756 494 760 c 0,52,53
 514 762 514 762 567 762 c 0,54,55
 595 762 595 762 603 741 c 1,56,57
 652 740 652 740 688 725 c 0,58,59
 754 694 754 694 768 611 c 1,60,61
 766 601 766 601 768 611 c 1,28,29
EndSplineSet
EndChar

StartChar: P
Encoding: 80 80 51
AltUni2: 0003a1.ffffffff.0 000420.ffffffff.0 0013e2.ffffffff.0 001d3e.ffffffff.0 002119.ffffffff.0 00ff30.ffffffff.0 0003a1.ffffffff.0 000420.ffffffff.0 0013e2.ffffffff.0 001d3e.ffffffff.0 002119.ffffffff.0 00ff30.ffffffff.0
Width: 523
GlyphClass: 1
Flags: W
LayerCount: 2
UndoRedoHistory
Layer: 1
Undoes
UndoOperation
Index: 0
Type: 3
WasModified: 0
WasOrder2: 1
Layer: 2
EndUndoOperation
UndoOperation
Index: 1
Type: 1
WasModified: 1
WasOrder2: 1
Layer: 2
Width: 503
VWidth: 1000
LBearingChange: 0
UnicodeEnc: 0
InstructionsLength: 0
SplineSet
98.2001953125 278.299804688 m 5,0,1
 102.576568019 63.8769667296 102.576568019 63.8769667296 124.599609375 8.7998046875 c 5,2,3
 135.599609375 -2.2001953125 135.599609375 -2.2001953125 135.599609375 -16.5 c 132,-1,4
 135.599609375 -30.7998046875 135.599609375 -30.7998046875 125.149902344 -41.7998046875 c 132,-1,5
 114.700195312 -52.7998046875 114.700195312 -52.7998046875 99.849609375 -52.7998046875 c 4,6,7
 63.0005007967 -52.7998046875 63.0005007967 -52.7998046875 46.5 18.7001953125 c 4,8,9
 26.7001953125 94.6033530573 26.7001953125 94.6033530573 26.7001953125 307.451578873 c 132,-1,10
 26.7001953125 520.299804688 26.7001953125 520.299804688 38.7998046875 694.099609375 c 4,11,12
 39.900390625 708.400390625 39.900390625 708.400390625 51.4501953125 718.299804688 c 4,13,14
 71.2555052268 735.276741518 71.2555052268 735.276741518 94.900390625 720.5 c 5,15,16
 218.099609375 770 218.099609375 770 341.299804688 756.799804688 c 4,17,18
 488.994508344 739.425167066 488.994508344 739.425167066 517.299804688 641.299804688 c 4,19,20
 548.099609375 532.400390625 548.099609375 532.400390625 464.5 455.400390625 c 4,21,22
 410.722201391 405.923288126 410.722201391 405.923288126 292.900390625 360.799804688 c 4,23,24
 277.5 354.200195312 277.5 354.200195312 214.25 330 c 132,-1,25
 151 305.799804688 151 305.799804688 132.299804688 290.949707031 c 132,-1,26
 113.599609375 276.099609375 113.599609375 276.099609375 98.2001953125 278.299804688 c 5,0,1
107 647.900390625 m 5,27,28
 100.400390625 525.799804688 100.400390625 525.799804688 98.2001953125 354.200195312 c 5,29,30
 136.860596507 378.196510458 136.860596507 378.196510458 199.480102941 401.948352885 c 132,-1,31
 262.099609375 425.700195312 262.099609375 425.700195312 267.599609375 427.900390625 c 4,32,33
 374.299804688 469.700195312 374.299804688 469.700195312 416.099609375 507.099609375 c 4,34,35
 467.799804688 554.400390625 467.799804688 554.400390625 448 621.5 c 4,36,37
 435.146913968 672.916147943 435.146913968 672.916147943 328.273652296 685.158269284 c 132,-1,38
 221.400390625 697.400390625 221.400390625 697.400390625 107 647.900390625 c 5,27,28
EndSplineSet
EndUndoOperation
EndUndoes
Redoes
EndRedoes
EndUndoRedoHistory
Fore
SplineSet
250 727 m 0,0,1
 260 727 260 727 269 723 c 1,2,3
 373 760 373 760 473 760 c 0,4,5
 500 760 500 760 527 757 c 2,6,7
 525 749 525 749 527 757 c 2,8,9
 677 740 677 740 684 641 c 0,10,11
 686 612 686 612 679 585 c 0,12,13
 659 499 659 499 583 433 c 0,14,15
 519 380 519 380 384 333 c 0,16,17
 366 326 366 326 297 302 c 0,18,19
 228 280 228 280 209 268 c 0,20,21
 190 253 190 253 177 250 c 1,22,23
 141 75 141 75 148 27 c 1,24,25
 157 8 157 8 151 -17 c 0,26,27
 148 -31 148 -31 130 -42 c 0,28,29
 113 -53 113 -53 94 -53 c 0,30,31
 51 -53 51 -53 47 19 c 0,32,33
 46 96 46 96 95 307 c 0,34,35
 144 520 144 520 196 694 c 0,36,37
 201 708 201 708 217 718 c 0,38,39
 234 727 234 727 250 727 c 0,0,1
584 586 m 0,40,41
 587 599 587 599 586 613 c 0,42,43
 584 646 584 646 487 655 c 0,44,45
 467 657 467 657 446 658 c 0,46,47
 364 658 364 658 270 624 c 1,48,49
 240 515 240 515 204 367 c 1,50,51
 241 385 241 385 304 406 c 0,52,53
 368 428 368 428 369 428 c 0,54,55
 486 470 486 470 535 507 c 0,56,57
 574 542 574 542 584 586 c 0,40,41
EndSplineSet
EndChar

StartChar: Q
Encoding: 81 81 52
AltUni2: 00211a.ffffffff.0 00a7f4.ffffffff.0 00ff31.ffffffff.0 00211a.ffffffff.0 00a7f4.ffffffff.0 00ff31.ffffffff.0
Width: 644
GlyphClass: 1
Flags: W
LayerCount: 2
UndoRedoHistory
Layer: 1
Undoes
UndoOperation
Index: 0
Type: 3
WasModified: 0
WasOrder2: 1
Layer: 2
EndUndoOperation
UndoOperation
Index: 1
Type: 1
WasModified: 1
WasOrder2: 1
Layer: 2
Width: 634
VWidth: 1000
LBearingChange: 0
UnicodeEnc: 0
InstructionsLength: 0
SplineSet
488.200195312 59.125 m 1,0,-1
 500.799804688 43.375 l 2,1,2
 506.049804688 36.025390625 506.049804688 36.025390625 507.099609375 34.974609375 c 0,3,4
 538.599609375 -4.9248046875 538.599609375 -4.9248046875 560.650390625 -39.5751953125 c 0,5,6
 568 -51.125 568 -51.125 564.849609375 -64.775390625 c 128,-1,7
 561.700195312 -78.4248046875 561.700195312 -78.4248046875 550.150390625 -85.775390625 c 0,8,9
 537.549804688 -93.125 537.549804688 -93.125 523.900390625 -89.974609375 c 128,-1,10
 510.25 -86.8251953125 510.25 -86.8251953125 502.900390625 -75.275390625 c 0,11,12
 486.099609375 -47.974609375 486.099609375 -47.974609375 453.549804688 -8.0751953125 c 0,13,14
 452.5 -4.9248046875 452.5 -4.9248046875 447.25 1.375 c 0,15,16
 438.849609375 11.875 438.849609375 11.875 435.700195312 16.0751953125 c 1,17,18
 375.849609375 -19.625 375.849609375 -19.625 305.5 -19.625 c 0,19,20
 162.700195312 -19.625 162.700195312 -19.625 81.849609375 114.775390625 c 0,21,22
 13.599609375 232.375 13.599609375 232.375 19.900390625 389.875 c 0,23,24
 26.2001953125 552.625 26.2001953125 552.625 108.099609375 653.424804688 c 0,25,26
 203.650390625 774.174804688 203.650390625 774.174804688 360.099609375 748.974609375 c 1,27,28
 480.849609375 764.724609375 480.849609375 764.724609375 550.150390625 657.625 c 0,29,30
 617.349609375 556.825195312 617.349609375 556.825195312 612.099609375 394.075195312 c 0,31,32
 606.849609375 233.424804688 606.849609375 233.424804688 534.400390625 116.875 c 0,33,34
 515.5 86.4248046875 515.5 86.4248046875 488.200195312 59.125 c 1,0,-1
417.849609375 186.174804688 m 0,35,36
 422.049804688 154.674804688 422.049804688 154.674804688 446.200195312 116.875 c 1,37,-1
 448.299804688 114.775390625 l 1,38,39
 468.25 139.974609375 468.25 139.974609375 476.650390625 153.625 c 0,40,41
 538.599609375 251.275390625 538.599609375 251.275390625 543.849609375 396.174804688 c 0,42,43
 549.099609375 535.825195312 549.099609375 535.825195312 493.450195312 619.825195312 c 0,44,45
 439.900390625 702.775390625 439.900390625 702.775390625 346.450195312 677.575195312 c 0,46,47
 327.549804688 672.325195312 327.549804688 672.325195312 314.950195312 684.924804688 c 1,48,49
 221.5 685.974609375 221.5 685.974609375 161.650390625 611.424804688 c 0,50,51
 94.4501953125 526.375 94.4501953125 526.375 88.150390625 386.724609375 c 0,52,53
 82.900390625 249.174804688 82.900390625 249.174804688 140.650390625 150.474609375 c 0,54,55
 202.599609375 48.625 202.599609375 48.625 305.5 48.625 c 0,56,57
 354.849609375 48.625 354.849609375 48.625 394.75 71.724609375 c 1,58,-1
 388.450195312 81.1748046875 l 2,59,60
 358 130.525390625 358 130.525390625 350.650390625 173.575195312 c 0,61,62
 347.5 187.224609375 347.5 187.224609375 355.375 199.299804688 c 128,-1,63
 363.25 211.375 363.25 211.375 377.950195312 213.474609375 c 0,64,65
 391.599609375 215.575195312 391.599609375 215.575195312 403.150390625 207.700195312 c 128,-1,66
 414.700195312 199.825195312 414.700195312 199.825195312 417.849609375 186.174804688 c 0,35,36
EndSplineSet
EndUndoOperation
EndUndoes
Redoes
EndRedoes
EndUndoRedoHistory
Fore
SplineSet
571 -17 m 0,0,1
 575 -29 575 -29 572 -42 c 0,2,3
 571 -48 571 -48 568 -53 c 0,4,5
 559 -73 559 -73 541 -84 c 0,6,7
 528 -91 528 -91 515 -91 c 0,8,9
 510 -91 510 -91 505 -90 c 0,10,11
 487 -85 487 -85 480 -68 c 0,12,13
 470 -42 470 -42 446 -0 c 1,14,15
 446 3 446 3 443.5 6.5 c 128,-1,16
 441 10 441 10 440 12 c 0,17,18
 374 -19 374 -19 306 -20 c 0,19,20
 154 -20 154 -20 105 117 c 1,21,22
 107 126 107 126 105 117 c 1,23,24
 70 224 70 224 102 364 c 0,25,26
 143 540 143 540 254 652 c 0,27,28
 359 753 359 753 487 753 c 0,29,30
 512 753 512 753 539 749 c 1,31,32
 562 751 562 751 565.5 751 c 128,-1,33
 569 751 569 751 569 751 c 0,34,35
 675 751 675 751 716 655 c 0,36,37
 754 562 754 562 721 415 c 0,38,39
 681 243 681 243 578 119 c 0,40,41
 557 93 557 93 530 70 c 1,42,43
 534 79 534 79 533 65 c 1,44,45
 537 73 537 73 536 57 c 1,46,47
 539 68 539 68 537 56 c 1,48,49
 558 17 558 17 571 -17 c 0,0,1
628 412 m 0,50,51
 631 424 631 424 634 435 c 0,52,53
 661 553 661 553 631 627 c 0,54,55
 607 684 607 684 551 683 c 0,56,57
 533 683 533 683 518.5 679.5 c 128,-1,58
 504 676 504 676 497 676 c 0,59,60
 482 676 482 676 473 685 c 1,61,62
 390 684 390 684 321 617 c 0,63,64
 239 536 239 536 202 401 c 0,65,66
 199 390 199 390 197 379 c 0,67,68
 170 260 170 260 198 173 c 1,69,70
 263 92 263 92 329 79 c 1,71,72
 366 79 366 79 400 92 c 1,73,74
 384 136 384 136 384 186 c 0,75,76
 384 191 384 191 386 196 c 0,77,78
 389 210 389 210 400 222 c 0,79,80
 419 243 419 243 446 244 c 0,81,82
 461 244 461 244 472 235 c 0,83,84
 486 224 486 224 485 204 c 1,85,86
 483 182 483 182 491 156 c 1,87,88
 586 255 586 255 628 412 c 0,50,51
EndSplineSet
EndChar

StartChar: R
Encoding: 82 82 53
AltUni2: 0013a1.ffffffff.0 001d3f.ffffffff.0 00211b.ffffffff.0 00211c.ffffffff.0 00211d.ffffffff.0 00ff32.ffffffff.0 0013a1.ffffffff.0 001d3f.ffffffff.0 00211b.ffffffff.0 00211c.ffffffff.0 00211d.ffffffff.0 00ff32.ffffffff.0
Width: 535
GlyphClass: 1
Flags: W
LayerCount: 2
UndoRedoHistory
Layer: 1
Undoes
UndoOperation
Index: 0
Type: 3
WasModified: 0
WasOrder2: 1
Layer: 2
EndUndoOperation
UndoOperation
Index: 1
Type: 1
WasModified: 1
WasOrder2: 1
Layer: 2
Width: 517
VWidth: 1000
LBearingChange: 0
UnicodeEnc: 0
InstructionsLength: 0
SplineSet
122 358 m 1,0,1
 135 364 135 364 170 372 c 0,2,3
 251 388 251 388 314 438 c 0,4,5
 377 489 377 489 385 548 c 0,6,7
 394 604 394 604 371 638 c 0,8,9
 351 668 351 668 309 679 c 0,10,11
 231 701 231 701 136 660 c 1,12,13
 125 513 125 513 122 358 c 1,0,1
76 703 m 0,14,15
 135 736 135 736 202 746.5 c 128,-1,16
 269 757 269 757 326 742 c 0,17,18
 394 724 394 724 427.5 670.5 c 128,-1,19
 461 617 461 617 450 539 c 0,20,21
 438 455 438 455 355 388 c 0,22,23
 305 347 305 347 237 323 c 1,24,25
 248 316 248 316 263 304 c 0,26,27
 302 273 302 273 347 224 c 0,28,29
 363 206 363 206 400 161 c 0,30,31
 403 156 403 156 410 148 c 128,-1,32
 417 140 417 140 421 135 c 0,33,34
 422 134 422 134 426.5 128.5 c 128,-1,35
 431 123 431 123 434 119.5 c 128,-1,36
 437 116 437 116 437 115 c 0,37,38
 442 109 442 109 470 60 c 1,39,-1
 471 59 l 2,40,41
 472 58 472 58 472 57 c 0,42,43
 491 22 491 22 495 14 c 0,44,45
 499 11 499 11 503 3 c 0,46,47
 504 1 504 1 506 -7 c 0,48,49
 506 -8 506 -8 506.5 -9 c 128,-1,50
 507 -10 507 -10 507 -11 c 0,51,52
 507 -18 507 -18 506 -22 c 0,53,54
 502 -37 502 -37 487.5 -43 c 128,-1,55
 473 -49 473 -49 460 -43 c 0,56,57
 454 -39 454 -39 453 -38 c 2,58,-1
 450 -35 l 1,59,-1
 447 -32 l 2,60,61
 446 -31 446 -31 445 -29 c 128,-1,62
 444 -27 444 -27 442 -24 c 128,-1,63
 440 -21 440 -21 439 -18 c 2,64,-1
 415 26 l 1,65,-1
 413 28 l 1,66,67
 391 69 391 69 386 74 c 2,68,-1
 371 94 l 2,69,70
 352 117 352 117 350 120 c 0,71,72
 324 152 324 152 299 180 c 0,73,74
 256 226 256 226 222 253 c 0,75,76
 165 299 165 299 138 291 c 0,77,78
 128 289 128 289 121 292 c 1,79,80
 121 82 121 82 145 28 c 0,81,82
 150 16 150 16 145.5 3 c 128,-1,83
 141 -10 141 -10 128 -15 c 0,84,85
 116 -20 116 -20 103.5 -15.5 c 128,-1,86
 91 -11 91 -11 85 1 c 0,87,88
 53 75 53 75 56 337 c 0,89,90
 59 519 59 519 70 650 c 1,91,92
 66 652 66 652 63 659 c 0,93,94
 56 670 56 670 60 683 c 128,-1,95
 64 696 64 696 76 703 c 0,14,15
EndSplineSet
EndUndoOperation
EndUndoes
Redoes
EndRedoes
EndUndoRedoHistory
Fore
SplineSet
517 578 m 0,0,1
 523 604 523 604 513 621 c 0,2,3
 500 642 500 642 463 650 c 0,4,5
 438 657 438 657 410 657 c 0,6,7
 360 657 360 657 299 636 c 1,8,9
 261 511 261 511 228 379 c 1,10,11
 243 383 243 383 258 387 c 0,12,13
 343 402 343 402 417 450 c 0,14,15
 489 496 489 496 508 548 c 0,16,17
 514 566 514 566 517 578 c 0,0,1
239 703 m 0,18,19
 333 751 333 751 441 751 c 0,20,21
 476 751 476 751 510 742 c 0,22,23
 583 724 583 724 605 670 c 0,24,25
 621 630 621 630 609 576 c 0,26,27
 604 556 604 556 596 535 c 0,28,29
 564 446 564 446 462 376 c 0,30,31
 410 341 410 341 348 319 c 1,32,33
 388 288 388 288 425 244 c 0,34,35
 438 226 438 226 466 179 c 0,36,37
 468 174 468 174 472 167 c 0,38,39
 477 157 477 157 481 150 c 0,40,41
 485 142 485 142 487 139 c 0,42,43
 492 131 492 131 507 79 c 0,44,45
 509 75 509 75 509 70 c 0,46,47
 518 43 518 43 520 34 c 0,48,49
 526 24 526 24 525 1 c 0,50,51
 525 -4 525 -4 523 -14 c 0,52,53
 522 -18 522 -18 520 -19 c 0,54,55
 511 -36 511 -36 490 -43 c 0,56,57
 480 -46 480 -46 470.5 -46 c 128,-1,58
 461 -46 461 -46 452 -43 c 1,59,60
 438 -36 438 -36 435 -29 c 0,61,62
 435 -27 435 -27 434 -23 c 0,63,64
 433 -20 433 -20 432 -17 c 2,65,66
 429 15 429 15 422 28 c 1,67,68
 424 39 424 39 421 28 c 1,69,70
 423 39 423 39 420 30 c 1,71,72
 418 24 418 24 419 28 c 1,73,74
 414 61 414 61 404 74 c 1,75,76
 406 85 406 85 403 75 c 1,77,78
 401 66 401 66 402 74 c 1,79,80
 399 94 399 94 392 94 c 1,81,82
 378 116 378 116 375 120 c 0,83,84
 356 152 356 152 337 180 c 0,85,86
 304 226 304 226 275 253 c 0,87,88
 234 277 234 277 213 277 c 0,89,90
 212 277 212 277 208.5 276.5 c 128,-1,91
 205 276 205 276 203 276 c 0,92,93
 161 90 161 90 170 40 c 0,94,95
 171 28 171 28 168 16 c 0,96,97
 166 9 166 9 162 3 c 0,98,99
 153 -10 153 -10 134 -14 c 0,100,101
 120 -17 120 -17 118 -17.5 c 128,-1,102
 116 -18 116 -18 116 -18 c 0,103,104
 108 -18 108 -18 101 -16 c 0,105,106
 85 -11 85 -11 80 1 c 1,107,108
 67 70 67 70 118 293 c 0,109,110
 123 314 123 314 129 337 c 0,111,112
 171 509 171 509 210 635 c 0,113,114
 209 639 209 639 208 645 c 0,115,116
 203 663 203 663 213 683 c 0,117,118
 221 696 221 696 239 703 c 0,18,19
EndSplineSet
EndChar

StartChar: S
Encoding: 83 83 54
AltUni2: 000405.ffffffff.0 00054f.ffffffff.0 0013da.ffffffff.0 00ff33.ffffffff.0 000405.ffffffff.0 00054f.ffffffff.0 0013da.ffffffff.0 00ff33.ffffffff.0
Width: 476
GlyphClass: 1
Flags: W
LayerCount: 2
UndoRedoHistory
Layer: 1
Undoes
UndoOperation
Index: 0
Type: 3
WasModified: 0
WasOrder2: 1
Layer: 2
EndUndoOperation
UndoOperation
Index: 1
Type: 1
WasModified: 1
WasOrder2: 1
Layer: 2
Width: 454
VWidth: 1000
LBearingChange: 0
UnicodeEnc: 0
InstructionsLength: 0
SplineSet
363.099609375 676.974609375 m 0,0,1
 326.349609375 693.775390625 326.349609375 693.775390625 304.299804688 688.525390625 c 0,2,3
 287.5 685.375 287.5 685.375 237.099609375 654.924804688 c 0,4,5
 152.049804688 600.325195312 152.049804688 600.325195312 123.700195312 561.474609375 c 0,6,7
 112.150390625 546.775390625 112.150390625 546.775390625 111.099609375 536.275390625 c 0,8,9
 109 527.875 109 527.875 112.150390625 522.625 c 0,10,11
 120.549804688 504.775390625 120.549804688 504.775390625 156.25 483.775390625 c 0,12,13
 194.049804688 462.775390625 194.049804688 462.775390625 245.5 441.775390625 c 1,14,-1
 246.549804688 440.724609375 l 1,15,16
 277 428.125 277 428.125 321.099609375 407.125 c 0,17,18
 362.049804688 386.125 362.049804688 386.125 385.150390625 365.125 c 0,19,20
 427.150390625 327.325195312 427.150390625 327.325195312 432.400390625 268.525390625 c 0,21,22
 438.700195312 221.275390625 438.700195312 221.275390625 418.75 163.525390625 c 0,23,24
 401.950195312 114.174804688 401.950195312 114.174804688 371.5 70.0751953125 c 128,-1,25
 341.049804688 25.974609375 341.049804688 25.974609375 308.5 4.974609375 c 0,26,27
 260.200195312 -26.525390625 260.200195312 -26.525390625 172 -29.6748046875 c 0,28,29
 131.049804688 -31.775390625 131.049804688 -31.775390625 98.5 -30.724609375 c 2,30,-1
 71.2001953125 -30.724609375 l 2,31,32
 57.5498046875 -30.724609375 57.5498046875 -30.724609375 47.5751953125 -20.75 c 128,-1,33
 37.599609375 -10.775390625 37.599609375 -10.775390625 37.599609375 3.9248046875 c 0,34,35
 37.599609375 17.5751953125 37.599609375 17.5751953125 47.5751953125 27.5498046875 c 128,-1,36
 57.5498046875 37.525390625 57.5498046875 37.525390625 71.2001953125 37.525390625 c 2,37,-1
 99.5498046875 37.525390625 l 1,38,-1
 168.849609375 37.525390625 l 1,39,40
 241.299804688 42.775390625 241.299804688 42.775390625 270.700195312 61.6748046875 c 0,41,42
 293.799804688 76.375 293.799804688 76.375 317.424804688 111.549804688 c 128,-1,43
 341.049804688 146.724609375 341.049804688 146.724609375 354.700195312 185.575195312 c 0,44,45
 368.349609375 229.674804688 368.349609375 229.674804688 365.200195312 261.174804688 c 0,46,47
 362.049804688 293.724609375 362.049804688 293.724609375 340 314.724609375 c 0,48,49
 321.099609375 330.474609375 321.099609375 330.474609375 290.650390625 346.224609375 c 0,50,51
 268.599609375 357.775390625 268.599609375 357.775390625 220.299804688 377.724609375 c 0,52,53
 219.25 378.775390625 219.25 378.775390625 218.200195312 378.775390625 c 0,54,55
 152.049804688 407.125 152.049804688 407.125 121.599609375 424.974609375 c 0,56,57
 65.9501953125 457.525390625 65.9501953125 457.525390625 50.2001953125 495.325195312 c 0,58,59
 27.099609375 545.724609375 27.099609375 545.724609375 69.099609375 602.424804688 c 0,60,61
 103.75 649.674804688 103.75 649.674804688 201.400390625 712.674804688 c 0,62,63
 231.849609375 731.575195312 231.849609375 731.575195312 246.549804688 738.924804688 c 0,64,65
 269.650390625 751.525390625 269.650390625 751.525390625 290.650390625 755.724609375 c 0,66,67
 333.700195312 764.125 333.700195312 764.125 390.400390625 738.924804688 c 0,68,69
 403 733.674804688 403 733.674804688 408.25 720.549804688 c 128,-1,70
 413.5 707.424804688 413.5 707.424804688 407.200195312 693.775390625 c 0,71,72
 401.950195312 681.174804688 401.950195312 681.174804688 388.825195312 676.450195312 c 128,-1,73
 375.700195312 671.724609375 375.700195312 671.724609375 363.099609375 676.974609375 c 0,0,1
EndSplineSet
EndUndoOperation
EndUndoes
Redoes
EndRedoes
EndUndoRedoHistory
Fore
SplineSet
523 648 m 0,0,1
 502 659 502 659 485 660 c 0,2,3
 480 660 480 660 476 659 c 0,4,5
 460 656 460 656 402 629 c 0,6,7
 301 578 301 578 265 543 c 0,8,9
 254 532 254 532 251 525 c 0,10,11
 250 522 250 522 250 521 c 2,12,13
 248 513 248 513 250 521 c 1,14,15
 256 494 256 494 370 449 c 1,16,17
 369 443 369 443 371 448 c 1,18,19
 411 432 411 432 442 417 c 0,20,21
 477 396 477 396 495 374 c 0,22,23
 527 337 527 337 520 273 c 0,24,25
 519 262 519 262 517.5 256 c 128,-1,26
 516 250 516 250 516 249 c 0,27,28
 507 210 507 210 481 163.5 c 128,-1,29
 455 117 455 117 415 73 c 128,-1,30
 375 29 375 29 335 7 c 0,31,32
 271 -27 271 -27 171 -30 c 0,33,34
 129 -31 129 -31 124 -31 c 0,35,36
 107 -31 107 -31 97 -31 c 2,37,-1
 72 -31 l 2,38,39
 54 -31 54 -31 44 -16.5 c 128,-1,40
 34 -2 34 -2 38.5 18.5 c 128,-1,41
 43 39 43 39 60 53.5 c 128,-1,42
 77 68 77 68 95 68 c 2,43,-1
 189 68 l 1,44,45
 264 73 264 73 296 88 c 0,46,47
 321 100 321 100 352 132 c 128,-1,48
 383 164 383 164 404 199 c 1,49,50
 423 241 423 241 425.5 251 c 128,-1,51
 428 261 428 261 428 266 c 0,52,53
 432 292 432 292 419 308 c 0,54,55
 403 322 403 322 379 334.5 c 128,-1,56
 355 347 355 347 305 367 c 1,57,58
 305 369 305 369 305 367 c 1,59,60
 240 394 240 394 214 412 c 0,61,62
 166 446 166 446 159 486 c 0,63,64
 155 506 155 506 160 526 c 0,65,66
 169 563 169 563 205 602 c 0,67,68
 250 649 250 649 365 711 c 0,69,70
 399 728 399 728 421 737 c 0,71,72
 467 758 467 758 506 758 c 0,73,74
 542 758 542 758 580 738 c 0,75,76
 595 730 595 730 598 711 c 0,77,78
 599 702 599 702 597 692.5 c 128,-1,79
 595 683 595 683 588 673 c 0,80,81
 576 654 576 654 557 647 c 0,82,83
 548 644 548 644 539 644 c 0,84,85
 531 644 531 644 523 648 c 0,0,1
252 530 m 1,86,-1
 252 530 l 1,86,-1
EndSplineSet
EndChar

StartChar: T
Encoding: 84 84 55
AltUni2: 0003a4.ffffffff.0 000422.ffffffff.0 0013a2.ffffffff.0 001d40.ffffffff.0 00ff34.ffffffff.0 0003a4.ffffffff.0 000422.ffffffff.0 0013a2.ffffffff.0 001d40.ffffffff.0 00ff34.ffffffff.0
Width: 620
GlyphClass: 1
Flags: W
LayerCount: 2
UndoRedoHistory
Layer: 1
Undoes
UndoOperation
Index: 0
Type: 3
WasModified: 0
WasOrder2: 1
Layer: 2
EndUndoOperation
UndoOperation
Index: 1
Type: 1
WasModified: 1
WasOrder2: 1
Layer: 2
Width: 608
VWidth: 1000
LBearingChange: 0
UnicodeEnc: 0
InstructionsLength: 0
SplineSet
267.943359375 270.249023438 m 2,0,1
 249.913085938 48.7099609375 249.913085938 48.7099609375 247.099609375 25.810546875 c 0,2,3
 241 -23.8291015625 241 -23.8291015625 240.8359375 -23.5009765625 c 0,4,5
 232 -33.728515625 232 -33.728515625 217.78515625 -35.7509765625 c 0,6,7
 204 -37.3291015625 204 -37.3291015625 192.995117188 -30.1142578125 c 0,8,9
 178 -20.228515625 178 -20.228515625 179.383789062 -9.3671875 c 0,10,11
 211 328.971679688 211 328.971679688 242.958007812 667.967773438 c 1,12,13
 137 656.571289062 137 656.571289062 81.0625 641.940429688 c 0,14,15
 68 638.571289062 68 638.571289062 55.4091796875 645.612304688 c 0,16,17
 43 652.071289062 43 652.071289062 39.888671875 664.310546875 c 0,18,19
 37 677.271484375 37 677.271484375 44.9228515625 688.421875 c 0,20,21
 51 697.971679688 51 697.971679688 65.791015625 701.448242188 c 0,22,23
 137 716.87109375 137 716.87109375 260.975585938 731.995117188 c 0,24,25
 270 733.071289062 270 733.071289062 297.017578125 735.307617188 c 128,-1,26
 324 737.571289062 324 737.571289062 347.703125 739.7734375 c 0,27,28
 373 742.971679688 373 742.971679688 401.434570312 745.42578125 c 0,29,30
 430 747.471679688 430 747.471679688 447.3671875 749.9921875 c 0,31,32
 465 752.87109375 465 752.87109375 481.225585938 754.081054688 c 0,33,34
 490 754.670898438 490 754.670898438 495.77734375 756.174804688 c 2,35,-1
 505.19140625 756.916015625 l 2,36,37
 506.607421875 757.9765625 506.607421875 757.9765625 508.23828125 758.10546875 c 2,38,-1
 510.330078125 758.26953125 l 1,39,-1
 514.514648438 758.599609375 l 1,40,-1
 519.744140625 759.010742188 l 2,41,42
 536.013671875 762.1875 536.013671875 762.1875 560.35546875 764.10546875 c 2,43,-1
 568.723632812 764.764648438 l 1,44,-1
 573.953125 765.176757812 l 2,45,46
 577 765.471679688 577 765.471679688 585.825195312 762.31640625 c 0,47,48
 598 757.37109375 598 757.37109375 602.979492188 748.490234375 c 0,49,50
 612 733.971679688 612 733.971679688 602.678710938 719.05859375 c 0,51,52
 597 710.571289062 597 710.571289062 593.133789062 708.821289062 c 0,53,54
 589 706.971679688 589 706.971679688 588.086914062 706.526367188 c 0,55,56
 586 703.37109375 586 703.37109375 577.901367188 702.87890625 c 0,57,58
 559 702.471679688 559 702.471679688 557.935546875 702.255859375 c 0,59,60
 545 700.670898438 545 700.670898438 529.876953125 698.1484375 c 2,61,-1
 525.692382812 697.819335938 l 1,62,-1
 520.462890625 697.408203125 l 1,63,-1
 515.232421875 696.99609375 l 2,64,65
 511 696.170898438 511 696.170898438 505.91015625 695.313476562 c 0,66,67
 503 695.271484375 503 695.271484375 497.587890625 694.18359375 c 0,68,69
 492 693.471679688 492 693.471679688 491.357421875 693.21875 c 0,70,71
 425 684.471679688 425 684.471679688 310.764648438 675.205078125 c 1,72,-1
 267.943359375 270.249023438 l 2,0,1
EndSplineSet
EndUndoOperation
EndUndoes
Redoes
EndRedoes
EndUndoRedoHistory
Fore
SplineSet
208 -36 m 0,0,1
 193 -36 193 -36 181 -30 c 0,2,3
 162 -22 162 -22 165 -11 c 0,4,5
 165 -10 165 -10 377 636 c 1,6,7
 283 626 283 626 234 613 c 0,8,9
 228 611 228 611 222 611 c 0,10,11
 210 611 210 611 201 619 c 0,12,13
 187 632 187 632 188 658 c 0,14,15
 189 665 189 665 191 671 c 0,16,17
 193 680 193 680 202 688 c 0,18,19
 213 698 213 698 233 701 c 0,20,21
 303 716 303 716 432 732 c 0,22,23
 442 733 442 733 469.5 735.5 c 128,-1,24
 497 738 497 738 521 740 c 0,25,26
 547 743 547 743 577 745 c 2,27,28
 575 737 575 737 578 745 c 2,29,30
 607 747 607 747 625 750 c 128,-1,31
 643 753 643 753 655.5 754 c 128,-1,32
 668 755 668 755 674 756 c 1,33,34
 671 741 671 741 675 756 c 1,35,36
 675 741 675 741 682 757 c 2,37,38
 685 758 685 758 687.5 758 c 128,-1,39
 690 758 690 758 692 758.5 c 128,-1,40
 694 759 694 759 698 759 c 0,41,42
 714 762 714 762 732.5 763.5 c 128,-1,43
 751 765 751 765 754 765 c 0,44,45
 758 765 758 765 767 762 c 0,46,47
 782 757 782 757 787 748 c 0,48,49
 795 725 795 725 775 702 c 0,50,51
 764 686 764 686 756 681 c 0,52,53
 755 681 755 681 754 681 c 0,54,55
 747 674 747 674 733.5 673.5 c 128,-1,56
 720 673 720 673 717 672 c 2,57,58
 700 655 700 655 689 668 c 2,59,-1
 680 668 l 1,60,61
 677 668 677 668 666 665 c 1,62,63
 662 650 662 650 665 665 c 1,64,65
 657 651 657 651 655 664 c 1,66,67
 651 646 651 646 654 664 c 1,68,69
 587 655 587 655 478 646 c 1,70,-1
 349 269 l 1,71,72
 280 49 280 49 271 24 c 0,73,74
 255 -21 255 -21 253 -23 c 0,75,76
 252 -23 252 -23 250 -24 c 0,77,78
 232 -36 232 -36 208 -36 c 0,0,1
EndSplineSet
EndChar

StartChar: U
Encoding: 85 85 56
AltUni2: 001d41.ffffffff.0 00ff35.ffffffff.0 001d41.ffffffff.0 00ff35.ffffffff.0
Width: 550
GlyphClass: 1
Flags: W
LayerCount: 2
UndoRedoHistory
Layer: 1
Undoes
UndoOperation
Index: 0
Type: 3
WasModified: 0
WasOrder2: 1
Layer: 2
EndUndoOperation
UndoOperation
Index: 1
Type: 1
WasModified: 1
WasOrder2: 1
Layer: 2
Width: 533
VWidth: 1000
LBearingChange: 0
UnicodeEnc: 0
InstructionsLength: 0
SplineSet
509.736328125 707.716796875 m 0,0,1
 505.069335938 654.37109375 505.069335938 654.37109375 491.092773438 542.814453125 c 0,2,3
 490.452148438 535.4921875 490.452148438 535.4921875 489.15234375 526.647460938 c 128,-1,4
 487.850585938 517.801757812 487.850585938 517.801757812 486.87109375 512.6171875 c 128,-1,5
 485.889648438 507.43359375 485.889648438 507.43359375 485.432617188 502.203125 c 0,6,7
 467.024414062 352.036132812 467.024414062 352.036132812 462.422851562 251.25390625 c 0,8,9
 459.3515625 119.771484375 459.3515625 119.771484375 480.181640625 32.57421875 c 0,10,11
 484.221679688 18.5185546875 484.221679688 18.5185546875 476.801757812 5.9921875 c 128,-1,12
 469.381835938 -6.5341796875 469.381835938 -6.5341796875 455.41796875 -9.5283203125 c 128,-1,13
 441.453125 -12.5224609375 441.453125 -12.5224609375 429.451171875 -5.1474609375 c 128,-1,14
 417.447265625 2.2265625 417.447265625 2.2265625 414.454101562 16.189453125 c 0,15,16
 397.885742188 79.826171875 397.885742188 79.826171875 395.061523438 155.961914062 c 1,17,18
 382.130859375 128.634765625 382.130859375 128.634765625 359.145507812 94.8095703125 c 0,19,20
 331.243164062 52.982421875 331.243164062 52.982421875 297.208984375 25.3935546875 c 0,21,22
 246.204101562 -15.4658203125 246.204101562 -15.4658203125 195.99609375 -11.0732421875 c 0,23,24
 138.557617188 -4.994140625 138.557617188 -4.994140625 99.056640625 37.458984375 c 0,25,26
 67.4677734375 73.9521484375 67.4677734375 73.9521484375 49.6708984375 135.586914062 c 0,27,28
 23.115234375 229.609375 23.115234375 229.609375 33.978515625 389.922851562 c 0,29,30
 42.2275390625 508.3046875 42.2275390625 508.3046875 65.7607421875 632.7265625 c 0,31,32
 66.4013671875 640.048828125 66.4013671875 640.048828125 69.34375 655.6015625 c 128,-1,33
 72.28515625 671.154296875 72.28515625 671.154296875 74.0634765625 679.431640625 c 2,34,-1
 81.359375 714.62890625 l 2,35,36
 83.5947265625 728.135742188 83.5947265625 728.135742188 94.8779296875 736.634765625 c 128,-1,37
 106.162109375 745.133789062 106.162109375 745.133789062 120.623046875 741.759765625 c 128,-1,38
 135.083984375 738.38671875 135.083984375 738.38671875 142.491210938 726.671875 c 128,-1,39
 149.8984375 714.95703125 149.8984375 714.95703125 147.663085938 701.450195312 c 0,40,41
 143.282226562 675.483398438 143.282226562 675.483398438 141.504882812 667.206054688 c 0,42,43
 137.857421875 649.607421875 137.857421875 649.607421875 133.202148438 620.501953125 c 0,44,45
 110.03515625 500.263671875 110.03515625 500.263671875 102.151367188 386.06640625 c 0,46,47
 92.294921875 237.258789062 92.294921875 237.258789062 115.491210938 153.016601562 c 0,48,49
 127.4296875 108.7578125 127.4296875 108.7578125 149.473632812 83.6416015625 c 0,50,51
 169.701171875 61.845703125 169.701171875 61.845703125 202.990234375 56.8251953125 c 0,52,53
 224.956054688 54.9033203125 224.956054688 54.9033203125 251.55078125 75.7646484375 c 128,-1,54
 278.14453125 96.6259765625 278.14453125 96.6259765625 302.451171875 133.498046875 c 0,55,56
 354.475585938 210.10546875 354.475585938 210.10546875 379.775390625 318.5625 c 0,57,58
 392.169921875 363.85546875 392.169921875 363.85546875 398.06640625 419.202148438 c 0,59,60
 400.942382812 440.03125 400.942382812 440.03125 410.446289062 524.57421875 c 0,61,62
 417.533203125 593.518554688 417.533203125 593.518554688 424.331054688 635.083984375 c 0,63,64
 433.143554688 699.661132812 433.143554688 699.661132812 444.765625 748.18359375 c 0,65,66
 447.000976562 761.689453125 447.000976562 761.689453125 459.286132812 769.575195312 c 128,-1,67
 471.5703125 777.458984375 471.5703125 777.458984375 484.984375 774.176757812 c 128,-1,68
 498.399414062 770.895507812 498.399414062 770.895507812 506.330078125 759.133789062 c 128,-1,69
 514.259765625 747.374023438 514.259765625 747.374023438 510.88671875 732.913085938 c 0,70,71
 509.658203125 730.912109375 509.658203125 730.912109375 508.814453125 727.296875 c 128,-1,72
 507.971679688 723.681640625 507.971679688 723.681640625 507.7890625 721.58984375 c 0,73,74
 510.376953125 715.0390625 510.376953125 715.0390625 509.736328125 707.716796875 c 0,0,1
EndSplineSet
EndUndoOperation
EndUndoes
Redoes
EndRedoes
EndUndoRedoHistory
Fore
SplineSet
455 -10 m 0,0,1
 442 -10 442 -10 432 -5 c 0,2,3
 417 3 417 3 416 16 c 0,4,5
 415 61 415 61 422 113 c 1,6,7
 414 104 414 104 405 95 c 0,8,9
 365 53 365 53 322 25 c 0,10,11
 262 -12 262 -12 209 -12 c 0,12,13
 203 -12 203 -12 198 -11 c 0,14,15
 135 -5 135 -5 104 37 c 0,16,17
 81 72 81 72 78 137 c 0,18,19
 75 203 75 203 98 302 c 0,20,21
 108 343 108 343 121 391 c 0,22,23
 156 509 156 509 207 632 c 0,24,25
 212 647 212 647 218 663 c 0,26,27
 225 680 225 680 240 714 c 0,28,29
 246 728 246 728 263 737 c 0,30,31
 276 743 276 743 290 743 c 0,32,33
 295 743 295 743 300 742 c 0,34,35
 319 739 319 739 327 727 c 0,36,37
 333 718 333 718 331 708 c 0,38,39
 330 703 330 703 324 686 c 0,40,41
 318 670 318 670 311 657 c 2,42,43
 302 633 302 633 294 615 c 1,44,45
 244 497 244 497 211 385 c 0,46,47
 198 341 198 341 190 303 c 0,48,49
 170 217 170 217 171 161 c 0,50,51
 177 90 177 90 231 87 c 0,52,53
 232 87 232 87 232.5 87 c 128,-1,54
 233 87 233 87 233 87 c 0,55,56
 249 87 249 87 275 101 c 0,57,58
 301 117 301 117 334 150 c 0,59,60
 402 221 402 221 451 322 c 1,61,-1
 451 323 l 2,62,63
 474 367 474 367 492 421 c 0,64,65
 511 474 511 474 529 525 c 0,66,67
 552 594 552 594 569 635 c 0,68,69
 592 699 592 699 614 748 c 0,70,71
 620 762 620 762 639 770 c 0,72,73
 652 776 652 776 664 775 c 0,74,75
 669 775 669 775 674 774 c 0,76,77
 691 771 691 771 699 759 c 0,78,79
 705 751 705 751 702 741 c 0,80,81
 698 725 698 725 694 718 c 0,82,83
 694 718 694 718 694 719 c 0,84,85
 695 712 695 712 692 705 c 0,86,87
 675 651 675 651 636 539 c 0,88,89
 631 523 631 523 627 513 c 0,90,91
 623 504 623 504 622 499 c 0,92,93
 557 310 557 310 533 211 c 0,94,95
 510 113 510 113 511 40 c 0,96,97
 511 31 511 31 508.5 22.5 c 128,-1,98
 506 14 506 14 498 6 c 0,99,100
 485 -7 485 -7 466 -10 c 0,101,102
 460 -10 460 -10 455 -10 c 0,0,1
EndSplineSet
EndChar

StartChar: V
Encoding: 86 86 57
AltUni2: 0013d9.ffffffff.0 002164.ffffffff.0 002c7d.ffffffff.0 00ff36.ffffffff.0 0013d9.ffffffff.0 002164.ffffffff.0 002c7d.ffffffff.0 00ff36.ffffffff.0
Width: 454
GlyphClass: 1
Flags: W
LayerCount: 2
UndoRedoHistory
Layer: 1
Undoes
UndoOperation
Index: 0
Type: 3
WasModified: 0
WasOrder2: 1
Layer: 2
EndUndoOperation
UndoOperation
Index: 1
Type: 1
WasModified: 1
WasOrder2: 1
Layer: 2
Width: 429
VWidth: 1000
LBearingChange: 0
UnicodeEnc: 0
InstructionsLength: 0
SplineSet
381.650390625 776.875 m 0,0,1
 436.25 612.025390625 436.25 612.025390625 379.549804688 355.825195312 c 0,2,3
 320.75 89.125 320.75 89.125 198.950195312 -20.0751953125 c 0,4,5
 186.349609375 -32.6748046875 186.349609375 -32.6748046875 165.349609375 -35.8251953125 c 0,6,7
 154.849609375 -38.974609375 154.849609375 -38.974609375 144.349609375 -36.875 c 0,8,9
 125.450195312 -34.775390625 125.450195312 -34.775390625 114.950195312 -24.275390625 c 0,10,11
 67.7001953125 20.875 67.7001953125 20.875 50.900390625 142.674804688 c 0,12,13
 40.400390625 226.674804688 40.400390625 226.674804688 40.400390625 370.525390625 c 0,14,15
 40.400390625 381.025390625 40.400390625 381.025390625 39.349609375 392.575195312 c 0,16,17
 39.349609375 493.375 39.349609375 493.375 36.2001953125 555.325195312 c 0,18,19
 32 633.025390625 32 633.025390625 18.349609375 679.224609375 c 0,20,21
 14.150390625 692.875 14.150390625 692.875 20.974609375 704.950195312 c 128,-1,22
 27.7998046875 717.025390625 27.7998046875 717.025390625 41.4501953125 721.224609375 c 128,-1,23
 55.099609375 725.424804688 55.099609375 725.424804688 67.1748046875 719.125 c 128,-1,24
 79.25 712.825195312 79.25 712.825195312 83.4501953125 699.174804688 c 0,25,26
 98.150390625 649.825195312 98.150390625 649.825195312 104.450195312 559.525390625 c 0,27,28
 107.599609375 494.424804688 107.599609375 494.424804688 107.599609375 393.625 c 0,29,30
 108.650390625 382.075195312 108.650390625 382.075195312 108.650390625 370.525390625 c 0,31,32
 108.650390625 234.025390625 108.650390625 234.025390625 118.099609375 152.125 c 0,33,34
 130.700195312 63.9248046875 130.700195312 63.9248046875 155.900390625 32.4248046875 c 1,35,36
 205.25 78.625 205.25 78.625 247.25 168.400390625 c 128,-1,37
 289.25 258.174804688 289.25 258.174804688 313.400390625 370.525390625 c 0,38,39
 337.549804688 481.825195312 337.549804688 481.825195312 338.599609375 584.724609375 c 128,-1,40
 339.650390625 687.625 339.650390625 687.625 316.549804688 754.825195312 c 0,41,42
 312.349609375 768.474609375 312.349609375 768.474609375 318.125 780.549804688 c 128,-1,43
 323.900390625 792.625 323.900390625 792.625 337.549804688 797.875 c 128,-1,44
 351.200195312 803.125 351.200195312 803.125 364.325195312 796.825195312 c 128,-1,45
 377.450195312 790.525390625 377.450195312 790.525390625 381.650390625 776.875 c 0,0,1
EndSplineSet
EndUndoOperation
EndUndoes
Redoes
EndRedoes
EndUndoRedoHistory
Fore
SplineSet
494 745 m 0,0,1
 494 755 494 755 497 767 c 0,2,3
 498 773 498 773 505 781 c 0,4,5
 516 793 516 793 535 798 c 0,6,7
 544 800 544 800 552.5 800 c 128,-1,8
 561 800 561 800 570 797 c 0,9,10
 586 791 586 791 589 777 c 0,11,12
 602 610 602 610 489 353 c 0,13,14
 373 90 373 90 217 -20 c 0,15,16
 197 -33 197 -33 169 -36 c 0,17,18
 154 -39 154 -39 140 -37 c 0,19,20
 115 -35 115 -35 105 -24 c 0,21,22
 68 22 68 22 80 143 c 0,23,24
 89 223 89 223 123 371 c 0,25,26
 125 381 125 381 127 392 c 1,27,-1
 127 393 l 2,28,29
 150 493 150 493 162 561 c 0,30,31
 174 628 174 628 172 671 c 0,32,33
 171 690 171 690 184 705 c 0,34,35
 196 717 196 717 214 721 c 0,36,37
 221 723 221 723 230.5 723 c 128,-1,38
 240 723 240 723 248 719 c 0,39,40
 263 713 263 713 266 699 c 0,41,42
 269 649 269 649 254 560 c 2,43,44
 253 557 253 557 254 559 c 1,45,46
 234 494 234 494 219 394 c 0,47,48
 218 384 218 384 216.5 378.5 c 128,-1,49
 215 373 215 373 214 371 c 0,50,51
 183 237 183 237 175 156 c 0,52,53
 171 97 171 97 182 67 c 1,54,55
 235 109 235 109 290 181 c 0,56,57
 354 266 354 266 405 373 c 0,58,59
 455 488 455 488 478 588 c 0,60,61
 500 685 500 685 494 745 c 0,0,1
EndSplineSet
EndChar

